<?xml version="1.0" encoding="UTF-8" standalone="no"?>
<svg
   xmlns:dc="http://purl.org/dc/elements/1.1/"
   xmlns:cc="http://creativecommons.org/ns#"
   xmlns:rdf="http://www.w3.org/1999/02/22-rdf-syntax-ns#"
   xmlns:svg="http://www.w3.org/2000/svg"
   xmlns="http://www.w3.org/2000/svg"
   xmlns:sodipodi="http://sodipodi.sourceforge.net/DTD/sodipodi-0.dtd"
   xmlns:inkscape="http://www.inkscape.org/namespaces/inkscape"
   version="1.1"
   id="svg2"
   width="4339"
   height="4150"
   viewBox="0 0 4339 4150"
   sodipodi:docname="glifoConstelaciones.svg"
   inkscape:version="1.0.2 (e86c870879, 2021-01-15)">
  <metadata
     id="metadata8">
    <rdf:RDF>
      <cc:Work
         rdf:about="">
        <dc:format>image/svg+xml</dc:format>
        <dc:type
           rdf:resource="http://purl.org/dc/dcmitype/StillImage" />
        <dc:title></dc:title>
      </cc:Work>
    </rdf:RDF>
  </metadata>
  <defs
     id="defs6" />
  <sodipodi:namedview
     pagecolor="#ffffff"
     bordercolor="#666666"
     borderopacity="1"
     objecttolerance="10"
     gridtolerance="10"
     guidetolerance="10"
     inkscape:pageopacity="0"
     inkscape:pageshadow="2"
     inkscape:window-width="1920"
     inkscape:window-height="1006"
     id="namedview4"
     showgrid="false"
     inkscape:zoom="0.15316479"
     inkscape:cx="4367.6995"
     inkscape:cy="2307.0257"
     inkscape:window-x="0"
     inkscape:window-y="0"
     inkscape:window-maximized="1"
     inkscape:current-layer="g10"
     inkscape:document-rotation="0" />
  <g
     inkscape:groupmode="layer"
     inkscape:label="Image"
     id="g10"
     style="display:inline">
    <path
       style="display:none;fill:none;stroke:#ffffff;stroke-width:1px;stroke-linecap:butt;stroke-linejoin:miter;stroke-opacity:1"
       d="m 3020.4904,1713.3073 c -20.4401,28.7406 8.6409,51.5879 28.5069,35.6501 117.0834,-101.3116 229.8748,-206.8731 338.759,-316.3036 11.9497,-19.6924 -9.4956,-57.1487 -39.9149,-38.4601 -71.6065,77.9841 -186.9791,178.2978 -327.351,319.1136 z"
       id="path450"
       sodipodi:nodetypes="ccccc" />
    <path
       style="fill:none;stroke:#000000;stroke-width:1px;stroke-linecap:butt;stroke-linejoin:miter;stroke-opacity:1"
       d="M -40.630896,1365.6281 412.93956,1194.7669 1190.311,704.18721 1529.659,365.77048 1731.9315,552.22901"
       id="path72" />
    <path
       style="fill:none;stroke:#000000;stroke-width:1px;stroke-linecap:butt;stroke-linejoin:miter;stroke-opacity:1"
       d="m 1187.7832,722.34448 213.7115,249.35129 340.9585,-402.80474 279.8445,-138.3788 365.2069,-15.58702 262.4906,-326.83635 v 0"
       id="path74" />
    <path
       style="fill:none;stroke:#000000;stroke-width:1px;stroke-linecap:butt;stroke-linejoin:miter;stroke-opacity:1"
       d="m 1816.5718,2200.5447 -52.5851,-388.173 -181.9494,-352.6258 206.2223,-65.6099 318.1919,-67.2555 584.7239,-333.30548 562.1959,-147.69364"
       id="path76" />
    <path
       style="fill:none;stroke:#000000;stroke-width:1px;stroke-linecap:butt;stroke-linejoin:miter;stroke-opacity:1"
       d="m 3274.1847,847.85692 331.1006,278.32238 -25.7699,250.6557 -6.7144,440.0713 -340.8582,517.2648 411.0897,300.5534"
       id="path78" />
    <path
       style="fill:none;stroke:#000000;stroke-width:1px;stroke-linecap:butt;stroke-linejoin:miter;stroke-opacity:1"
       d="m 3658.3522,2639.718 434.926,-838.188 144.167,-142.7625 138.2063,-17.598 65.8326,211.3023 -322.0172,-46.5471"
       id="path80" />
    <path
       style="fill:none;stroke:#000000;stroke-width:1px;stroke-linecap:butt;stroke-linejoin:miter;stroke-opacity:1"
       d="m 2110.5687,2563.2685 216.3465,-132.05 235.5929,-169.8678 120.0319,-297.9383 -78.6019,-240.3287 168.596,-54.3836 58.1241,275.4741 -136.7168,22.3921"
       id="path82" />
    <path
       style="fill:none;stroke:#000000;stroke-width:1px;stroke-linecap:butt;stroke-linejoin:miter;stroke-opacity:1"
       d="m 2139.5277,2732.8855 286.2769,440.2774 781.2682,-20.5776 -29.7461,371.8505 486.2275,-294.896 141.749,-180.1979 v 0"
       id="path84" />
    <path
       style="fill:none;stroke:#000000;stroke-width:1px;stroke-linecap:butt;stroke-linejoin:miter;stroke-opacity:1"
       d="m 1941.0363,3938.4217 145.622,283.578 234.9111,-18.0545 61.7316,215.0199 250.1161,-160.6366"
       id="path86" />
  </g>
  <g
     inkscape:groupmode="layer"
     id="layer1"
     inkscape:label="fondo" />
</svg>
