<?xml version="1.0" encoding="UTF-8" standalone="no"?>
<svg
   xmlns:dc="http://purl.org/dc/elements/1.1/"
   xmlns:cc="http://creativecommons.org/ns#"
   xmlns:rdf="http://www.w3.org/1999/02/22-rdf-syntax-ns#"
   xmlns:svg="http://www.w3.org/2000/svg"
   xmlns="http://www.w3.org/2000/svg"
   xmlns:sodipodi="http://sodipodi.sourceforge.net/DTD/sodipodi-0.dtd"
   xmlns:inkscape="http://www.inkscape.org/namespaces/inkscape"
   version="1.1"
   id="svg2"
   width="4339"
   height="4150"
   viewBox="0 0 4339 4150"
   sodipodi:docname="glifos.svg"
   inkscape:version="1.0.2 (e86c870879, 2021-01-15)">
  <metadata
     id="metadata8">
    <rdf:RDF>
      <cc:Work
         rdf:about="">
        <dc:format>image/svg+xml</dc:format>
        <dc:type
           rdf:resource="http://purl.org/dc/dcmitype/StillImage" />
        <dc:title></dc:title>
      </cc:Work>
    </rdf:RDF>
  </metadata>
  <defs
     id="defs6" />
  <sodipodi:namedview
     pagecolor="#ffffff"
     bordercolor="#666666"
     borderopacity="1"
     objecttolerance="10"
     gridtolerance="10"
     guidetolerance="10"
     inkscape:pageopacity="0"
     inkscape:pageshadow="2"
     inkscape:window-width="1920"
     inkscape:window-height="1006"
     id="namedview4"
     showgrid="false"
     inkscape:zoom="0.14144675"
     inkscape:cx="5797.114"
     inkscape:cy="2245.7146"
     inkscape:window-x="0"
     inkscape:window-y="0"
     inkscape:window-maximized="1"
     inkscape:current-layer="g10"
     inkscape:document-rotation="0" />
  <g
     inkscape:groupmode="layer"
     inkscape:label="Image"
     id="g10"
     style="display:inline">
    <path
       style="fill:none;stroke:#ffffff;stroke-width:1.39446px;stroke-linecap:butt;stroke-linejoin:miter;stroke-opacity:1"
       d="m 2900.6786,453.95388 c 19.8942,17.15238 32.5697,21.48873 58.0093,59.73578 11.5542,39.84428 14.4644,74.80251 8.3454,104.65719 -20.8835,67.60894 -40.8181,84.28953 -60.9056,109.16819 -27.166,13.6026 -54.3319,20.27052 -81.4979,24.65179 -43.6744,-3.72295 -80.6574,-11.72564 -106.0313,-27.15304 -40.2315,-36.93033 -54.1105,-67.88815 -61.288,-97.32716 -2.1486,-23.87105 -1.683,-47.17379 3.6025,-69.42874 l 49.0692,-84.41427 c 18.0533,-12.02876 28.8338,-24.13384 68.9457,-35.93114 24.6865,-6.96113 28.9247,-5.96709 40.0107,-8.885 30.5258,2.2174 58.8963,8.4388 81.74,24.9264 z"
       id="path90"
       sodipodi:nodetypes="cccccccccccc" />
    <path
       style="fill:none;stroke:#ffffff;stroke-width:1.39446px;stroke-linecap:butt;stroke-linejoin:miter;stroke-opacity:1"
       d="m 2783.8828,555.03386 c 14.5039,-9.95536 31.3448,-9.44614 48.7698,-9.87296 37.7846,34.10543 25.0662,49.4841 23.4363,71.67856 -5.9617,7.95068 -16.4069,15.94127 -41.1739,24.05937 -19.9031,-4.80545 -39.6492,-9.83428 -49.868,-28.43707 -0.3915,-20.25326 -9.5775,-37.47273 18.8358,-57.4279 z"
       id="path92"
       sodipodi:nodetypes="cccccc" />
    <path
       style="fill:none;stroke:#ffffff;stroke-width:1.39446px;stroke-linecap:butt;stroke-linejoin:miter;stroke-opacity:1"
       d="m 2809.375,498.69579 c 33.3984,4.43794 58.8432,17.82346 77.0164,39.38935 20.9227,24.4651 21.5429,51.3217 15.7207,77.25601 0.1226,27.5114 -27.5091,47.54816 -71.1003,64.83784 -28.5031,8.88547 -58.295,2.35698 -90.0058,-27.12136 -26.656,-26.23184 -26.8884,-49.83004 -28.6312,-73.57879 16.1672,-37.40082 40.6284,-69.42845 97.0002,-80.78305 z"
       id="path94"
       sodipodi:nodetypes="ccccccc" />
    <path
       style="fill:none;stroke:#ffffff;stroke-width:1.39446px;stroke-linecap:butt;stroke-linejoin:miter;stroke-opacity:1"
       d="m 2333.3848,722.70052 c -9.3251,-70.41309 21.8486,-114.40709 69.8943,-147.39462 l 127.8243,-63.79172 -79.8645,-140.54753 c -20.2995,-45.18312 -26.3221,-96.17133 33.6887,-163.41119 l 44.7552,-31.17319 c 67.1164,-47.72964 110.6904,-34.33129 152.8583,-17.28238 l 44.1446,39.86716 119.5271,178.36158 c 21.5246,29.2085 37.4543,17.49148 60.0752,8.57343 l 241.723,-59.5957 c 100.3593,6.93879 127.9347,76.31494 149.3788,112.73819 30.0428,71.16632 17.4932,116.18888 -18.7721,146.65425 -28.6347,29.59569 -85.1831,52.02157 -127.9495,77.98739 l -83.5504,30.64796 97.995,201.86606 c 12.1981,42.06894 -32.2988,78.19731 -68.4226,115.20309 -18.361,19.6533 -47.4626,24.1008 -72.6359,34.1096 -69.2419,8.0515 -127.8742,6.0899 -149.4092,-30.8825 -30.5555,-42.67807 -60.9447,-84.82928 -82.0819,-124.61311 -17.5708,-20.49195 -23.7755,-38.965 -33.0529,-57.75152 -6.7272,-17.74931 -11.1954,-42.16808 -43.833,-15.88658 -24.5812,2.9755 -73.7328,28.00394 -103.9772,38.22774 l -63.0663,8.68947 c -44.2645,7.51506 -88.5249,15.13958 -134.94,-33.19274 -24.4044,-18.56788 -38.2476,-35.1054 -50.6087,-51.35804 -12.6254,-17.55311 -26.4431,-34.61245 -29.7003,-56.0451 z"
       id="path96"
       sodipodi:nodetypes="ccccccccccccccccccccccccccc" />
    <path
       style="fill:none;stroke:#ffffff;stroke-width:1.39446px;stroke-linecap:butt;stroke-linejoin:miter;stroke-opacity:1"
       d="m 2552.9023,233.02903 c 49.0839,-42.24519 82.0499,-30.30801 133.7283,0.15828 13.2095,14.0617 22.5003,18.1715 40.7589,45.05515 l 81.8318,127.88877 c 25.0591,28.18565 55.7499,34.58033 88.8764,31.55151 l 188.7575,-51.10402 c 72.0251,-16.64127 124.3697,-3.91422 143.4885,58.39448 24.5184,50.94943 15.9303,96.05094 -33.7037,133.90204 l -147.7204,69.95832 -50.8797,22.25271 40.8717,80.66236 48.7947,106.97044 c 24.9487,56.59578 19.5505,102.30526 -46.7639,126.16203 -44.696,16.7223 -85.7164,57.8351 -147.2335,-37.06878 l -87.8527,-150.95816 c -27.974,-50.31623 -48.7791,-71.25539 -122.5607,-30.37495 l -109.1323,36.73971 c -52.5058,18.7041 -101.7083,21.26379 -139.1765,-33.53049 -60.3678,-65.14609 -36.7843,-111.51267 1.3934,-154.61455 l 68.8101,-38.63866 115.6698,-51.86307 -92.9526,-129.64106 c -43.6923,-56.54201 -52.3417,-106.91039 24.9949,-161.90206 z"
       id="path98"
       sodipodi:nodetypes="ccccccccccccccccccccccc" />
    <path
       style="fill:none;stroke:#ffffff;stroke-width:1.39446px;stroke-linecap:butt;stroke-linejoin:miter;stroke-opacity:1"
       d="m 2450.1889,651.65042 c -23.4372,54.51438 0.8704,82.00934 45.1378,98.20885 23.3689,3.40027 37.1296,2.21078 48.2891,-0.22116 l 83.7152,-37.64877 c 15.4011,-13.2781 34.6042,-55.41283 -25.1669,-26.26824 l -56.7672,22.67359 c -26.8932,7.80831 -70.9078,-2.45872 -30.7506,-50.03731 l 69.9005,-43.22045 c 15.3055,-5.41461 38.0691,-42.92662 -11.9832,-25.46426 l -26.1506,12.38931 c -71.2928,32.06936 -87.3792,42.26363 -96.2241,49.58844 z"
       id="path100"
       sodipodi:nodetypes="ccccccccccc" />
    <path
       style="fill:none;stroke:#ffffff;stroke-width:1.39446px;stroke-linecap:butt;stroke-linejoin:miter;stroke-opacity:1"
       d="m 2877.5758,835.28786 c 19.9992,42.46929 41.4884,73.82637 63.9009,98.29839 62.8399,47.81832 94.9084,-0.21167 100.2278,-47.2145 L 2982.43,767.32801 c -7.8493,-10.43631 -12.3706,-21.90496 -17.6276,-26.88195 -29.2909,-27.7302 -34.3909,24.02624 -12.7153,47.47836 l 41.5191,74.51257 c 18.6036,48.26232 -16.068,54.93624 -42.0008,21.73567 l -46.028,-70.46513 c -49.7046,-50.64378 -59.9564,-21.22503 -28.0016,21.58033 z"
       id="path102"
       sodipodi:nodetypes="ccccsccccc" />
    <path
       style="fill:none;stroke:#ffffff;stroke-width:1.39446px;stroke-linecap:butt;stroke-linejoin:miter;stroke-opacity:1"
       d="m 3051.1723,554.37473 80.3395,-37.28778 c 36.7161,-32.19273 16.3716,-55.69846 -27.7337,-47.97114 l -80.2273,32.37098 c -39.8631,16.24187 -51.5446,-12.98117 -11.0456,-30.15166 45.2562,-12.69268 92.3945,-44.30978 135.4072,-34.44807 47.9934,14.9339 43.0178,39.95616 41.2141,64.37429 -4.3678,17.03125 -7.6516,33.98373 -36.5774,52.79905 l -88.1225,40.0176 c -45.8945,19.71116 -89.8828,-15.0618 -13.2543,-39.70327 z"
       id="path104"
       sodipodi:nodetypes="cccccccccc" />
    <path
       style="fill:none;stroke:#ffffff;stroke-width:1.39446px;stroke-linecap:butt;stroke-linejoin:miter;stroke-opacity:1"
       d="m 2644.6419,426.67655 -44.4315,-57.10879 c -24.0542,-30.95487 -1.0267,-79.70425 47.9382,-35.51856 l 56.3905,61.41286 c 31.0827,28.95489 60.8136,11.70824 23.1833,-28.78304 l -61.0211,-76.86599 c -36.7484,-29.07195 -66.6715,-30.14973 -90.0858,-4.53198 -30.3324,32.04227 -32.0346,60.78271 -10.8594,86.88476 l 55.4957,78.04604 c 24.0414,29.38566 58.1989,17.27711 23.3901,-23.5353 z"
       id="path106"
       sodipodi:nodetypes="cccccccccc" />
    <path
       style="fill:none;stroke:#ffffff;stroke-width:1.39446px;stroke-linecap:butt;stroke-linejoin:miter;stroke-opacity:1"
       d="m 2879.6593,291.1619 c 1.7558,-13.51077 4.5447,-26.31451 24.4157,-27.42781 10.6429,-1.17061 18.3037,7.1338 24.2725,20.81385 -0.1213,13.61812 -1.6649,26.45384 -23.8606,27.93777 -14.3885,1.85609 -22.7631,-5.10707 -24.8276,-21.32381 z"
       id="path108"
       sodipodi:nodetypes="ccccc" />
    <path
       style="fill:none;stroke:#ffffff;stroke-width:1.39446px;stroke-linecap:butt;stroke-linejoin:miter;stroke-opacity:1"
       d="m 2909.1843,221.56093 c -58.8071,4.59866 -70.6367,38.81053 -68.3091,81.9465 8.7219,50.16054 37.215,57.02344 69.7404,55.05625 41.3598,-8.3258 61.2023,-33.10333 62.8639,-71.78156 -6.505,-40.64011 -28.8736,-61.19425 -64.2952,-65.22119 z"
       id="path110"
       sodipodi:nodetypes="ccccc" />
    <path
       style="fill:none;stroke:#ffffff;stroke-width:1.39446px;stroke-linecap:butt;stroke-linejoin:miter;stroke-opacity:1"
       d="m 2376.4685,263.5823 c -21.562,3.39369 -27.6625,19.19258 -29.4117,38.48253 8.5117,17.52473 21.5023,20.87259 35.3533,21.49719 8.8128,-7.17615 18.5107,-11.31271 22.7707,-34.12689 -0.4585,-13.31929 -11.5187,-21.16846 -28.7123,-25.85283 z"
       id="path112"
       sodipodi:nodetypes="ccccc" />
    <path
       style="fill:none;stroke:#ffffff;stroke-width:1.39446px;stroke-linecap:butt;stroke-linejoin:miter;stroke-opacity:1"
       d="m 2398.8384,422.47401 c -23.3397,5.08355 -25.896,19.0769 -27.9899,33.26841 5.041,19.03307 19.205,18.27289 32.0111,20.45869 8.9789,-0.91695 16.7182,-7.32279 21.6947,-25.96039 1.3116,-20.69923 -13.9031,-22.26347 -25.7159,-27.76671 z"
       id="path114"
       sodipodi:nodetypes="ccccc" />
    <path
       style="fill:none;stroke:#ffffff;stroke-width:1.39446px;stroke-linecap:butt;stroke-linejoin:miter;stroke-opacity:1"
       d="m 2396.163,387.18309 c 34.8665,0.69639 60.6094,18.48381 71.9976,63.16217 -3.2345,32.6837 -21.4755,58.10289 -63.8636,71.83257 -33.6956,-1.54318 -67.384,-3.10291 -78.5165,-56.59473 1.6576,-34.77743 6.4794,-78.52248 70.3825,-78.40001 z"
       id="path116"
       sodipodi:nodetypes="ccccc" />
    <path
       style="fill:none;stroke:#ffffff;stroke-width:1.39446px;stroke-linecap:butt;stroke-linejoin:miter;stroke-opacity:1"
       d="m 2722.7595,883.21063 c -26.1797,-0.98003 -33.9581,10.72037 -31.6541,29.36884 14.0152,18.8985 24.4524,13.9402 35.8193,15.18169 11.4745,-4.76685 15.3848,-12.64892 11.8812,-23.5839 -4.111,-13.67233 -10.2727,-16.27175 -16.0464,-20.96663 z"
       id="path118"
       sodipodi:nodetypes="ccccc" />
    <path
       style="fill:none;stroke:#ffffff;stroke-width:1.39446px;stroke-linecap:butt;stroke-linejoin:miter;stroke-opacity:1"
       d="m 2724.7901,844.45271 c -65.6458,12.03954 -72.2301,39.87057 -81.8207,66.89782 10.8668,40.46209 32.5264,51.94245 55.9099,58.79319 35.7011,-0.54301 78.5156,8.57554 85.4434,-31.0471 z"
       id="path120"
       sodipodi:nodetypes="ccccc" />
    <path
       style="fill:none;stroke:#ffffff;stroke-width:1.39446px;stroke-linecap:butt;stroke-linejoin:miter;stroke-opacity:1"
       d="m 2399.1583,205.96247 c -13.7,-6.31131 -30.258,-10.78914 -30.7181,-25.59382 -5.5161,-26.09459 7.7405,-33.72216 29.8487,-32.6421 14.4093,-9.79119 24.0558,2.4886 31.5826,24.59057 6.8763,22.92889 -5.0716,32.97339 -30.7132,33.64535 z"
       id="path122"
       sodipodi:nodetypes="ccccc" />
    <path
       style="fill:none;stroke:#ffffff;stroke-width:1.39446px;stroke-linecap:butt;stroke-linejoin:miter;stroke-opacity:1"
       d="m 2238.0576,176.95695 c 22.7225,-103.924401 87.566,-44.23946 82.5517,0.7627 l -26.5483,593.24723 c -29.3432,62.77104 -61.2329,38.69753 -69.9203,0 z"
       id="path124"
       sodipodi:nodetypes="ccccc" />
    <path
       style="fill:none;stroke:#ffffff;stroke-width:1.39446px;stroke-linecap:butt;stroke-linejoin:miter;stroke-opacity:1"
       d="m 3258.831,734.64202 c -17.2262,5.48764 -29.1388,16.02311 -27.8055,39.14154 1.4104,21.04555 14.9315,21.45622 28.3952,21.96492 12.5689,-2.60709 19.2578,-15.67881 26.0447,-28.57608 -3.5775,-11.86272 4.2727,-25.92285 -26.6344,-32.53038 z"
       id="path126"
       sodipodi:nodetypes="ccccc" />
    <path
       style="fill:none;stroke:#ffffff;stroke-width:1.39446px;stroke-linecap:butt;stroke-linejoin:miter;stroke-opacity:1"
       d="m 3256.259,686.91644 c -53.3921,6.95795 -70.7234,40.86118 -73.1165,85.92655 5.0855,68.73196 41.1957,63.80754 73.4311,68.08186 39.8159,-19.17181 72.0961,-42.75809 72.7022,-84.89842 -3.3954,-43.63158 -32.6388,-61.84552 -73.0168,-69.10999 z"
       id="path128"
       sodipodi:nodetypes="ccccc" />
    <path
       style="fill:none;stroke:#ffffff;stroke-width:1.39446px;stroke-linecap:butt;stroke-linejoin:miter;stroke-opacity:1"
       d="m 3361.666,650.18867 c -24.0018,2.94391 -30.4574,17.36742 -31.1261,35.57705 10.5823,21.71294 20.4406,19.79681 30.3151,18.41086 10.5187,-5.29982 22.3333,-6.23383 27.772,-28.64902 -4.0918,-10.64364 -3.9213,-23.20071 -26.961,-25.33889 z"
       id="path130"
       sodipodi:nodetypes="ccccc" />
    <path
       style="fill:none;stroke:#ffffff;stroke-width:1.39446px;stroke-linecap:butt;stroke-linejoin:miter;stroke-opacity:1"
       d="m 3432.6543,569.30491 -32.4564,40.29099 32.2956,20.76654 29.8584,-30.73949 z"
       id="path132" />
    <path
       style="fill:none;stroke:#ffffff;stroke-width:1.39446px;stroke-linecap:butt;stroke-linejoin:miter;stroke-opacity:1"
       d="m 3519.0795,646.13397 c 69.9838,-18.1745 49.036,48.71962 49.036,48.71962 l -447.8146,427.51291 c -25.47,31.9051 -133.1273,27.4907 -56.3891,-54.3006 z"
       id="path134"
       sodipodi:nodetypes="ccccc" />
    <path
       style="fill:none;stroke:#ffffff;stroke-width:1.39446px;stroke-linecap:butt;stroke-linejoin:miter;stroke-opacity:1"
       d="m 3759.8472,1393.1335 c -28.6196,1.354 -31.3236,22.1476 -33.7758,43.1302 5.6946,12.3672 17.4192,14.7716 42.3621,14.8138 13.244,-5.2404 19.623,-17.1932 23.8168,-31.2826 -4.3695,-11.0432 -10.2105,-23.7406 -32.4031,-26.6614 z"
       id="path376"
       sodipodi:nodetypes="ccccc" />
    <path
       style="fill:none;stroke:#ffffff;stroke-width:1.39446px;stroke-linecap:butt;stroke-linejoin:miter;stroke-opacity:1"
       d="m 3766.9791,1357.4191 c -55.2789,3.8417 -68.1264,35.2157 -71.8685,72.4983 7.4791,35.1789 27.2213,56.2048 62.0097,59.8649 38.5351,-8.5479 53.0287,-29.5639 58.4759,-55.2717 2.1532,-34.4083 2.386,-67.9055 -48.6171,-77.0915 z"
       id="path378"
       sodipodi:nodetypes="ccccc" />
    <path
       style="fill:none;stroke:#ffffff;stroke-width:1.39446px;stroke-linecap:butt;stroke-linejoin:miter;stroke-opacity:1"
       d="m 3764.4752,1310.291 c -135.2201,37.2866 -100.0013,74.971 -114.8228,112.5386 10.285,135.7662 68.3511,74.2559 103.7432,106.3609 113.3994,-37.5098 84.0832,-85.7653 100.4335,-120.2465 -8.1753,-27.2593 -10.8564,-49.8674 -26.5736,-70.7708 -9.1128,-12.1201 -26.4536,-22.1197 -62.7803,-27.8822 z"
       id="path380"
       sodipodi:nodetypes="ccccsc" />
    <path
       style="fill:none;stroke:#ffffff;stroke-width:1.39446px;stroke-linecap:butt;stroke-linejoin:miter;stroke-opacity:1"
       d="m 3740.0481,1263.9516 c -158.8609,51.9068 -121.6341,113.6645 -155.4672,171.8523 28.9887,125.2479 105.5195,128.9888 175.046,150.6315 54.5209,-28.6002 112.7168,-51.1605 128.2654,-143.8113 -1.7467,-40.2433 -5.6736,-80.0679 -34.4248,-115.1241 -23.7209,-37.7783 -62.0185,-58.3825 -113.4194,-63.5484 z"
       id="path382"
       sodipodi:nodetypes="cccccc" />
    <path
       style="fill:none;stroke:#ffffff;stroke-width:1.39446px;stroke-linecap:butt;stroke-linejoin:miter;stroke-opacity:1"
       d="m 3712.7255,1221.5135 c -173.3534,47.5428 -156.0079,114.4463 -173.5823,180.8944 -3.3069,12.5028 -0.2441,24.0285 -4.0033,37.1757 5.1177,116.7947 81.9785,195.0398 221.678,201.81 192.6076,-62.553 172.9525,-146.3172 175.233,-227.8895 -10.3931,-59.624 -15.6064,-121.1974 -84.5068,-158.8015 -35.043,-17.3306 -60.4765,-40.7464 -134.8186,-33.1891 z"
       id="path384"
       sodipodi:nodetypes="csccccc" />
    <path
       style="fill:none;stroke:#ffffff;stroke-width:1.39446px;stroke-linecap:butt;stroke-linejoin:miter;stroke-opacity:1"
       d="m 3660.5726,1169.9491 c 3.9099,5.2332 7.1817,14.5813 10.3412,17.7575 13.3201,13.391 29.4572,5.3128 30.3708,-19.0815 l -4.7281,-57.7504 c 4.8478,-6.6968 3.6799,-13.558 7.6908,-17.983 26.775,-29.5393 60.4021,-9.861 58.3462,12.4229 l -2.1593,60.509 c 1.5721,32.0446 37.374,25.7708 31.9479,-2.6587 l 2.8241,-81.5335 c 1.2171,-22.9871 -13.8764,-35.9771 -47.9227,-37.3508 -23.9195,-1.2296 -47.8389,-4.9463 -71.7583,7.9736 -26.6312,2.2781 -40.7362,23.7219 -25.5793,55.1709 z"
       id="path386"
       sodipodi:nodetypes="csccscccccccc" />
    <path
       style="fill:none;stroke:#ffffff;stroke-width:1.39446px;stroke-linecap:butt;stroke-linejoin:miter;stroke-opacity:1"
       d="m 3848.3101,1134.1701 c 1.4556,-49.0731 14.784,-65.7765 43.6948,-39.9979 13.8578,8.7433 34.2614,17.4865 32.558,26.2298 22.776,12.8751 -2.2289,31.8891 -12.5685,49.0188 l -19.7251,26.1983 c -26.7226,27.7452 11.0194,34.195 26.5445,19.1325 24.8276,-21.0726 47.3147,-42.1449 60.9528,-63.2172 12.5078,-27.4008 5.3235,-49.8077 -25.5062,-66.218 -22.8797,-14.8921 -41.4026,-33.3816 -79.4666,-35.7358 -32.4963,-8.7316 -52.7546,4.0719 -52.9214,40.6323 l -4.3183,75.9999 c 1.1707,37.516 33.6973,21.758 32.3679,0 z"
       id="path388"
       sodipodi:nodetypes="ccccccccccccc" />
    <path
       style="fill:none;stroke:#ffffff;stroke-width:1.39446px;stroke-linecap:butt;stroke-linejoin:miter;stroke-opacity:1"
       d="m 3918.5308,1249.7715 c -17.177,41.761 13.9299,32.6197 27.35,19.178 l 25.779,-25.0759 c 18.9701,-11.5785 33.6432,-10.7056 42.4519,7.1617 6.9101,16.1998 3.9312,29.1833 -8.6889,39.0314 l -41.6908,25.3036 c -39.1511,25.1398 -13.5259,48.3857 18.5743,33.5806 l 63.3707,-30.1227 c 15.3122,-9.969 29.0253,-25.1852 17.4486,-60.6263 l -21.6492,-52.8296 c -22.9049,-36.3262 -43.1164,-17.0241 -58.479,-11.8134 -24.1593,13.6395 -44.4608,34.6437 -64.4666,56.2126 z"
       id="path390"
       sodipodi:nodetypes="cccccccccccc" />
    <path
       style="fill:none;stroke:#ffffff;stroke-width:1.39446px;stroke-linecap:butt;stroke-linejoin:miter;stroke-opacity:1"
       d="m 3981.3785,1378.8448 c 32.984,-11.5938 60.6134,-17.8262 88.1722,-20.0027 24.1384,-7.0552 37.5258,10.6069 38.7873,47.3845 l 1.5799,25.4121 c 6.2134,51.8464 -19.2862,56.4408 -45.7601,59.5833 l -62.2177,-7.0297 c -31.0594,-2.1217 -51.1185,-26.3816 -6.5789,-33.5666 l 43.2143,0.5416 c 26.5211,-0.8361 46.6805,-5.3122 31.1992,-30.1809 -3.0604,-19.5758 -10.8673,-33.4182 -39.0822,-22.6071 l -44.8926,4.7826 c -40.1384,6.6652 -26.7719,-25.175 -4.4214,-24.3171 z"
       id="path392"
       sodipodi:nodetypes="cccccccccccc" />
    <path
       style="fill:none;stroke:#ffffff;stroke-width:1.39446px;stroke-linecap:butt;stroke-linejoin:miter;stroke-opacity:1"
       d="m 3991.4232,1516.0993 82.3575,8.9777 c 15.2531,5.6928 34.4748,6.4025 26.2298,41.6018 l -18.3825,66.3579 c -17.0735,29.4493 -37.0792,32.0321 -58.7679,19.1939 l -47.2923,-29.0139 c -40.8416,-10.0051 -58.0705,-55.7618 4.2898,-38.8346 l 41.9716,20.554 c 10.8537,0.5318 23.1721,7.0612 27.6936,-18.3365 -0.1353,-13.9115 -5.6503,-25.5362 -31.2113,-28.6424 l -31.4141,-6.3178 c -27.6209,5.8983 -31.5812,-42.79 4.5258,-35.5401 z"
       id="path394"
       sodipodi:nodetypes="cccccccccccc" />
    <path
       style="fill:none;stroke:#ffffff;stroke-width:1.39446px;stroke-linecap:butt;stroke-linejoin:miter;stroke-opacity:1"
       d="m 3922.0309,1657.3064 29.6146,25.2139 c 19.0649,17.7222 8.5718,29.5948 0.9283,38.1973 -18.8414,25.6082 -28.8642,29.2006 -47.7535,0.2935 l -18.9886,-32.4857 c -27.2301,-43.0511 -45.8445,-7.2924 -27.1227,15.1698 l 35.762,69.4856 c 15.5481,34.5307 43.1776,13.0885 68.8372,0.7736 l 48.8942,-53.7891 c 13.7048,-12.1268 27.0081,-24.3802 -16.9679,-54.7152 l -51.3675,-31.9594 c -39.6507,-22.2965 -51.2447,1.5825 -21.8361,23.8157 z"
       id="path396"
       sodipodi:nodetypes="cccccccccccc" />
    <path
       style="fill:none;stroke:#ffffff;stroke-width:1.39446px;stroke-linecap:butt;stroke-linejoin:miter;stroke-opacity:1"
       d="m 3801.8456,1714.5154 c -13.7327,-62.8536 37.2157,-33.044 37.9575,-5.1787 l 23.8201,63.9944 c 7.7587,23.4989 0.5522,40.83 -24.7828,48.7361 l -68.9608,10.1197 c -26.0053,3.215 -45.4234,-6.2272 -49.2083,-45.707 l 6.392,-68.9047 c -2.7556,-41.0211 29.1918,-48.1845 29.2504,-5.2394 l 7.5389,40.5581 c 3.8961,21.6503 8.2874,42.4042 30.7837,30.4001 19.4557,-0.8802 20.9315,-15.3406 15.5837,-34.9549 z"
       id="path398"
       sodipodi:nodetypes="cccccccccccc" />
    <path
       style="fill:none;stroke:#ffffff;stroke-width:1.39446px;stroke-linecap:butt;stroke-linejoin:miter;stroke-opacity:1"
       d="m 3608.2288,1687.156 c 30.3635,-49.4297 46.8809,-20.6869 24.393,11.4267 l -17.6194,38.0199 c -10.9122,39.3833 35.2443,42.2798 41.7115,15.8657 l 14.7899,-44.2324 c 16.6633,-37.0865 38.4995,-40.5791 35.9036,6.9649 l -12.443,71.6311 c -12.8754,23.5001 -33.416,29.646 -60.1931,21.6719 L 3595.78,1783.718 c -37.0412,-15.0455 -17.2006,-37.4764 -9.9419,-58.2735 z"
       id="path400"
       sodipodi:nodetypes="ccccccccccc" />
    <path
       style="fill:none;stroke:#ffffff;stroke-width:1.39446px;stroke-linecap:butt;stroke-linejoin:miter;stroke-opacity:1"
       d="m 3491.0404,1652.181 c -34.5895,35.0108 12.7147,53.1798 35.816,26.6152 l 30.21,-38.4423 c 31.1416,-29.4207 54.7194,4.3761 35.0278,30.4281 l -51.1302,72.0012 c -24.3759,42.2871 -50.6755,20.7951 -82.7675,-21.7374 -25.0272,-27.2753 -45.1021,-54.6493 -11.1916,-83.0972 l 54.7638,-48.621 c 32.814,-34.0708 45.1461,3.5453 23.793,21.5433 z"
       id="path402"
       sodipodi:nodetypes="cccccccccc" />
    <path
       style="fill:none;stroke:#ffffff;stroke-width:1.39446px;stroke-linecap:butt;stroke-linejoin:miter;stroke-opacity:1"
       d="m 4099.8129,1771.6798 c -11.4389,0.3768 -19.0188,8.86 -22.5544,25.8387 1.883,12.1454 4.7412,23.585 25.106,22.3486 13.5168,-2.3051 23.115,-8.95 22.3454,-27.0776 -8.4691,-19.7639 -16.6985,-21.5878 -24.897,-21.1097 z"
       id="path404"
       sodipodi:nodetypes="ccccc" />
    <path
       style="fill:none;stroke:#ffffff;stroke-width:1.39446px;stroke-linecap:butt;stroke-linejoin:miter;stroke-opacity:1"
       d="m 4097.9488,1730.8696 c -49.5968,12.8793 -53.4869,42.9821 -61.8454,71.4012 1.3084,53.6907 35.5314,56.3311 66.1985,64.4864 36.8806,-10.2884 66.0591,-25.9144 59.4983,-66.3062 0.1005,-47.3339 -21.896,-69.7232 -63.8514,-69.5814 z"
       id="path406"
       sodipodi:nodetypes="ccccc" />
    <path
       style="fill:none;stroke:#ffffff;stroke-width:1.39446px;stroke-linecap:butt;stroke-linejoin:miter;stroke-opacity:1"
       d="m 4094.7999,1691.2415 c -60.4639,11.8342 -89.3286,55.9047 -99.1644,119.3878 14.5073,83.1427 58.1777,93.9636 106.7145,92.7159 78.6852,-14.2899 104.7477,-58.0379 101.9899,-117.9196 -14.4532,-105.2773 -61.8725,-100.1462 -109.54,-94.1841 z"
       id="path408"
       sodipodi:nodetypes="ccccc" />
    <path
       style="fill:none;stroke:#ffffff;stroke-width:1.39446px;stroke-linecap:butt;stroke-linejoin:miter;stroke-opacity:1"
       d="m 3553.9708,1848.9431 c -12.6602,-1.9292 -18.5323,7.5378 -21.7684,21.4305 0.1798,9.8625 3.6598,18.2364 16.8736,22.2206 12.4029,-2.6501 20.1136,-9.4688 22.8513,-20.7059 0.8544,-10.7575 -2.9534,-19.396 -17.9565,-22.9452 z"
       id="path410"
       sodipodi:nodetypes="ccccc" />
    <path
       style="fill:none;stroke:#ffffff;stroke-width:1.39446px;stroke-linecap:butt;stroke-linejoin:miter;stroke-opacity:1"
       d="m 3555.0657,1807.0236 c -36.0871,10.1963 -47.4512,40.7147 -53.1086,75.9238 2.6866,36.2289 28.4139,41.4533 52.6827,48.6404 39.2818,-12.7865 60.5813,-31.5432 54.421,-59.4163 2.5154,-38.6867 -19.6157,-56.9837 -53.9951,-65.1479 z"
       id="path412"
       sodipodi:nodetypes="ccccc" />
    <path
       style="fill:none;stroke:#ffffff;stroke-width:1.39446px;stroke-linecap:butt;stroke-linejoin:miter;stroke-opacity:1"
       d="m 3552.4108,1779.8355 c -59.2963,-1.1855 -78.1711,43.0179 -81.9366,104.1874 7.5797,49.193 28.0553,83.2463 81.8364,78.2 62.1772,-4.9683 94.4399,-33.5904 95.5001,-86.8848 -8.7674,-75.005 -50.9975,-87.2896 -95.3999,-95.5026 z"
       id="path414"
       sodipodi:nodetypes="ccccc" />
    <path
       style="fill:none;stroke:#ffffff;stroke-width:1.39446px;stroke-linecap:butt;stroke-linejoin:miter;stroke-opacity:1"
       d="m 3714.2552,1852.8983 c -17.9134,3.5124 -28.1768,14.5626 -29.493,34.4286 3.5663,15.1703 10.1936,26.3704 24.742,27.2965 15.2236,-5.6537 29.6595,-11.9895 27.998,-32.2602 -0.4663,-14.411 -3.0076,-27.5141 -23.247,-29.4649 z"
       id="path416"
       sodipodi:nodetypes="ccccc" />
    <path
       style="fill:none;stroke:#ffffff;stroke-width:1.39446px;stroke-linecap:butt;stroke-linejoin:miter;stroke-opacity:1"
       d="m 3811.5238,1862.6425 c -14.1208,-1.1693 -26.4118,4.5568 -33.1814,31.0903 0.199,15.8185 8.6355,22.9094 20.5444,26.3214 21.912,-4.0661 29.6649,-15.4583 29.9311,-30.7247 2.5515,-16.4461 -6.3536,-22.4907 -17.2941,-26.687 z"
       id="path418"
       sodipodi:nodetypes="ccccc" />
    <path
       style="fill:none;stroke:#ffffff;stroke-width:1.39446px;stroke-linecap:butt;stroke-linejoin:miter;stroke-opacity:1"
       d="m 3886.1544,1848.5109 c -18.1537,8.6204 -23.5136,20.9823 -23.7388,34.846 -0.749,15.8044 14.0304,20.6256 26.9285,26.7774 17.4278,-6.1782 18.9611,-19.0825 19.7031,-32.3215 2.8606,-13.4465 -5.6571,-22.9028 -22.8928,-29.3019 z"
       id="path420"
       sodipodi:nodetypes="ccccc" />
    <path
       style="fill:none;stroke:#ffffff;stroke-width:1.39446px;stroke-linecap:butt;stroke-linejoin:miter;stroke-opacity:1"
       d="m 3964.6953,1845.5546 c -25.0709,1.1608 -29.1255,15.5962 -30.8361,31.5121 4.8716,18.334 15.3178,20.7939 25.9892,22.6129 21.6333,-0.5176 30.4964,-12.2151 29.801,-32.2806 -3.4434,-12.2834 -9.7333,-21.6461 -24.9541,-21.8444 z"
       id="path422"
       sodipodi:nodetypes="ccccc" />
    <path
       style="fill:none;stroke:#ffffff;stroke-width:1.39446px;stroke-linecap:butt;stroke-linejoin:miter;stroke-opacity:1"
       d="m 3587.8103,1986.2916 c -131.7622,-7.3002 -108.1347,90.2528 1.809,79.6337 l 577.0885,0.9421 c 112.1298,-6.5692 87.0976,-100.6992 -3.0131,-91.2472 -177.6733,7.4335 -361.8855,13.0931 -575.8844,10.6714 z"
       id="path424"
       sodipodi:nodetypes="ccccc" />
    <path
       style="fill:none;stroke:#ffffff;stroke-width:1.39446px;stroke-linecap:butt;stroke-linejoin:miter;stroke-opacity:1"
       d="m 3370.5802,1494.3292 c -8.9169,-49.617 17.5077,-50.1353 43.9688,-50.6025 l 46.5416,0.1653 c 73.0496,6.1314 20.4084,35.1296 6.8389,34.6685 -41.9557,-3.3888 -60.8645,9.6037 -52.2882,42.1325 7.6728,39.358 37.8083,6.4783 56.1646,0.3211 38.3416,-19.0761 36.927,-0.656 30.9661,22.0524 l -88.776,65.6384 c -44.2222,26.249 -31.4313,-29.6222 -37.9394,-57.6955 z"
       id="path426"
       sodipodi:nodetypes="cccccccccc" />
    <path
       style="fill:none;stroke:#ffffff;stroke-width:1.39446px;stroke-linecap:butt;stroke-linejoin:miter;stroke-opacity:1"
       d="m 3425.2084,1244.5582 c 25.002,-21.7152 49.8588,-6.4033 74.6807,17.8107 14.8518,5.9748 26.379,13.345 32.4589,23.001 17.0862,21.836 18.4285,42.1379 -21.9346,28.8991 -22.3999,-23.3356 -42.6547,-27.1293 -57.9863,13.9283 -12.9048,44.8022 0.4503,52.2736 29.1083,43.0109 39.2544,-2.7285 50.0061,38.4416 1.003,33.5247 -19.934,-2.4597 -36.8031,-9.2319 -65.3346,0.4065 -13.1104,1.0872 -17.8268,-11.4908 -19.8403,-28.4691 42.7439,-22.9807 78.658,-50.2593 27.8449,-132.1121 z"
       id="path428"
       sodipodi:nodetypes="cccccccccc" />
    <path
       style="fill:none;stroke:#ffffff;stroke-width:1.39446px;stroke-linecap:butt;stroke-linejoin:miter;stroke-opacity:1"
       d="m 3356.7678,1221.3905 c 82.667,11.1638 82.1583,49.9228 94.0609,84.7467 -2.6365,46.0244 -49.937,77.1541 -107.2926,95.2456 -68.5339,0.1649 -89.9609,-34.3926 -94.0762,-81.7103 9.5503,-52.7451 20.6906,-104.2783 107.3079,-98.282 z"
       id="path430"
       sodipodi:nodetypes="ccccc" />
    <path
       style="fill:none;stroke:#ffffff;stroke-width:1.39446px;stroke-linecap:butt;stroke-linejoin:miter;stroke-opacity:1"
       d="m 3351.1675,1255.5304 c -43.1823,-2.3218 -50.407,24.3046 -56.2706,52.027 -1.3058,35.4532 21.6566,44.2464 48.3781,48.9102 31.3576,-7.8486 50.0709,-22.9329 51.4436,-47.9404 2.305,-35.3506 -12.1519,-53.0795 -43.5511,-52.9968 z"
       id="path432"
       sodipodi:nodetypes="ccccc" />
    <path
       style="fill:none;stroke:#ffffff;stroke-width:1.39446px;stroke-linecap:butt;stroke-linejoin:miter;stroke-opacity:1"
       d="m 3349.2244,1285.7674 c -10.62,-1.2772 -19.8023,0.7168 -21.1309,20.5766 -1.0954,8.2188 4.6664,13.3557 17.5728,15.2815 11.1448,-2.4227 20.3492,-5.9763 21.2673,-14.3582 -3.4655,-7.8983 6.1778,-19.7306 -17.7092,-21.4999 z"
       id="path434"
       sodipodi:nodetypes="ccccc" />
    <path
       style="fill:none;stroke:#ffffff;stroke-width:1.39446px;stroke-linecap:butt;stroke-linejoin:miter;stroke-opacity:1"
       d="m 3401.5188,1125.8085 c -19.6425,-1.9261 -28.4371,10.2793 -30.5076,31.2441 -1.1308,19.972 8.7112,26.818 21.8498,29.7208 16.7442,-3.3001 30.3162,-9.8166 33.6099,-26.7539 -0.083,-16.3172 -4.2457,-30.1989 -24.9521,-34.211 z"
       id="path436"
       sodipodi:nodetypes="ccccc" />
    <path
       style="fill:none;stroke:#ffffff;stroke-width:1.39446px;stroke-linecap:butt;stroke-linejoin:miter;stroke-opacity:1"
       d="m 3469.4232,1048.0043 c -18.8299,3.9181 -25.2395,18.5918 -29.4399,35.1787 -2.7022,14.4365 7.3964,23.0123 27.3189,27.0906 14.7736,-1.9424 26.08,-9.0638 30.2083,-26.9079 -1.8371,-16.4187 -8.6561,-29.7715 -28.0873,-35.3614 z"
       id="path438"
       sodipodi:nodetypes="ccccc" />
    <path
       style="fill:none;stroke:#ffffff;stroke-width:1.39446px;stroke-linecap:butt;stroke-linejoin:miter;stroke-opacity:1"
       d="m 3526.0987,1111.6528 c -27.9232,22.5593 -91.5233,62.9285 -38.0123,112.2067 16.5908,12.6108 32.7767,25.5382 56.6157,32.4803 13.4355,10.0902 45.1164,10.1569 19.6205,-23.7903 l -25.5592,-20.9022 c -33.2501,-29.1042 -4.0875,-34.2072 7.6359,-46.0164 15.0147,-8.3648 23.9235,-35.3468 54.3626,3.3185 l 22.9561,31.8046 c 5.1786,16.5824 21.9815,17.1362 18.7466,-14.031 1.4466,-19.1677 -12.8526,-41.9184 -19.5217,-63.5172 -12.9856,-78.8047 -65.7897,-25.5163 -96.8442,-11.553 z"
       id="path440"
       sodipodi:nodetypes="ccccccccccc" />
    <path
       style="fill:none;stroke:#ffffff;stroke-width:1.39446px;stroke-linecap:butt;stroke-linejoin:miter;stroke-opacity:1"
       d="m 3538.4949,983.09188 c -15.7272,0.89622 -30.1168,4.85312 -32.9648,35.22152 1.3682,19.0483 15.3713,24.1076 32.7091,25.4748 20.8888,-2.8122 29.7742,-11.6226 31.3073,-38.9302 -8.8444,-7.49452 -9.1877,-21.58386 -31.0516,-21.76612 z"
       id="path442"
       sodipodi:nodetypes="ccccc" />
    <path
       style="fill:none;stroke:#ffffff;stroke-width:1.39446px;stroke-linecap:butt;stroke-linejoin:miter;stroke-opacity:1"
       d="m 3729.3295,908.66004 c -20.3331,-3.08414 -21.556,12.65353 -24.7552,26.44465 3.2857,10.4854 2.8556,22.89754 24.5824,23.82027 17.8829,-3.35467 25.0093,-13.26152 25.7696,-27.04636 -5.3277,-10.19564 -7.4828,-22.82267 -25.5968,-23.21856 z"
       id="path444"
       sodipodi:nodetypes="ccccc" />
    <path
       style="fill:none;stroke:#ffffff;stroke-width:1.39446px;stroke-linecap:butt;stroke-linejoin:miter;stroke-opacity:1"
       d="m 3734.0822,861.34624 c -38.4146,9.37695 -63.8606,34.71941 -71.1697,82.39019 10.2744,53.54845 37.9097,54.98335 65.249,57.30737 38.5382,-8.3584 59.6164,-32.86573 67.0611,-69.98278 -1.1195,-55.43196 -28.2657,-67.36092 -61.1404,-69.71478 z"
       id="path446"
       sodipodi:nodetypes="ccccc" />
    <path
       style="fill:none;stroke:#ffffff;stroke-width:1.39446px;stroke-linecap:butt;stroke-linejoin:miter;stroke-opacity:1"
       d="m 3721.6129,824.96282 c -59.8907,8.09822 -96.5283,48.74871 -100.1049,135.68109 31.5219,84.66429 68.3497,66.50239 103.7562,75.88729 57.6417,-11.3429 103.3859,-37.78632 109.7319,-114.23356 -21.2168,-102.14099 -68.2778,-95.62674 -113.3832,-97.33482 z"
       id="path448"
       sodipodi:nodetypes="ccccc" />
    <path
       style="display:none;fill:none;stroke:#ffffff;stroke-width:1px;stroke-linecap:butt;stroke-linejoin:miter;stroke-opacity:1"
       d="m 3020.4904,1713.3073 c -20.4401,28.7406 8.6409,51.5879 28.5069,35.6501 117.0834,-101.3116 229.8748,-206.8731 338.759,-316.3036 11.9497,-19.6924 -9.4956,-57.1487 -39.9149,-38.4601 -71.6065,77.9841 -186.9791,178.2978 -327.351,319.1136 z"
       id="path450"
       sodipodi:nodetypes="ccccc" />
    <path
       style="fill:none;stroke:#ffffff;stroke-width:1.39446px;stroke-linecap:butt;stroke-linejoin:miter;stroke-opacity:1"
       d="m 3131.0407,1179.9263 c -35.8052,63.8042 25.8664,75.246 57.5996,53.945 152.2887,-150.5705 309.2886,-286.46715 456.8659,-451.71147 11.8148,-41.85363 -32.0942,-62.20167 -53.7163,-39.7671 -142.3047,153.02393 -304.6629,293.28247 -460.7492,437.53357 z"
       id="path452"
       sodipodi:nodetypes="ccccc" />
    <path
       style="fill:none;stroke:#ffffff;stroke-width:1.39446px;stroke-linecap:butt;stroke-linejoin:miter;stroke-opacity:1"
       d="m 3789.4206,2244.5221 c -25.9538,-2.1019 -43.1318,17.1526 -37.1584,53.5892 5.6353,25.3979 20.7242,27.2088 36.0505,24.0848 26.78,-8.6561 36.0096,-21.8906 41.4379,-36.117 1.5851,-33.0445 -11.9295,-46.8059 -40.33,-41.557 z"
       id="path454"
       sodipodi:nodetypes="ccccc" />
    <path
       style="fill:none;stroke:#ffffff;stroke-width:1.39446px;stroke-linecap:butt;stroke-linejoin:miter;stroke-opacity:1"
       d="m 3785.4974,2207.4214 c -66.1306,8.8301 -65.6334,57.1164 -73.4411,100.4847 13.2696,38.1978 42.8107,50.8436 76.9204,56.3152 32.1883,-14.1001 64.9857,-26.8395 77.0929,-85.7883 -12.8624,-43.8331 -30.098,-81.3657 -80.5722,-71.0116 z"
       id="path456"
       sodipodi:nodetypes="ccccc" />
    <path
       style="fill:none;stroke:#ffffff;stroke-width:1.39446px;stroke-linecap:butt;stroke-linejoin:miter;stroke-opacity:1"
       d="m 3530.8313,2102.8895 c -48.6842,31.7155 -22.4668,79.2906 2.3642,81.4116 l 425.8064,5.9304 260.6171,0.4913 c 24.6529,-10.5996 37.1546,-67.2805 -0.2572,-78.9566 -106.6997,-4.4805 -211.4107,-5.6494 -315.2183,-5.3134 z"
       id="path458"
       sodipodi:nodetypes="ccccccc" />
    <path
       style="fill:none;stroke:#ffffff;stroke-width:1.39446px;stroke-linecap:butt;stroke-linejoin:miter;stroke-opacity:1"
       d="m 4177.6034,2256.7631 c -28.2069,4.0863 -34.6387,22.0031 -39.5731,40.8711 4.6675,25.2471 16.4955,37.0913 37.4543,31.8461 21.3402,-7.8203 37.3729,-17.3695 32.2982,-33.7941 0.783,-29.8132 -16.6254,-31.3752 -30.1794,-38.9231 z"
       id="path460"
       sodipodi:nodetypes="ccccc" />
    <path
       style="fill:none;stroke:#ffffff;stroke-width:1.39446px;stroke-linecap:butt;stroke-linejoin:miter;stroke-opacity:1"
       d="m 4177.8157,2222.6617 c -56.4537,9.5323 -71.5732,42.8196 -75.745,82.3983 8.2072,54.6136 35.6763,61.0937 62.821,68.3843 46.9749,-15.0807 76.1733,-36.1846 78.2817,-66.4675 -3.8495,-46.1394 -14.9106,-85.0278 -65.3577,-84.3151 z"
       id="path462"
       sodipodi:nodetypes="ccccc" />
    <path
       style="fill:none;stroke:#ffffff;stroke-width:1.39446px;stroke-linecap:butt;stroke-linejoin:miter;stroke-opacity:1"
       d="m 3632.6923,2248.344 c -2.3338,35.0664 -5.8947,67.6044 -5.5949,108.096 l 6.4374,378.7966 c -6.0335,217.1766 -59.2552,242.3199 -101.6661,262.8134 -53.7528,9.7367 -110.7659,1.4759 -102.2642,-82.4508 -15.751,-41.9666 70.1719,-90.0416 62.0443,-130.564 -28.8707,-54.6852 -66.4277,-63.7814 -111.5998,-32.9081 -63.4797,49.5854 -108.9009,107.5569 -91.7029,194.6071 18.1508,113.8892 87.8892,173.3538 214.6586,172.6515 84.3804,-11.1039 220.1949,-115.1116 202.1418,-212.8903 7.6879,-80.5352 -7.0412,-165.2885 -13.7794,-248.5382 -7.1107,-82.7732 -20.8166,-168.9429 -24.5743,-244.2104 l -9.1719,-168.179 c 1.7094,-34.773 -27.0429,-22.6566 -24.9286,2.7762 z"
       id="path464"
       sodipodi:nodetypes="cccccccccccccc" />
    <path
       style="fill:none;stroke:#ffffff;stroke-width:1.39446px;stroke-linecap:butt;stroke-linejoin:miter;stroke-opacity:1"
       d="m 3666.6626,2794.3612 c -4.0851,164.8888 -70.8266,221.6004 -159.9919,239.597 -59.5081,-3.9392 -116.0533,-12.0131 -122.1107,-90.5441 -14.092,-44.6107 5.8737,-63.573 19.1683,-90.1517 12.8677,-12.0902 28.2058,-21.8105 36.2646,-36.5244 13.2575,-39.0143 -14.1411,-26.3767 -36.823,-19.7316 -32.9722,16.2947 -60.76,42.8958 -70.8295,104.7193 -8.8984,60.7289 -0.3788,114.3405 52.0818,149.9969 91.0868,58.7075 160.7293,25.7788 227.4485,-19.6423 32.6606,-32.8331 52.1976,-73.1803 54.3984,-123.4533 6.5799,-36.34 6.3978,-74.5137 0.3935,-114.2658 z"
       id="path466"
       sodipodi:nodetypes="ccccccccccc" />
    <path
       style="fill:none;stroke:#ffffff;stroke-width:1.39446px;stroke-linecap:butt;stroke-linejoin:miter;stroke-opacity:1"
       d="m 3571.1233,2301.2527 c 7.7629,-3.8673 11.7583,0.8373 16.0677,4.8266 l -16.1719,536.4552 c -0.025,82.6376 -30.4678,97.7388 -72.4407,87.2419 -36.1886,-9.6645 -24.5484,-39.8297 -3.5026,-74.0263 30.5969,-5.2211 39.0697,-46.0698 38.072,-102.1697 l -1.9971,-35.6526 -23.3987,-10.7494 c -47.1627,-1.1453 -117.6453,4.3066 -141.4881,-3.4358 6.3166,-33.0173 8.9714,-30.1095 12.8127,-38.8437 l 145.1177,6.9419 c 8.3378,-2.4729 30.4618,-28.4544 0.1077,-36.4941 -37.5804,-0.02 -63.6329,8.1002 -112.7413,-0.061 -2.6089,-23.4364 6.8312,-26.1431 13.8106,-33.0839 l 114.719,1.5383 c 0.4922,-9.2939 0.4097,-19.1791 -0.2515,-29.6593 l -104.0571,-1.1627 c -3.0368,-20.3383 10.5759,-29.6776 20.2931,-41.5903 l 86.9322,7.2693 c 2.5753,-10.7308 3.5495,-21.9536 -2.053,-35.1978 l -74.6518,-0.442 c 0.4578,-13.3118 -1.3131,-27.2081 20.5484,-34.9058 l 50.8728,3.1766 z"
       id="path468"
       sodipodi:nodetypes="cccccccccccccccccccccccc" />
    <path
       style="fill:none;stroke:#ffffff;stroke-width:1.39446px;stroke-linecap:butt;stroke-linejoin:miter;stroke-opacity:1"
       d="m 3681.2238,3148.0855 c -46.2132,6.742 -57.472,34.3276 -67.4468,62.6788 -3.8929,44.6242 25.3428,57.9365 58.9604,67.1069 38.031,-13.3885 63.9979,-35.2394 67.19,-73.0655 -1.4568,-38.6866 -21.5455,-57.0245 -58.7036,-56.7202 z"
       id="path470"
       sodipodi:nodetypes="ccccc" />
    <path
       style="fill:none;stroke:#ffffff;stroke-width:1.39446px;stroke-linecap:butt;stroke-linejoin:miter;stroke-opacity:1"
       d="m 3679.0296,3180.7136 c -14.5108,-0.3248 -25.9499,8.2037 -32.9594,29.4989 3.3257,12.2293 5.9063,25.2443 25.2738,20.5537 15.3202,-3.5223 24.8445,-11.8363 27.6127,-25.7358 -2.7298,-10.818 -9.5415,-18.8063 -19.9271,-24.3168 z"
       id="path472"
       sodipodi:nodetypes="ccccc" />
    <path
       style="fill:none;stroke:#ffffff;stroke-width:1.39446px;stroke-linecap:butt;stroke-linejoin:miter;stroke-opacity:1"
       d="m 3677.5306,3114.9932 c -64.1306,5.0069 -80.8292,50.5721 -96.1161,97.3442 3.3758,81.1987 43.5426,82.7137 78.0507,96.485 122.981,-32.6165 81.6205,-70.6349 103.7512,-105.2794 -14.6658,-27.4378 14.5245,-79.1945 -85.6858,-88.5498 z"
       id="path474"
       sodipodi:nodetypes="ccccc" />
    <path
       style="fill:none;stroke:#ffffff;stroke-width:1.39446px;stroke-linecap:butt;stroke-linejoin:miter;stroke-opacity:1"
       d="m 3872.0141,3166.9039 104.9281,-171.8822 c -0.863,-9.3754 10.3958,-22.6074 -14.3683,-24.3791 l -41.4563,-1.3935 -1.5179,-43.6767 98.6847,-3.6752 c 6.4098,-3.8312 41.2836,-33.5156 -3.5765,-40.7568 l -84.835,3.6538 c -24.3818,-3.7295 -13.2571,-44.2428 0.6587,-46.3536 l 134.8224,-11.077 c 2.6709,-10.7109 8.8986,-22.6819 -2.5819,-28.3791 l -126.6024,0.5115 c -21.5678,-13.8461 -9.6062,-36.3714 -2.2195,-38.3127 l 165.7888,-3.2732 c 23.5005,-17.7998 11.2696,-37.4959 -5.4209,-45.8575 -62.2726,3.677 -126.7719,9.8385 -182.1161,5.7853 l 1.7823,-106.0873 c 8.2181,-56.055 39.3919,-74.7643 74.5696,-92.1115 0,0 86.9844,-56.7697 -22.0875,-58.8494 -64.4029,31.7815 -84.4353,48.3073 -89.2114,221.4616 z"
       id="path476"
       sodipodi:nodetypes="ccccccccccccccccccccc" />
    <path
       style="fill:none;stroke:#ffffff;stroke-width:1.39446px;stroke-linecap:butt;stroke-linejoin:miter;stroke-opacity:1"
       d="m 3801.1915,3262.5984 c 13.4714,-14.5767 27.8985,-26.9722 28.3964,-71.1453 9.0305,-200.2765 7.8464,-408.9099 27.0914,-600.8295 52.3499,-220.8222 107.2369,-168.7281 161.6516,-167.4434 83.2803,45.6498 34.4392,96.3476 14.1476,114.552 -81.4804,37.4953 -98.1869,80.3936 -68.1576,127.1903 40.9653,46.5038 83.3464,36.7001 126.0232,15.1365 59.5864,-16.9118 88.3399,-80.1009 73.4963,-208.7243 -34.0163,-159.5383 -131.414,-166.5788 -234.2556,-160.5215 -77.5457,36.997 -155.5681,72.8353 -165.5301,274.1896 3.4545,221.8997 22.7732,450.8485 37.1368,677.5956 z"
       id="path478"
       sodipodi:nodetypes="ccccccccccc" />
    <path
       style="fill:none;stroke:#ffffff;stroke-width:1.39446px;stroke-linecap:butt;stroke-linejoin:miter;stroke-opacity:1"
       d="m 3805.436,2790.0314 31.4929,-268.704 c 42.2334,-110.3143 85.4687,-123.3169 141.1189,-145.4287 106.5592,2.0329 154.5909,87.1054 95.6605,172.6683 -34.7782,29.3622 -134.3574,71.754 -45.6912,106.972 49.9465,1.1701 97.8611,-4.3225 107.7383,-134.5448 1.0319,-46.5946 -4.852,-131.7956 -119.2504,-168.132 -62.5225,-15.8999 -125.3197,-27.2923 -197.9792,123.2862 -17.52,48.2979 -19.3664,113.7619 -20.8999,179.5687 2.0671,51.2207 0.5214,116.412 7.8101,134.3143 z"
       id="path480"
       sodipodi:nodetypes="cccccccccc" />
    <path
       style="fill:none;stroke:#ffffff;stroke-width:1.39446px;stroke-linecap:butt;stroke-linejoin:miter;stroke-opacity:1"
       d="m 3155.2745,3003.0084 c -28.4213,-54.862 38.4692,-49.7305 45.9632,-37.8735 l 273.2724,270.9009 186.2119,187.735 c 24.0802,30.2365 -18.2023,63.0848 -37.8848,43.5392 -130.1246,-120.9436 -244.3664,-241.1132 -361.4528,-361.4215 z"
       id="path482"
       sodipodi:nodetypes="ccccccc" />
    <path
       style="fill:none;stroke:#ffffff;stroke-width:1.39446px;stroke-linecap:butt;stroke-linejoin:miter;stroke-opacity:1"
       d="m 2181.7546,3422.7303 c 10.8692,-78.9382 62.7274,-36.3556 60.7603,-1.9296 l -13.0963,593.585 c 16.2873,60.1689 -66.9543,82.9931 -59.7604,2.4615 z"
       id="path484"
       sodipodi:nodetypes="ccccc" />
    <path
       style="fill:none;stroke:#ffffff;stroke-width:1.39446px;stroke-linecap:butt;stroke-linejoin:miter;stroke-opacity:1"
       d="m 2330.6904,3371.8505 c -16.9254,4.6584 -31.3237,11.81 -30.1187,34.3571 -2.2386,31.0355 19.5533,25.8404 37.5692,26.338 17.7778,-2.7149 17.8095,-14.3792 21.9665,-23.9631 -8.6704,-12.6105 -0.1811,-30.7606 -29.417,-36.732 z"
       id="path486"
       sodipodi:nodetypes="ccccc" />
    <path
       style="fill:none;stroke:#ffffff;stroke-width:1.39446px;stroke-linecap:butt;stroke-linejoin:miter;stroke-opacity:1"
       d="m 2330.8294,3338.1138 c -48.4399,2.4535 -62.2317,34.3974 -65.2386,75.521 -3.8308,53.9274 34.513,62.7895 74.5068,69.8884 39.5427,-19.8208 53.7218,-48.5682 56.3886,-81.3675 6.9229,-40.1491 -11.862,-63.5202 -65.6568,-64.0419 z"
       id="path488"
       sodipodi:nodetypes="ccccc" />
    <path
       style="fill:none;stroke:#ffffff;stroke-width:1.39446px;stroke-linecap:butt;stroke-linejoin:miter;stroke-opacity:1"
       d="m 2745.3838,3260.7104 c -15.1006,-0.5297 -38.1367,10.4162 -25.6474,42.7846 -2.9564,17.8392 7.8845,21.3712 22.0676,21.4376 20.3423,-5.9458 30.1836,-17.6155 31.0806,-34.1605 -2.8749,-19.008 -8.1868,-34.5349 -27.5008,-30.0617 z"
       id="path490"
       sodipodi:nodetypes="ccccc" />
    <path
       style="fill:none;stroke:#ffffff;stroke-width:1.39446px;stroke-linecap:butt;stroke-linejoin:miter;stroke-opacity:1"
       d="m 2755.3123,3230.0821 c -57.8216,2.3891 -76.9297,29.8402 -85.2547,64.2723 -5.0919,51.7828 23.4245,69.4876 68.1313,70.7763 41.9492,2.7216 57.234,-32.61 72.9457,-67.3324 -4.9848,-39.1125 -17.5932,-68.9684 -55.8223,-67.7162 z"
       id="path492"
       sodipodi:nodetypes="ccccc" />
    <path
       style="fill:none;stroke:#ffffff;stroke-width:1.39446px;stroke-linecap:butt;stroke-linejoin:miter;stroke-opacity:1"
       d="m 2707.6952,3921.3925 c -16.18,8.1957 -25.3081,19.8389 -21.6249,37.7464 -4.8303,21.1616 14.6929,17.6449 27.5182,20.9154 17.8116,-4.5029 22.0809,-16.4565 20.6779,-31.5311 -3.6082,-12.1627 -4.9313,-25.6831 -26.5712,-27.1307 z"
       id="path494"
       sodipodi:nodetypes="ccccc" />
    <path
       style="fill:none;stroke:#ffffff;stroke-width:1.39446px;stroke-linecap:butt;stroke-linejoin:miter;stroke-opacity:1"
       d="m 2712.9638,3876.3663 c -47.0256,13.0141 -75.9589,42.5879 -77.0055,97.6861 34.5211,56.8736 53.3238,40.6079 76.1828,43.2167 29.9528,-13.2378 61.9852,-23.8878 60.0868,-76.7569 -6.8525,-40.0643 -27.6389,-59.9525 -59.2641,-64.1459 z"
       id="path496"
       sodipodi:nodetypes="ccccc" />
    <path
       style="fill:none;stroke:#ffffff;stroke-width:1.39446px;stroke-linecap:butt;stroke-linejoin:miter;stroke-opacity:1"
       d="m 3234.784,3637.3482 c -49.5917,3.9237 -59.757,45.6878 -68.7705,88.5573 15.4304,39.4398 44.4961,44.1913 74.5573,46.41 32.5588,-13.6584 48.4478,-36.8834 52.6476,-66.8163 -2.6085,-35.4472 -11.437,-66.2007 -58.4344,-68.151 z"
       id="path498"
       sodipodi:nodetypes="ccccc" />
    <path
       style="fill:none;stroke:#ffffff;stroke-width:1.39446px;stroke-linecap:butt;stroke-linejoin:miter;stroke-opacity:1"
       d="m 3237.3241,3676.2532 c -25.8255,-2.2241 -27.3323,16.9465 -29.1362,35.8555 2.1734,9.56 11.8918,13.8527 30.5426,11.9094 17.885,2.621 18.1989,-11.7978 17.6205,-27.0818 -1.9477,-8.8839 2.8233,-20.8098 -19.0269,-20.6831 z"
       id="path500"
       sodipodi:nodetypes="ccccc" />
    <path
       style="fill:none;stroke:#ffffff;stroke-width:1.39446px;stroke-linecap:butt;stroke-linejoin:miter;stroke-opacity:1"
       d="m 3072.8113,3076.2273 c -17.0939,-16.3468 22.4183,-82.8777 44.5768,-46.1257 l 444.5498,461.1155 c 51.9737,41.3008 -9.6541,92.5984 -46.7199,70.4897 z"
       id="path502"
       sodipodi:nodetypes="ccccc" />
    <path
       style="fill:none;stroke:#ffffff;stroke-width:1.39446px;stroke-linecap:butt;stroke-linejoin:miter;stroke-opacity:1"
       d="m 2289.1118,3523.6139 c 37.767,27.9511 2.8811,65.9667 -1.5785,99.7673 l -10.5027,37.6504 c 13.8945,75.3799 48.251,49.7065 77.9539,47.0147 63.4907,-40.133 71.072,-99.1347 96.503,-152.1123 29.3759,-63.5342 56.5765,-108.4417 81.8813,-137.1125 48.7866,-45.1344 114.1647,-37.6925 69.2333,46.033 -57.9362,101.2274 -127.3527,209.1465 -214.0534,327.1405 l -100.3874,165.4006 c -68.1004,137.1287 33.2059,92.7037 47.3658,35.5624 l 330.0211,-502.1877 c 68.3193,-153.7343 -49.6581,-239.2706 -185.8691,-90.6571 l -107.2054,242.3681 c -22.1859,18.6126 -46.2361,42.4178 -42.6123,-10.8542 10.3877,-29.0883 23.7295,-57.6943 22.7336,-88.641 -6.4149,-14.6314 -8.2639,-29.934 -35.9156,-41.444 -16.9756,-1.1751 -24.7762,7.7037 -27.5676,22.0718 z"
       id="path504"
       sodipodi:nodetypes="ccccccccccccccccc" />
    <path
       style="fill:none;stroke:#ffffff;stroke-width:1.39446px;stroke-linecap:butt;stroke-linejoin:miter;stroke-opacity:1"
       d="m 2393.2973,3989.6183 c 186.5751,-292.2457 377.8114,-581.9179 583.0181,-863.8769 21.973,-33.6147 98.7098,-81.726 37.871,35.7374 -80.5579,107.1256 -160.4495,217.8872 -239.1769,335.0019 -91.9988,144.1111 8.733,92.9327 42.912,26.6797 l 225.3089,-343.9316 c 92.3952,-102.0368 70.1533,21.6881 42.4758,37.9943 -172.2291,247.61 -343.9966,482.4646 -517.8332,774.4917 -32.9073,34.5013 -108.2988,79.7061 -48.7848,-21.1879 l 186.0204,-285.6042 c 44.254,-73.9881 5.8038,-78.8261 -37.5897,-22.112 l -229.6663,355.9773 c -16.4914,31.3746 -104.6241,64.9881 -44.5553,-29.1697 z"
       id="path506"
       sodipodi:nodetypes="ccccccccccccc" />
    <path
       style="fill:none;stroke:#ffffff;stroke-width:1.39446px;stroke-linecap:butt;stroke-linejoin:miter;stroke-opacity:1"
       d="m 3128.7155,3237.5507 c 15.7239,-31.5326 27.4372,-18.8432 39.287,-7.6577 22.699,16.5508 48.9335,31.8272 28.7417,63.8403 l -300.6622,427.5592 c -65.2706,149.2154 7.4556,113.6892 53.6687,42.2804 42.5073,-59.6367 91.4673,-119.6168 124.0774,-179.2573 l 103.8375,-142.2585 c 46.7155,-30.3106 87.6392,-77.1408 168.479,-10.1233 49.8317,56.5524 49.4753,108.1465 2.5273,155.1378 l -44.0999,30.5708 c -69.788,19.7058 -79.4035,-36.3769 -18.1123,-60.0594 64.6926,-25.095 67.7156,-81.9486 -0.1006,-86.6845 -42.2186,-7.8725 -73.1366,10.5126 -98.48,41.8507 -30.6145,59.6139 -59.3263,121.3826 -99.3415,170.3504 l -133.1613,187.8103 c -72.966,76.3828 -213.2781,66.1545 -176.7517,-86.5041 l 105.5689,-182.0821 z"
       id="path508"
       sodipodi:nodetypes="cccccccccccccccccc" />
    <path
       style="fill:none;stroke:#ffffff;stroke-width:1.39446px;stroke-linecap:butt;stroke-linejoin:miter;stroke-opacity:1"
       d="m 751.34032,3484.8984 c -72.92038,93.2162 24.03469,78.9847 49.24599,50.0508 146.43865,-160.7072 296.22489,-314.413 456.50709,-446.1684 40.4075,-3.3541 -1.8077,-112.391 -54.559,-44.338 -155.5101,137.7203 -307.76165,281.2403 -451.19408,440.4556 z"
       id="path510"
       sodipodi:nodetypes="ccccc" />
    <path
       style="fill:none;stroke:#ffffff;stroke-width:1.39446px;stroke-linecap:butt;stroke-linejoin:miter;stroke-opacity:1"
       d="m 2075.2385,3414.4707 c 4.7969,-84.272 80.6875,-36.4538 58.0982,2.8403 l -23.545,583.8539 c 4.6239,37.2273 -29.5753,47.3667 -60.5409,11.4678 z"
       id="path512"
       sodipodi:nodetypes="ccccc" />
    <path
       style="fill:none;stroke:#ffffff;stroke-width:1.39446px;stroke-linecap:butt;stroke-linejoin:miter;stroke-opacity:1"
       d="m 960.25506,3473.8577 c -15.6787,3.9494 -32.5153,6.3775 -29.1813,35.3074 3.8166,25.0962 19.1192,14.7081 29.6538,19.0504 17.0726,-4.5366 22.16056,-14.9457 21.21036,-28.314 -0.6278,-8.52 1.5217,-16.9723 -21.68286,-26.0438 z"
       id="path514"
       sodipodi:nodetypes="ccccc" />
    <path
       style="fill:none;stroke:#ffffff;stroke-width:1.39446px;stroke-linecap:butt;stroke-linejoin:miter;stroke-opacity:1"
       d="m 961.69556,3435.6891 c -39.3101,5.6766 -67.19931,25.7378 -69.69331,77.7827 3.4369,45.8278 41.22321,44.1159 68.06231,57.555 35.36156,-3.2205 57.68254,-20.3055 65.72314,-52.5736 3.7571,-51.2149 -17.9893,-78.4433 -64.09214,-82.7641 z"
       id="path516"
       sodipodi:nodetypes="ccccc" />
    <path
       style="fill:none;stroke:#ffffff;stroke-width:1.39446px;stroke-linecap:butt;stroke-linejoin:miter;stroke-opacity:1"
       d="m 1973.7297,3941.5366 c -32.3996,0.3747 -48.0715,17.6924 -47.3973,51.5668 4.8868,23.1717 20.7533,32.5788 44.5311,32.0677 20.8746,-9.8177 34.5679,-21.6661 31.2892,-38.3145 -2.9402,-17.1658 -0.8547,-35.9151 -28.423,-45.32 z"
       id="path518"
       sodipodi:nodetypes="ccccc" />
    <path
       style="fill:none;stroke:#ffffff;stroke-width:1.39446px;stroke-linecap:butt;stroke-linejoin:miter;stroke-opacity:1"
       d="m 1404.1824,3759.6436 c -21.8835,2.5336 -31.3102,16.6985 -34.4906,36.6952 4.9162,17.1157 16.0716,26.4215 35.3687,25.5355 17.592,-6.5849 27.8425,-15.6098 27.3507,-28.2047 -5.0827,-16.0393 -10.5896,-31.6181 -28.2288,-34.026 z"
       id="path520"
       sodipodi:nodetypes="ccccc" />
    <path
       style="fill:none;stroke:#ffffff;stroke-width:1.39446px;stroke-linecap:butt;stroke-linejoin:miter;stroke-opacity:1"
       d="m 1600.2798,3365.1568 c -13.3841,-0.6002 -26.6404,-0.7672 -30.7489,30.1142 0.7105,21.5909 16.2116,24.8273 32.58,26.9876 17.1257,-4.9018 17.7608,-17.6268 18.4511,-30.3255 -0.9374,-11.6178 -2.2394,-23.0671 -20.2822,-26.7763 z"
       id="path522"
       sodipodi:nodetypes="ccccc" />
    <path
       style="fill:none;stroke:#ffffff;stroke-width:1.39446px;stroke-linecap:butt;stroke-linejoin:miter;stroke-opacity:1"
       d="m 1512.0979,3568.6381 c -22.6529,2.5027 -17.2067,16.7031 -22.8512,26.2867 6.7938,16.5473 21.0213,15.2692 34.2808,16.312 9.7209,-9.2816 16.1581,-19.6903 13.4064,-33.2533 -6.7667,-5.2371 -12.9038,-11.3576 -24.836,-9.3454 z"
       id="path524"
       sodipodi:nodetypes="ccccc" />
    <path
       style="fill:none;stroke:#ffffff;stroke-width:1.39446px;stroke-linecap:butt;stroke-linejoin:miter;stroke-opacity:1"
       d="m 1520.7108,3523.1411 c -37.6471,6.7889 -73.7271,16.4576 -76.6572,87.0511 13.2268,40.3659 51.0719,48.0732 93.0578,50.2871 22.8022,-18.0893 41.9928,-37.8232 44.6012,-65.1086 -11.1356,-30.2536 -15.4847,-65.065 -61.0018,-72.2296 z"
       id="path526"
       sodipodi:nodetypes="ccccc" />
    <path
       style="fill:none;stroke:#ffffff;stroke-width:1.39446px;stroke-linecap:butt;stroke-linejoin:miter;stroke-opacity:1"
       d="m 1496.2318,3463.0274 c -101.6162,17.683 -122.3402,74.4904 -105.9866,149.2309 18.993,71.6524 64.0007,82.998 107.5162,97.8026 83.6224,-3.2611 119.2662,-51.0158 131.8498,-120.1558 0.9814,-81.8896 -59.5649,-110.1645 -133.3794,-126.8777 z"
       id="path528"
       sodipodi:nodetypes="ccccc" />
    <path
       style="fill:none;stroke:#ffffff;stroke-width:1.39446px;stroke-linecap:butt;stroke-linejoin:miter;stroke-opacity:1"
       d="m 1493.5965,3424.8783 c -87.5239,5.8659 -141.2465,56.1444 -155.7242,157.9875 9.3464,84.6401 42.4291,151.7004 147.0424,165.7815 74.1931,-10.9616 161.1699,12.9076 181.4212,-145.0274 -3.5033,-73.5557 -13.083,-145.5411 -172.7394,-178.7416 z"
       id="path530"
       sodipodi:nodetypes="ccccc" />
    <path
       style="fill:none;stroke:#ffffff;stroke-width:1.39446px;stroke-linecap:butt;stroke-linejoin:miter;stroke-opacity:1"
       d="m 1187.5604,3498.4109 c 92.2266,10.4354 54.513,-12.1181 18.2616,-45.4779 l -38.9063,-22.8236 c -24.5546,-7.874 -77.9915,-69.7083 14.899,-22.449 l 38.0168,20.8395 c 87.3971,41.994 55.2091,-10.6621 15.198,-40.9213 -25.2851,-23.3748 -58.1871,-37.4183 -97.3042,-43.8475 -85.6645,-14.451 -73.5301,42.2227 -43.3861,86.8809 19.7009,36.6592 58.6696,49.4988 93.2212,67.7989 z"
       id="path532"
       sodipodi:nodetypes="ccccccccc" />
    <path
       style="fill:none;stroke:#ffffff;stroke-width:1.39446px;stroke-linecap:butt;stroke-linejoin:miter;stroke-opacity:1"
       d="m 1326.4537,3426.4669 c -65.9968,79.1653 -40.5039,152.4262 -54.7666,221.1983 l -104.2118,11.3132 c -85.2255,-3.1026 -64.7941,-24.0114 -3.8826,-51.7425 l 45.5441,-11.9939 c 17.982,-14.0155 25.8372,-49.3334 -36.4645,-50.2883 -66.044,14.432 -143.5384,20.1971 -131.8086,93.4956 -16.3404,89.2324 75.6192,66.5383 126.7885,86.0001 58.2323,5.437 116.4874,6.7103 174.8767,-16.6993 -19.699,72.8308 -30.9183,139.235 19.6672,158.8015 93.7493,28.6048 70.2151,-72.882 129.7126,-75.2705 18.4106,-16.053 39.2846,-12.7111 61.7228,2.9468 84.0659,-16.7354 175.2229,-18.9114 181.1089,-196.1666 -7.0239,-31.272 21.4034,-48.2042 46.384,-66.5306 l 44.4446,-28.6111 -123.3722,6.8063 -57.2698,-57.6615 c 10.9328,-52.7825 36.9122,-114.8754 -21.8983,-124.5014 -50.1097,-20.3681 -85.043,-1.2013 -105.673,55.2254 l -43.7475,-5.9147 c -8.9041,-63.2507 -20.3938,-125.2569 -71.4254,-168.2362 -76.6188,-60.9833 -101.0608,-18.7517 -104.653,64.7254 4.0283,57.4809 10.524,112.1282 28.9239,153.104 z"
       id="path534"
       sodipodi:nodetypes="ccccccccccccccccccccccc" />
    <path
       style="fill:none;stroke:#ffffff;stroke-width:1.39446px;stroke-linecap:butt;stroke-linejoin:miter;stroke-opacity:1"
       d="m 1347.0101,3290.174 1.2623,-58.6604 49.4857,47.7134 z"
       id="path536" />
    <path
       style="fill:none;stroke:#ffffff;stroke-width:1.39446px;stroke-linecap:butt;stroke-linejoin:miter;stroke-opacity:1"
       d="m 1127.8385,3506.6141 c -116.9793,40.2742 -131.67568,98.5057 -135.12568,158.7116 56.54708,108.355 181.39518,85.1432 290.82658,91.628 -22.0774,104.5705 11.2256,136.2749 58.0473,150.1921 61.7085,23.2091 108.445,-1.0129 148.1747,-47.4329 51.0431,-53.0576 72.6166,-8.8245 94.7006,33.723 82.037,110.4241 166.2168,162.3839 254.7768,94.8454 45.0096,-24.0459 50.6093,-73.2435 41.1844,-132.0298 72.7572,-17.8527 151.4822,-25.9107 168.3552,-135.484 -18.5164,-40.7501 -43.8126,-79.1539 -111.0024,-103.0603 89.5416,-56.8671 167.937,-118.0703 81.8667,-243.2551 -114.0873,-66.7936 -207.0959,-25.1163 -300.6496,13.7557 -19.6746,-40.3413 -31.7033,-83.7664 -82.0592,-111.7328 -59.6209,-9.1941 -105.1014,3.1093 -128.4486,49.0615 -45.9056,-140.3834 -122.1919,-193.3463 -212.9919,-204.5465 -57.5208,72.3756 -53.9186,145.3517 -25.1626,218.5751 -85.4056,-30.3549 -171.768,-65.1279 -238.8736,-10.9545 -34.76708,120.5263 57.3611,124.9744 96.3813,178.0035 z"
       id="path538"
       sodipodi:nodetypes="cccccccccccccccccc" />
    <path
       style="fill:none;stroke:#ffffff;stroke-width:1.39446px;stroke-linecap:butt;stroke-linejoin:miter;stroke-opacity:1"
       d="m 1659.0568,3831.7098 c -65.5759,-18.6991 -58.6341,36.579 -36.9146,43.6452 12.5917,44.8056 70.2093,74.9984 123.4146,97.5918 74.8678,6.7339 83.9138,-40.0953 84.2466,-94.0152 -3.3265,-52.0029 -32.2073,-85.8854 -57.0093,-122.6599 -16.7134,-5.6987 -37.7373,-22.7169 -43.3894,0.6314 -12.728,10.3328 -26.3044,20.0648 -5.6598,54.0393 l 20.7451,46.5828 c 36.6992,76.5517 8.8746,68.11 -38.429,34.0095 z"
       id="path540"
       sodipodi:nodetypes="cccccccccc" />
    <path
       style="fill:none;stroke:#ffffff;stroke-width:1.39446px;stroke-linecap:butt;stroke-linejoin:miter;stroke-opacity:1"
       d="m 1863.06,3731.5013 c -61.7428,-4.3473 -62.2182,12.3125 -17.2435,44.5561 47.1358,37.4634 78.3192,28.898 111.0893,24.9112 65.7863,-37.9469 59.0244,-78.8076 10.3771,-121.351 -43.8812,-11.8643 -68.4435,-25.1268 -91.9855,-38.463 -27.3247,-7.6815 -73.148,-7.7296 -5.5929,-54.5632 45.9083,-9.9651 75.0182,-28.958 88.2468,-56.486 82.1276,-75.9064 62.8896,-120.6266 -31.3418,-142.2744 -48.9561,1.6314 -106.157,-5.1955 -133.5591,18.5475 -148.8024,59.4003 -41.3195,80.4288 1.2771,46.1865 28.3182,-8.5951 61.4955,-23.9478 73.374,-9.6793 88.9356,11.8965 14.4417,36.9923 4.2087,56.898 l -77.0993,84.2162 -2.2697,71.6247 13.2091,23.0727 71.8964,14.9516 10.2506,44.9653 z"
       id="path542"
       sodipodi:nodetypes="cccccccccccccccccc" />
    <path
       style="fill:none;stroke:#ffffff;stroke-width:1.39446px;stroke-linecap:butt;stroke-linejoin:miter;stroke-opacity:1"
       d="m 651.68553,3369.3225 c -78.91393,96.7047 34.98533,91.7597 59.65259,61.5446 141.13373,-156.7754 297.08228,-296.2564 457.26888,-430.7899 36.1261,-16.1801 12.1593,-94.4437 -43.4904,-48.3376 -164.66354,122.59 -321.21849,264.8261 -473.43107,417.5829 z"
       id="path544"
       sodipodi:nodetypes="ccccc" />
    <path
       style="fill:none;stroke:#ffffff;stroke-width:1.39446px;stroke-linecap:butt;stroke-linejoin:miter;stroke-opacity:1"
       d="m 196.71313,2070.3362 c -80.1267,-8.8719 -10.51508,117.952 16.34281,88.7847 200.10776,-10.0666 400.21541,-28.8268 600.32317,-18.9394 16.9306,11.9165 101.45585,-63.2007 -6.1475,-67.0322 z"
       id="path546"
       sodipodi:nodetypes="ccccc" />
    <path
       style="fill:none;stroke:#ffffff;stroke-width:1.39446px;stroke-linecap:butt;stroke-linejoin:miter;stroke-opacity:1"
       d="m 783.17641,2962.8846 c -31.91459,3.667 -23.207,20.7058 -30.38961,32.5141 3.37643,26.2018 16.69078,27.9432 31.13941,26.8932 16.1847,-0.7207 26.1073,-10.2253 27.4467,-31.7691 -0.9714,-11.3316 -12.3448,-20.0478 -28.1965,-27.6382 z"
       id="path548"
       sodipodi:nodetypes="ccccc" />
    <path
       style="fill:none;stroke:#ffffff;stroke-width:1.39446px;stroke-linecap:butt;stroke-linejoin:miter;stroke-opacity:1"
       d="m 783.37691,2916.1634 c -55.58116,7.7516 -60.80343,51.5911 -69.25139,93.1187 16.88934,32.5319 36.63331,58.9407 75.58579,44.1463 27.3775,-14.0786 66.57934,-9.2686 56.42634,-83.3 -6.89874,-26.8529 -19.68164,-49.9858 -62.76074,-53.965 z"
       id="path550"
       sodipodi:nodetypes="ccccc" />
    <path
       style="fill:none;stroke:#ffffff;stroke-width:1.39446px;stroke-linecap:butt;stroke-linejoin:miter;stroke-opacity:1"
       d="m 775.12631,2882.5451 c -81.43013,30.1586 -95.73414,80.7943 -92.01761,136.9274 10.80738,74.1191 57.38687,82.9235 110.57501,79.6614 62.24914,-15.527 88.83264,-62.6018 87.08924,-134.733 -12.5369,-82.1723 -57.78034,-85.1883 -105.64664,-81.8558 z"
       id="path552"
       sodipodi:nodetypes="ccccc" />
    <path
       style="fill:none;stroke:#ffffff;stroke-width:1.39446px;stroke-linecap:butt;stroke-linejoin:miter;stroke-opacity:1"
       d="m 524.13194,3017.815 c 5.35474,-47.7432 46.36598,-17.1389 36.51576,-1.6965 l 1.42863,52.945 c -3.06337,16.989 -14.14226,32.3512 -31.93076,12.5305 z"
       id="path554"
       sodipodi:nodetypes="ccccc" />
    <path
       style="fill:none;stroke:#ffffff;stroke-width:1.39446px;stroke-linecap:butt;stroke-linejoin:miter;stroke-opacity:1"
       d="m 528.57039,3150.6612 c 7.80301,-41.4613 37.23237,-23.5378 38.65138,0.6837 l 0.42392,45.2023 c -12.2317,11.9391 -24.93054,12.7036 -38.08803,2.4979 z"
       id="path556"
       sodipodi:nodetypes="ccccc" />
    <path
       style="fill:none;stroke:#ffffff;stroke-width:1.39446px;stroke-linecap:butt;stroke-linejoin:miter;stroke-opacity:1"
       d="m 521.14583,3270.5377 c 18.73855,-40.1695 36.81445,-32.9043 54.71256,-12.9161 13.83477,20.8974 4.42911,29.3846 1.33785,41.2438 -12.01082,6.968 -23.81329,15.5506 -38.49869,1.7864 -15.92033,-1.2467 -22.93784,-10.2661 -17.55172,-30.1141 z"
       id="path558"
       sodipodi:nodetypes="ccccc" />
    <path
       style="fill:none;stroke:#ffffff;stroke-width:1.39446px;stroke-linecap:butt;stroke-linejoin:miter;stroke-opacity:1"
       d="m 355.19898,2854.879 c 18.84648,-15.0392 25.9418,-9.8112 29.26453,1.9236 4.99623,3.1054 3.23209,11.137 1.92911,18.8325 -8.04147,3.827 -16.08852,7.0961 -24.18353,5.4312 -11.32069,-6.9649 -11.76719,-16.0652 -7.01011,-26.1873 z"
       id="path560"
       sodipodi:nodetypes="ccccc" />
    <path
       style="fill:none;stroke:#ffffff;stroke-width:1.39446px;stroke-linecap:butt;stroke-linejoin:miter;stroke-opacity:1"
       d="m 368.64609,2815.5477 c -23.73663,11.0277 -38.63804,30.8722 -41.10656,63.1241 9.67089,21.2273 25.37085,35.5124 52.15254,37.0375 19.54719,-13.3806 37.85556,-27.7083 35.45652,-57.869 6.58759,-31.3245 -20.82955,-36.1284 -46.5025,-42.2926 z"
       id="path562"
       sodipodi:nodetypes="ccccc" />
    <path
       style="fill:none;stroke:#ffffff;stroke-width:1.39446px;stroke-linecap:butt;stroke-linejoin:miter;stroke-opacity:1"
       d="m 372.77636,2786.1082 c -61.08057,9.7779 -78.18397,49.2441 -75.32211,102.1884 27.74189,59.903 60.92731,41.7048 92.24896,50.2471 38.46425,-5.4805 56.10397,-39.1943 55.05783,-98.2418 -12.05543,-44.2193 -41.55982,-50.2147 -71.98468,-54.1937 z"
       id="path564"
       sodipodi:nodetypes="ccccc" />
    <path
       style="fill:none;stroke:#ffffff;stroke-width:1.39446px;stroke-linecap:butt;stroke-linejoin:miter;stroke-opacity:1"
       d="m 743.80086,2379.6996 c 10.64648,-12.0571 28.65905,-7.0762 45.33525,5.9656 l -5.6369,38.3864 c -11.0898,0.9593 -21.8641,2.7389 -34.33286,0.1125 -11.40631,-11.1748 -8.10673,-27.9257 -5.36549,-44.465 z"
       id="path566"
       sodipodi:nodetypes="ccccc" />
    <path
       style="fill:none;stroke:#ffffff;stroke-width:1.39446px;stroke-linecap:butt;stroke-linejoin:miter;stroke-opacity:1"
       d="m 752.73325,2305.0031 c 14.96387,-4.5161 31.00556,-17.7917 42.80926,3.3724 l -2.5516,40.2187 c -12.3474,11.2899 -27.13657,5.6358 -41.82016,0.7132 l -2.8401,-46.4671 z"
       id="path568"
       sodipodi:nodetypes="cccccc" />
    <path
       style="fill:none;stroke:#ffffff;stroke-width:1.39446px;stroke-linecap:butt;stroke-linejoin:miter;stroke-opacity:1"
       d="m 743.18563,2239.2844 c -12.47434,-3.3106 -23.23975,-0.8249 -33.24866,4.2267 l -16.55985,164.56 c -15.39489,10.785 -30.77711,20.8736 -45.6739,4.2307 5.62597,-78.8456 6.65732,-194.9233 20.99619,-234.9171 49.39364,-10.7938 98.78729,-5.8445 148.1809,-0.644 12.84,18.3598 19.091,36.7198 6.3165,55.0796 -14.1854,2.8003 -22.3937,4.0097 -31.455,5.4459 l 0.2355,31.8215 c -7.8704,21.7099 -24.33777,15.732 -39.94269,12.5322 z"
       id="path570"
       sodipodi:nodetypes="ccccccccccc" />
    <path
       style="fill:none;stroke:#ffffff;stroke-width:1.39446px;stroke-linecap:butt;stroke-linejoin:miter;stroke-opacity:1"
       d="m 519.5705,2271.9721 c -22.71975,5.6756 -22.84999,21.7608 -24.43132,37.1772 5.98407,14.7772 15.98825,23.5608 32.58587,22.5138 11.82201,-6.7312 23.44613,-13.866 26.72605,-38.0301 -9.16386,-8.5368 -10.28389,-21.3725 -34.8806,-21.6609 z"
       id="path572"
       sodipodi:nodetypes="ccccc" />
    <path
       style="fill:none;stroke:#ffffff;stroke-width:1.39446px;stroke-linecap:butt;stroke-linejoin:miter;stroke-opacity:1"
       d="m 517.37771,2235.3442 c -38.50455,5.1617 -56.78976,37.2976 -59.34232,90.4216 9.99162,24.9077 18.67663,50.7041 70.31076,47.2828 27.76131,-7.5279 56.96477,-11.8343 58.69307,-77.5187 -15.21474,-29.8206 -29.12272,-61.2343 -69.66151,-60.1857 z"
       id="path574"
       sodipodi:nodetypes="ccccc" />
    <path
       style="fill:none;stroke:#ffffff;stroke-width:1.39446px;stroke-linecap:butt;stroke-linejoin:miter;stroke-opacity:1"
       d="m 518.30182,2200.5681 c -49.63921,5.7986 -90.63873,29.6073 -95.09462,129.5937 19.4125,66.9431 57.98649,91.1849 110.45605,84.4605 56.83257,-19.0676 99.88837,-48.511 87.28002,-119.8758 -4.66169,-67.704 -44.72218,-91.9127 -102.64145,-94.1784 z"
       id="path576"
       sodipodi:nodetypes="ccccc" />
    <path
       style="fill:none;stroke:#ffffff;stroke-width:1.39446px;stroke-linecap:butt;stroke-linejoin:miter;stroke-opacity:1"
       d="m 885.04565,2206.731 c 6.7993,-41.563 -30.5516,-35.7478 -27.6617,2.2527 -2.129,109.7745 -20.82294,213.6483 -42.48934,316.4632 l -39.8993,-8.3401 -8.72695,-44.9352 -39.29563,-9.201 v 21.264 c -131.21685,-44.5748 -182.96352,-31.4786 -215.40953,-4.376 -18.99764,25.569 3.23962,31.5179 28.34753,36.1011 25.15491,-15.7461 51.77973,-26.116 82.92986,-19.9333 57.57093,7.0093 91.5574,26.1191 129.04733,43.4315 44.41149,23.282 70.86079,54.4997 101.15723,84.0174 77.35991,73.8829 156.25645,147.085 219.05455,227.4192 24.8298,2.1317 20.1025,-6.863 11.9178,-17.1592 -18.3358,-40.6337 -32.5047,-63.6475 -42.9159,-70.7731 5.7759,-10.6914 -127.31464,-129.2784 -203.07539,-203.3216 27.01174,-66.3974 28.59724,-132.7948 42.60884,-199.1923 z"
       id="path578"
       sodipodi:nodetypes="cccccccccccccccccc" />
    <path
       style="fill:none;stroke:#ffffff;stroke-width:1.39446px;stroke-linecap:butt;stroke-linejoin:miter;stroke-opacity:1"
       d="m 576.30238,2547.47 c -38.39786,7.0273 -7.05975,41.0052 15.00418,39.5612 21.88153,0.069 44.95242,-1.6863 61.73746,6.2044 53.83865,6.5238 116.39214,68.6621 175.47999,108.6836 l 207.98879,210.7609 c 46.4495,30.3307 40.3451,-13.5278 27.6631,-25.2302 L 890.96915,2709.3111 C 806.53131,2634.1222 722.81667,2561.752 656.79443,2558.3277 Z"
       id="path580"
       sodipodi:nodetypes="ccccccccc" />
    <path
       style="fill:none;stroke:#ffffff;stroke-width:1.39446px;stroke-linecap:butt;stroke-linejoin:miter;stroke-opacity:1"
       d="m 289.45253,2250.2772 c -4.7948,-64.7863 33.49621,-37.8983 44.44384,-12.4684 1.14262,88.5065 58.10242,204.6729 143.63252,304.6347 102.36885,102.9571 119.36181,75.4032 164.4149,90.7439 67.75123,-11.108 137.47922,113.164 206.24776,171.7225 l 131.44467,132.6015 c 54.93638,42.6702 25.66708,78.5577 -10.73386,58.27 L 810.77161,2816.3927 C 692.07121,2684.7033 614.23702,2668.0513 551.98918,2637.0888 471.24377,2591.1363 403.82413,2530.0964 359.91311,2442.4401 Z"
       id="path582"
       sodipodi:nodetypes="ccccccccccc" />
    <path
       style="fill:none;stroke:#ffffff;stroke-width:1.39446px;stroke-linecap:butt;stroke-linejoin:miter;stroke-opacity:1"
       d="m 205.94167,2260.5098 c -13.21191,-89.6506 52.80166,-30.4779 41.62043,-15.5074 85.15124,404.616 293.57939,448.0352 320.46051,470.5887 l 99.60209,19.2718 c 68.19313,8.1923 30.23633,24.1551 33.51904,36.4929 -69.28723,26.9361 -173.94662,10.8458 -308.39892,-124.8023 -53.73191,-75.1065 -112.5835,-147.332 -140.21193,-237.1276 z"
       id="path584"
       sodipodi:nodetypes="cccccccc" />
    <path
       style="fill:none;stroke:#ffffff;stroke-width:1.39446px;stroke-linecap:butt;stroke-linejoin:miter;stroke-opacity:1"
       d="m 142.55044,2228.2765 c 23.42519,266.956 178.46818,444.0513 387.56641,584.241 105.49802,38.1728 138.55536,6.0145 189.79682,-8.4894 65.78304,-36.0945 44.32365,24.3737 25.36393,37.5706 -20.56056,9.6872 -52.90853,13.755 -55.14651,32.1773 -15.63782,5.602 -31.44409,15.4583 -46.40224,3.9068 -0.30803,128.9768 7.92781,251.577 13.62225,376.0739 14.10837,52.984 -36.61658,33.0886 -38.79376,4.1447 l -15.74003,-372.2685 c -34.17124,-13.4927 -71.63258,-12.139 -102.50118,-40.534 l -16.36628,305.7688 c 0.90599,87.0343 -33.88398,28.1421 -40.20858,-1.3029 l 32.3919,-321.3709 C 314.64923,2722.167 195.20885,2581.5533 142.74726,2385.8407 c -22.58192,-41.2536 -12.35198,-84.1084 -17.90506,-126.193 -2.48895,-10.6777 3.51789,-21.132 17.70824,-31.3712 z"
       id="path586"
       sodipodi:nodetypes="cccccccccccccccc" />
    <path
       style="fill:none;stroke:#ffffff;stroke-width:1.39446px;stroke-linecap:butt;stroke-linejoin:miter;stroke-opacity:1"
       d="m 598.56225,1371.8613 c -41.04484,14.3344 -56.75169,37.3628 -59.81059,64.7312 3.41253,55.1639 28.59184,67.4372 57.23849,72.8785 40.07402,-13.5755 63.90363,-36.2513 64.86957,-71.7359 1.50225,-52.0401 -30.04753,-59.4299 -62.29747,-65.8738 z"
       id="path588"
       sodipodi:nodetypes="ccccc" />
    <path
       style="fill:none;stroke:#ffffff;stroke-width:1.39446px;stroke-linecap:butt;stroke-linejoin:miter;stroke-opacity:1"
       d="m 599.40939,1302.8598 c -67.76895,23.9572 -121.33345,58.0694 -113.65245,135.9673 -1.02214,97.8542 51.13798,108.9354 105.48101,116.4546 88.88171,-9.7909 133.10831,-51.1474 119.44854,-133.422 -18.27587,-85.6714 -66.78459,-97.426 -111.2771,-118.9999 z"
       id="path590"
       sodipodi:nodetypes="ccccc" />
    <path
       style="fill:none;stroke:#ffffff;stroke-width:1.39446px;stroke-linecap:butt;stroke-linejoin:miter;stroke-opacity:1"
       d="m 594.59791,1255.0716 c -101.33289,32.0489 -177.44031,77.7538 -162.4961,172.7504 -10.81032,133.3716 64.43463,167.2436 154.30181,184.209 107.84854,-18.7756 191.60629,-60.4224 185.30249,-187.5718 -12.36616,-48.8351 -64.91325,-147.36 -177.1082,-169.3876 z"
       id="path592"
       sodipodi:nodetypes="ccccc" />
    <path
       style="fill:none;stroke:#ffffff;stroke-width:1.39446px;stroke-linecap:butt;stroke-linejoin:miter;stroke-opacity:1"
       d="m 320.11475,1371.4407 c -4.80053,-54.1378 31.51077,-51.826 72.61376,-42.9348 16.36628,-8.4172 29.99746,-17.6484 0.16678,-39.8165 -51.98122,-42.0538 -107.73999,22.9902 -107.2376,75.0372 -17.58318,90.4589 12.74437,109.9132 56.61581,109.2952 39.52253,-6.2785 47.61351,-19.2789 19.3046,-40.0637 -33.86158,-10.4415 -44.23491,-32.6787 -41.46335,-61.5174 z"
       id="path594"
       sodipodi:nodetypes="ccccccc" />
    <path
       style="fill:none;stroke:#ffffff;stroke-width:1.39446px;stroke-linecap:butt;stroke-linejoin:miter;stroke-opacity:1"
       d="m 841.70061,1460.5971 c -16.4048,-13.0344 -25.4023,-52.6208 18.64574,-34.6435 67.69011,21.6322 86.71761,63.935 68.92301,121.8788 -18.7162,75.3746 -68.68391,56.5873 -116.48105,44.3405 -22.2422,-24.588 -42.55604,-48.3576 6.564,-42.6502 33.77094,21.1133 63.19364,29.8582 73.70354,-15.1949 11.77171,-36.9064 -10.5479,-59.2635 -51.35524,-73.7307 z"
       id="path596"
       sodipodi:nodetypes="ccccccc" />
    <path
       style="fill:none;stroke:#ffffff;stroke-width:1.39446px;stroke-linecap:butt;stroke-linejoin:miter;stroke-opacity:1"
       d="m 512.72284,1046.8577 c 19.32074,-49.32512 32.0932,-20.2632 45.30592,3.5284 l 12.62827,126.0907 c -1.15196,28.9419 -12.83842,27.0568 -29.21224,11.4548 z"
       id="path598"
       sodipodi:nodetypes="ccccc" />
    <path
       style="fill:none;stroke:#ffffff;stroke-width:1.39446px;stroke-linecap:butt;stroke-linejoin:miter;stroke-opacity:1"
       d="m 735.89661,1068.6324 c 30.23927,-20.9781 33.25579,-1.8001 34.03891,20.6723 l -43.96374,140.7554 c -22.89224,19.6641 -34.70964,13.6825 -37.46915,-13.275 z"
       id="path600"
       sodipodi:nodetypes="ccccc" />
    <path
       style="fill:none;stroke:#ffffff;stroke-width:1.39446px;stroke-linecap:butt;stroke-linejoin:miter;stroke-opacity:1"
       d="m 910.90446,1258.321 c -38.44411,22.802 -29.78071,36.9405 10.3749,45.2873 l 89.63894,-22.4415 c 10.8472,-14.0437 35.0835,-29.7908 -14.23088,-36.1797 z"
       id="path602"
       sodipodi:nodetypes="ccccc" />
    <path
       style="fill:none;stroke:#ffffff;stroke-width:1.39446px;stroke-linecap:butt;stroke-linejoin:miter;stroke-opacity:1"
       d="m 663.43586,1674.397 c -15.48973,-45.4788 14.60702,-43.7098 32.00717,-22.405 l 64.72859,103.986 c 13.37279,34.5156 -3.80174,36.8266 -22.52439,37.5052 z"
       id="path604"
       sodipodi:nodetypes="ccccc" />
    <path
       style="fill:none;stroke:#ffffff;stroke-width:1.39446px;stroke-linecap:butt;stroke-linejoin:miter;stroke-opacity:1"
       d="m 504.15385,1674.1899 c 25.61745,-41.8356 27.80077,-17.9259 28.99973,8.7461 l -18.85193,101.7073 c 0.60757,31.6244 -39.15938,44.0488 -29.18003,0 z"
       id="path606"
       sodipodi:nodetypes="ccccc" />
    <path
       style="fill:none;stroke:#ffffff;stroke-width:1.39446px;stroke-linecap:butt;stroke-linejoin:miter;stroke-opacity:1"
       d="m 377.22889,1608.8128 c 34.37176,-30.4275 35.02423,7.591 21.26476,25.9011 l -71.85102,95.2241 c -18.11163,8.6086 -40.83037,27.1153 -38.44121,-8.3209 l 11.22669,-87.2394 c 19.00289,-24.7405 23.54851,-8.9962 28.26237,6.2772 l -3.05358,37.7026 z"
       id="path608"
       sodipodi:nodetypes="cccccccc" />
    <path
       style="fill:none;stroke:#ffffff;stroke-width:1.39446px;stroke-linecap:butt;stroke-linejoin:miter;stroke-opacity:1"
       d="m 257.30768,1508.5836 c -34.24324,95.9716 -54.53653,190.8505 -69.51119,285.313 -5.14669,92.674 42.09974,87.5706 104.78366,53.6572 l 121.16058,-116.4842 c 43.66128,-45.3739 22.02169,4.9119 23.23892,21.7145 l -12.18582,70.1757 c 8.23307,84.5973 53.47999,95.708 133.83412,37.1177 21.31496,-31.7649 26.35555,-68.4798 34.18672,-104.3458 32.23447,100.2664 109.60166,120.4738 176.55972,159.1456 l 49.61732,6.7954 c 43.57984,14.8186 52.89934,-31.8779 53.72104,-93.8327 l 8.79,-137.2822 c 0.233,-48.8166 -39.31204,-69.2214 -97.48394,-76.322 -67.27225,-4.1123 -52.81652,74.9502 -8.1418,66.9671 98.68684,3.3224 42.6285,79.5551 44.9134,128.2985 -0.1338,63.5778 -49.4258,54.9552 -117.41538,18.87 -58.56853,-49.1436 -77.36371,-110.0534 -99.70026,-169.9155 -17.33069,-27.6794 -28.83783,-17.5546 -39.20052,0 l -22.78711,136.2319 c -6.63974,54.3245 -86.46565,75.3679 -83.66821,-19.4903 l 24.66517,-103.3932 c 12.2388,-62.027 -12.87288,-54.7389 -61.27603,-4.2265 -61.35454,53.943 -200.33797,235.0009 -185.41878,97.6078 l 27.30661,-143.5408 c 4.70513,-34.4839 3.36072,-73.4745 75.25192,-57.9071 43.00196,4.4779 83.20189,-19.0439 5.91937,-40.0982 z"
       id="path610"
       sodipodi:nodetypes="ccccccccccccccccccccccccccc" />
    <path
       style="fill:none;stroke:#ffffff;stroke-width:1.39446px;stroke-linecap:butt;stroke-linejoin:miter;stroke-opacity:1"
       d="M 563.03251,838.99323 C 488.798,957.12275 375.7891,1065.7341 368.93153,1200.4028 c 25.77753,68.9149 60.2497,47.6315 95.89308,14.1988 33.55308,-30.0862 53.66435,-111.7324 -45.43015,-38.896 13.27475,-129.872 93.14013,-183.8887 145.59156,-269.13335 34.87043,69.64729 31.91556,138.60785 40.30424,207.77425 12.06701,147.5436 35.11181,90.9073 61.03967,31.8086 l 58.48278,-118.5084 c 48.3613,-32.86932 93.6681,-55.82196 97.177,56.9224 l -59.74174,166.9711 c -38.21714,81.7591 24.51614,54.0915 63.68844,-3.8504 52.20574,-67.172 109.24155,-97.2382 174.03791,-67.6841 l 76.36418,65.742 -72.8318,109.8838 c -22.19578,33.589 -52.14624,46.8522 -105.11255,-0.2084 -52.5402,-65.5917 -79.68554,7.6209 -19.4953,27.6324 l 58.17751,32.2174 c 51.53126,44.8178 60.99536,-9.674 86.50904,-26.2773 l 82.3271,-110.4334 c 49.25,-48.2293 -12.3874,-85.4287 -47.1694,-125.2992 -116.66814,-72.2318 -165.22855,-25.9503 -212.28865,22.942 -7.42094,-75.2999 75.91331,-144.8629 -40.12004,-227.02848 -104.1497,-15.98949 -110.29888,74.47998 -150.9944,127.42138 -15.00864,-89.519 1.92282,-199.94726 -92.3075,-237.60467 z"
       id="path612"
       sodipodi:nodetypes="cccccccccccccccccccccccc" />
    <path
       style="fill:none;stroke:#ffffff;stroke-width:1.39446px;stroke-linecap:butt;stroke-linejoin:miter;stroke-opacity:1"
       d="m 652.54759,764.5738 c -34.81897,1.5455 -45.53321,19.90656 -39.777,49.75761 1.70864,27.82043 25.54857,24.21531 45.77808,25.73668 11.24036,-7.83132 27.71766,-6.08782 23.94995,-41.35803 -3.44698,-14.44835 0.14168,-32.20087 -29.95103,-34.13626 z"
       id="path614"
       sodipodi:nodetypes="ccccc" />
    <path
       style="fill:none;stroke:#ffffff;stroke-width:1.39446px;stroke-linecap:butt;stroke-linejoin:miter;stroke-opacity:1"
       d="m 702.80609,730.54605 c -34.96191,-57.71297 34.39937,-81.7508 54.9849,-56.22172 l 446.23191,456.73817 c 34.8548,10.753 18.7834,110.3214 -49.4082,57.6138 C 1000.4806,1038.4904 842.65031,890.94656 702.80609,730.54605 Z"
       id="path616"
       sodipodi:nodetypes="ccccc" />
    <path
       style="fill:none;stroke:#ffffff;stroke-width:1.39446px;stroke-linecap:butt;stroke-linejoin:miter;stroke-opacity:1"
       d="m 207.08881,1943.9341 c -53.80828,13.8223 -50.22851,74.7954 -5.84701,80.6097 l 621.12121,-11.4025 c 47.72614,1.0168 45.36674,-65.6245 -3.0592,-67.8094 -221.50086,6.0336 -422.01359,4.2404 -612.215,-1.3978 z"
       id="path618"
       sodipodi:nodetypes="ccccc" />
    <path
       style="fill:none;stroke:#ffffff;stroke-width:1.39446px;stroke-linecap:butt;stroke-linejoin:miter;stroke-opacity:1"
       d="m 1026.0439,497.80375 c -29.09838,4.12204 -34.53998,23.55089 -40.71228,42.5069 5.7795,22.51687 20.95328,33.4085 42.84958,35.98121 13.1819,-9.68407 27.3063,-18.06844 33.0789,-37.96838 -5.2801,-19.36612 -11.5533,-37.83108 -35.2162,-40.51973 z"
       id="path620"
       sodipodi:nodetypes="ccccc" />
    <path
       style="fill:none;stroke:#ffffff;stroke-width:1.39446px;stroke-linecap:butt;stroke-linejoin:miter;stroke-opacity:1"
       d="m 1182.6962,578.78727 c -45.9276,19.82844 -86.3523,49.99808 -99.7456,130.96842 4.4084,31.03412 19.9712,53.1258 64.1901,52.24421 31.2298,2.46653 61.8118,-0.91058 88.0761,-43.24488 -2.1856,-50.42342 -0.4009,-101.82319 -52.5206,-139.96775 z"
       id="path622"
       sodipodi:nodetypes="ccccc" />
    <path
       style="fill:none;stroke:#ffffff;stroke-width:1.39446px;stroke-linecap:butt;stroke-linejoin:miter;stroke-opacity:1"
       d="m 1197.541,852.80137 c -12.6778,33.5595 17.1776,23.21953 34.161,26.16506 l 57.6356,-71.51614 c -0.911,-39.40259 -18.0389,-25.98838 -32.4826,-21.31623 z"
       id="path624"
       sodipodi:nodetypes="ccccc" />
    <path
       style="fill:none;stroke:#ffffff;stroke-width:1.39446px;stroke-linecap:butt;stroke-linejoin:miter;stroke-opacity:1"
       d="m 1258.4528,909.65709 c -7.9448,44.72776 17.3736,23.7246 31.678,24.48654 l 54.3913,-68.64062 c -3.7249,-13.41407 4.0863,-37.59634 -32.9954,-19.87449 z"
       id="path626"
       sodipodi:nodetypes="ccccc" />
    <path
       style="fill:none;stroke:#ffffff;stroke-width:1.39446px;stroke-linecap:butt;stroke-linejoin:miter;stroke-opacity:1"
       d="m 1130.0947,403.84877 c 5.3893,-16.22441 13.0229,-24.35842 21.5087,-29.41898 38.8276,-14.56621 37.7184,3.63678 34.3628,23.68289 -5.3999,31.69907 -16.361,33.00011 -27.6046,32.75836 -15.088,0.1315 -25.9518,-6.55092 -28.2669,-27.02227 z"
       id="path628"
       sodipodi:nodetypes="ccccc" />
    <path
       style="fill:none;stroke:#ffffff;stroke-width:1.39446px;stroke-linecap:butt;stroke-linejoin:miter;stroke-opacity:1"
       d="m 1282.0965,352.68829 c -22.5533,48.78612 -46.8506,97.57224 -48.0315,146.35836 31.3185,11.49813 75.7768,-1.27023 115.8554,-5.95012 -9.2646,-25.20745 -0.4806,-50.41494 13.2499,-75.6224 -8.1507,-28.76273 -47.3248,-45.74415 -81.0738,-64.78584 z"
       id="path630"
       sodipodi:nodetypes="ccccc" />
    <path
       style="fill:none;stroke:#ffffff;stroke-width:1.39446px;stroke-linecap:butt;stroke-linejoin:miter;stroke-opacity:1"
       d="m 1309.8323,310.28323 c 4.5349,-18.6959 12.1683,-27.5464 21.7,-30.3637 33.7634,9.36429 54.7783,52.56613 79.9892,84.63126 l -27.141,21.24804 c -23.0127,-24.99032 -41.6575,-49.54884 -74.5482,-75.5156 z"
       id="path632"
       sodipodi:nodetypes="ccccc" />
    <path
       style="fill:none;stroke:#ffffff;stroke-width:1.39446px;stroke-linecap:butt;stroke-linejoin:miter;stroke-opacity:1"
       d="m 1372.8696,237.23936 c 2.0747,11.81472 -9.2326,23.62943 12.3107,35.44415 l 55.2985,65.38592 c 13.8489,-10.03815 32.5154,-22.28027 58.7094,-37.96638 -12.8165,-38.91898 -24.2978,-77.88024 -20.3665,-117.3295 -36.035,17.13504 -84.1286,17.1273 -105.9521,54.46581 z"
       id="path634"
       sodipodi:nodetypes="cccccc" />
    <path
       style="fill:none;stroke:#ffffff;stroke-width:1.39446px;stroke-linecap:butt;stroke-linejoin:miter;stroke-opacity:1"
       d="m 1169.4102,655.59535 c -15.6788,6.84557 -27.5547,15.23888 -31.389,26.90527 -6.9367,22.1919 4.0784,24.09954 16.0227,24.95713 25.3149,-4.61442 30.6238,-14.06138 31.7956,-24.50784 4.8024,-10.97663 -4.2241,-19.45296 -16.4293,-27.35456 z"
       id="path636"
       sodipodi:nodetypes="ccccc" />
    <path
       style="fill:none;stroke:#ffffff;stroke-width:1.39446px;stroke-linecap:butt;stroke-linejoin:miter;stroke-opacity:1"
       d="m 1265.5128,639.26213 c -0.103,41.87535 35.7796,71.72501 65.3005,103.70067 l 71.0119,-93.04342 -30.5961,-55.58269 z"
       id="path638"
       sodipodi:nodetypes="ccccc" />
    <path
       style="fill:none;stroke:#ffffff;stroke-width:1.39446px;stroke-linecap:butt;stroke-linejoin:miter;stroke-opacity:1"
       d="m 1248.0446,545.92072 c -5.1198,28.26703 3.6705,36.08783 16.3012,38.26353 30.6598,-6.83006 62.3151,-11.69125 89.8632,-24.67496 4.8365,-11.98667 -2.5898,-23.54876 -12.4347,-35.02712 -18.2471,6.47315 -18.0578,11.99154 -93.7297,21.43855 z"
       id="path640"
       sodipodi:nodetypes="ccccc" />
    <path
       style="fill:none;stroke:#ffffff;stroke-width:1.39446px;stroke-linecap:butt;stroke-linejoin:miter;stroke-opacity:1"
       d="m 1432.9476,675.52924 c 24.9002,-6.26053 28.3644,9.14587 31.3062,25.08043 l -67.617,96.09486 c -17.6169,-1.5784 -37.0676,-0.12968 -39.4967,-26.77318 z"
       id="path642"
       sodipodi:nodetypes="ccccc" />
    <path
       style="fill:none;stroke:#ffffff;stroke-width:1.39446px;stroke-linecap:butt;stroke-linejoin:miter;stroke-opacity:1"
       d="m 1493.234,706.52136 85.5255,22.63595 -24.2829,120.66005 c -44.2188,-3.53972 -102.2814,6.91571 -115.1848,-28.28158 z"
       id="path644"
       sodipodi:nodetypes="ccccc" />
    <path
       style="fill:none;stroke:#ffffff;stroke-width:1.39446px;stroke-linecap:butt;stroke-linejoin:miter;stroke-opacity:1"
       d="m 1422.8254,886.4833 c 44.7272,-1.66946 89.7539,-5.82189 131.3993,18.08427 -0.9098,24.73545 -9.8167,49.03345 -40.1717,72.15886 -23.6742,17.93755 -51.1909,22.04615 -82.998,10.71497 -43.0846,-46.09815 -26.2256,-73.70341 -8.2296,-100.9581 z"
       id="path646"
       sodipodi:nodetypes="ccccc" />
    <path
       style="fill:none;stroke:#ffffff;stroke-width:1.39446px;stroke-linecap:butt;stroke-linejoin:miter;stroke-opacity:1"
       d="m 1449.0651,916.51465 c -7.8444,11.87792 -9.2791,23.75569 6.8202,35.63363 23.429,10.11029 28.9313,0.16161 38.1229,-5.65904 8.2281,-9.07768 10.0785,-18.15552 -2.3612,-27.23321 -22.207,-6.48831 -30.6186,-3.37949 -42.5819,-2.74138 z"
       id="path648"
       sodipodi:nodetypes="ccccc" />
    <path
       style="fill:none;stroke:#ffffff;stroke-width:1.39446px;stroke-linecap:butt;stroke-linejoin:miter;stroke-opacity:1"
       d="m 2026.5575,505.13909 c -11.0854,9.43392 -24.0788,7.26585 -31.284,40.29627 4.715,17.01617 12.9979,30.74504 36.2683,30.665 9.8092,-8.80448 23.7733,-3.39174 24.6549,-42.74576 -4.3617,-14.02592 -11.4221,-25.79188 -29.6392,-28.21551 z"
       id="path650"
       sodipodi:nodetypes="ccccc" />
    <path
       style="fill:none;stroke:#ffffff;stroke-width:1.39446px;stroke-linecap:butt;stroke-linejoin:miter;stroke-opacity:1"
       d="m 1981.4561,624.66131 c -43.9536,21.26059 -60.3451,66.35011 -74.6191,113.2704 11.7574,88.08853 59.2789,57.59171 94.882,66.61376 48.4431,-11.46711 75.2477,-49.32853 67.4282,-129.42362 -23.5771,-30.18022 -50.9988,-51.27456 -87.6911,-50.46054 z"
       id="path652"
       sodipodi:nodetypes="ccccc" />
    <path
       style="fill:none;stroke:#ffffff;stroke-width:1.39446px;stroke-linecap:butt;stroke-linejoin:miter;stroke-opacity:1"
       d="m 2045.3215,261.74666 c -48.7002,27.22893 -109.83,46.68336 -131.4199,90.8691 0.2797,31.71501 0.7094,63.40604 25.6441,91.18338 32.5678,5.42268 69.3562,-6.35586 109.9686,-33.72026 18.0826,-36.11443 4.9867,-93.56331 -4.1928,-148.33222 z"
       id="path654"
       sodipodi:nodetypes="ccccc" />
    <path
       style="fill:none;stroke:#ffffff;stroke-width:1.39446px;stroke-linecap:butt;stroke-linejoin:miter;stroke-opacity:1"
       d="m 2016.6755,334.9234 c -21.2542,-1.806 -41.9306,-2.57402 -47.6826,23.47172 -7.1069,10.52007 -1.2524,21.04011 8.4885,31.56017 21.3513,1.94046 36.5273,-4.16144 44.4373,-19.72607 2.5027,-10.79897 9.0966,-20.66465 -5.2432,-35.30582 z"
       id="path656"
       sodipodi:nodetypes="ccccc" />
    <path
       style="fill:none;stroke:#ffffff;stroke-width:1.39446px;stroke-linecap:butt;stroke-linejoin:miter;stroke-opacity:1"
       d="m 2119.6695,153.51984 c 14.008,-94.000639 90.9583,-27.66312 79.2539,-2.47754 l -18.8053,616.25615 c 0.1255,46.2126 -65.0423,70.96172 -77.9306,-1.99408 z"
       id="path658"
       sodipodi:nodetypes="ccccc" />
    <path
       style="fill:none;stroke:#ffffff;stroke-width:1.39446px;stroke-linecap:butt;stroke-linejoin:miter;stroke-opacity:1"
       d="m 1607.3052,730.99298 42.4192,9.35059 -2.8611,109.11918 c -13.8218,4.88174 -26.9153,5.96022 -38.9564,1.54493 z"
       id="path660"
       sodipodi:nodetypes="ccccc" />
    <path
       style="fill:none;stroke:#ffffff;stroke-width:1.39446px;stroke-linecap:butt;stroke-linejoin:miter;stroke-opacity:1"
       d="m 1668.736,720.14139 54.1926,-44.99178 c 37.0064,19.07229 66.7667,47.35749 91.3744,82.19362 -30.8859,33.73156 -56.6929,73.26453 -114.805,75.89644 z"
       id="path662"
       sodipodi:nodetypes="ccccc" />
    <path
       style="fill:none;stroke:#ffffff;stroke-width:1.39446px;stroke-linecap:butt;stroke-linejoin:miter;stroke-opacity:1"
       d="m 1759.5133,643.62664 21.8391,-27.34154 102.1542,67.43118 -35.4423,34.0831 z"
       id="path664" />
    <path
       style="fill:none;stroke:#ffffff;stroke-width:1.39446px;stroke-linecap:butt;stroke-linejoin:miter;stroke-opacity:1"
       d="m 1808.1289,516.74134 -12.1305,69.63698 c 36.2946,22.54727 75.7078,64.4198 107.0359,56.19159 17.422,-39.46058 42.7577,-79.12192 31.7687,-117.86181 z"
       id="path666"
       sodipodi:nodetypes="ccccc" />
    <path
       style="fill:none;stroke:#ffffff;stroke-width:1.39446px;stroke-linecap:butt;stroke-linejoin:miter;stroke-opacity:1"
       d="m 1787.7067,448.99148 14.9413,34.67085 112.1732,-18.52464 c -0.098,-22.84825 -9.83,-50.17013 -37.1506,-85.65793 z"
       id="path668"
       sodipodi:nodetypes="ccccc" />
    <path
       style="fill:none;stroke:#ffffff;stroke-width:1.39446px;stroke-linecap:butt;stroke-linejoin:miter;stroke-opacity:1"
       d="m 1514.8741,182.21451 c 13.4149,-16.39721 26.8299,-7.26847 40.2449,-0.36991 l 9.9129,116.59447 -29.707,1.39476 z"
       id="path670"
       sodipodi:nodetypes="ccccc" />
    <path
       style="fill:none;stroke:#ffffff;stroke-width:1.39446px;stroke-linecap:butt;stroke-linejoin:miter;stroke-opacity:1"
       d="m 1611.5603,166.00297 -22.2671,128.18442 44.4096,8.2697 76.6828,-97.59012 c -29.126,-34.61803 -63.947,-36.90359 -98.8253,-38.864 z"
       id="path672"
       sodipodi:nodetypes="ccccc" />
    <path
       style="fill:none;stroke:#ffffff;stroke-width:1.39446px;stroke-linecap:butt;stroke-linejoin:miter;stroke-opacity:1"
       d="m 1224.8841,320.19513 c 25.1262,24.68162 -2.2321,85.90609 -25.9919,144.62518 -15.6187,29.55068 -35.0414,48.62223 -78.8845,0.4211 -34.5725,-18.39276 -47.8477,-46.54233 -27.0035,-90.3227 36.779,-37.91037 78.4932,-62.30204 131.8799,-54.72358 z"
       id="path674"
       sodipodi:nodetypes="ccccc" />
    <path
       style="fill:none;stroke:#ffffff;stroke-width:1.39446px;stroke-linecap:butt;stroke-linejoin:miter;stroke-opacity:1"
       d="m 1992.8958,668.18654 c -31.204,-2.70126 -45.9508,38.31224 -61.8474,76.27196 13.1029,28.15901 34.8175,37.43192 60.221,38.61513 51.6192,-12.52802 52.4089,-40.60698 49.0072,-69.9683 -11.7341,-24.71871 -22.676,-51.3399 -47.3808,-44.91879 z"
       id="path676"
       sodipodi:nodetypes="ccccc" />
    <path
       style="fill:none;stroke:#ffffff;stroke-width:1.39446px;stroke-linecap:butt;stroke-linejoin:miter;stroke-opacity:1"
       d="m 1993.8409,696.11796 c -17.9047,4.5776 -25.9959,16.69942 -25.3402,35.5459 l 23.9456,18.0529 c 9.9083,-6.64227 26.139,-4.55907 24.1822,-27.5764 -2.5764,-9.65626 -2.4026,-19.85077 -22.7876,-26.0224 z"
       id="path678"
       sodipodi:nodetypes="ccccc" />
    <path
       style="fill:none;stroke:#ffffff;stroke-width:1.39446px;stroke-linecap:butt;stroke-linejoin:miter;stroke-opacity:1"
       d="m 1910.276,93.753058 c 55.6025,-35.047626 66.1517,-26.950772 28.2544,27.539762 -131.9676,96.94978 -238.623,214.30508 -353.7076,324.86524 -39.8835,41.72674 -34.0955,85.30225 42.8556,31.29356 L 1968.6,152.83327 c 61.5366,-40.39692 71.4836,1.02558 31.4935,40.58982 l -362.3446,334.14436 c -61.0606,45.54398 -161.7599,19.85582 -103.3103,-84.08828 125.2791,-116.57538 227.3191,-245.46804 375.8374,-349.726112 z"
       id="path680"
       sodipodi:nodetypes="ccccccccc" />
    <path
       style="fill:none;stroke:#ffffff;stroke-width:1.39446px;stroke-linecap:butt;stroke-linejoin:miter;stroke-opacity:1"
       d="m 1424.301,421.82082 c 63.6091,-103.41785 134.8767,-22.85314 53.8912,25.6028 -23.4399,63.99075 -16.9722,108.0924 23.76,129.40749 109.748,69.8667 152.2932,11.03988 199.7232,-38.43267 23.3567,-110.72712 100.9726,-54.73611 48.9528,32.26227 -107.4589,143.70704 -206.6128,122.07539 -303.4484,54.28667 -108.4391,-142.60765 -28.6204,-145.34942 -22.8788,-203.12656 z"
       id="path682"
       sodipodi:nodetypes="ccccccc" />
    <path
       style="fill:none;stroke:#ffffff;stroke-width:1.39446px;stroke-linecap:butt;stroke-linejoin:miter;stroke-opacity:1"
       d="m 802.86931,643.10817 c -51.8776,-53.6068 41.1987,-92.87622 59.15374,-46.0422 l 435.46355,469.26613 c 38.5276,29.6485 -17.6374,64.8117 -47.1373,39.0593 z"
       id="path684"
       sodipodi:nodetypes="ccccc" />
  </g>
</svg>
