<?xml version="1.0" encoding="UTF-8" standalone="no"?>
<svg
   xmlns:dc="http://purl.org/dc/elements/1.1/"
   xmlns:cc="http://creativecommons.org/ns#"
   xmlns:rdf="http://www.w3.org/1999/02/22-rdf-syntax-ns#"
   xmlns:svg="http://www.w3.org/2000/svg"
   xmlns="http://www.w3.org/2000/svg"
   xmlns:sodipodi="http://sodipodi.sourceforge.net/DTD/sodipodi-0.dtd"
   xmlns:inkscape="http://www.inkscape.org/namespaces/inkscape"
   version="1.1"
   id="svg2"
   width="4339"
   height="4150"
   viewBox="0 0 4339 4150"
   sodipodi:docname="glifoOzomatli.svg"
   inkscape:version="1.0.2 (e86c870879, 2021-01-15)">
  <metadata
     id="metadata8">
    <rdf:RDF>
      <cc:Work
         rdf:about="">
        <dc:format>image/svg+xml</dc:format>
        <dc:type
           rdf:resource="http://purl.org/dc/dcmitype/StillImage" />
        <dc:title></dc:title>
      </cc:Work>
    </rdf:RDF>
  </metadata>
  <defs
     id="defs6" />
  <sodipodi:namedview
     pagecolor="#ffffff"
     bordercolor="#666666"
     borderopacity="1"
     objecttolerance="10"
     gridtolerance="10"
     guidetolerance="10"
     inkscape:pageopacity="0"
     inkscape:pageshadow="2"
     inkscape:window-width="1920"
     inkscape:window-height="1006"
     id="namedview4"
     showgrid="false"
     inkscape:zoom="0.16496251"
     inkscape:cx="4502.0232"
     inkscape:cy="2009.1619"
     inkscape:window-x="0"
     inkscape:window-y="0"
     inkscape:window-maximized="1"
     inkscape:current-layer="g10"
     inkscape:document-rotation="0" />
  <g
     inkscape:groupmode="layer"
     inkscape:label="Image"
     id="g10"
     style="display:inline">
    <path
       style="display:none;fill:none;stroke:#ffffff;stroke-width:1px;stroke-linecap:butt;stroke-linejoin:miter;stroke-opacity:1"
       d="m 3020.4904,1713.3073 c -20.4401,28.7406 8.6409,51.5879 28.5069,35.6501 117.0834,-101.3116 229.8748,-206.8731 338.759,-316.3036 11.9497,-19.6924 -9.4956,-57.1487 -39.9149,-38.4601 -71.6065,77.9841 -186.9791,178.2978 -327.351,319.1136 z"
       id="path450"
       sodipodi:nodetypes="ccccc" />
    <path
       style="fill:none;stroke:#ffffff;stroke-width:1px;stroke-linecap:butt;stroke-linejoin:miter;stroke-opacity:1"
       d="m 1560.7006,1514.174 -38.7189,250.1019 c 10.1307,31.7672 22.868,59.3811 50.9891,62.4835 32.1859,-4.0265 34.5848,-39.4631 40.889,-70.7815 z"
       id="path1220"
       sodipodi:nodetypes="ccccc" />
    <path
       style="fill:none;stroke:#ffffff;stroke-width:1px;stroke-linecap:butt;stroke-linejoin:miter;stroke-opacity:1"
       d="m 1549.5852,1332.6195 c -37.0807,146.8844 -74.3874,293.6622 -87.8438,451.6825 18.8875,87.7901 66.6544,102.3917 117.9484,108.0547 90.7545,-20.2034 79.3982,-64.5581 87.2469,-104.3703 -0.6134,-95.2579 -65.4932,-284.8715 -117.3515,-455.3669 z"
       id="path1222"
       sodipodi:nodetypes="ccccc" />
    <path
       style="fill:none;stroke:#ffffff;stroke-width:1px;stroke-linecap:butt;stroke-linejoin:miter;stroke-opacity:1"
       d="m 1542.3859,1211.0097 c -46.8506,185.1525 -102.6205,315.1285 -127.4317,636.6204 35.6521,74.356 100.5527,86.1925 162.0495,105.3047 74.6036,-17.6569 115.2283,-66.7671 144.2125,-126.6526 -13.195,-109.5891 45.3275,-71.6151 -178.8303,-615.2725 z"
       id="path1224"
       sodipodi:nodetypes="ccccc" />
    <path
       style="fill:none;stroke:#ffffff;stroke-width:1px;stroke-linecap:butt;stroke-linejoin:miter;stroke-opacity:1"
       d="m 1541.6974,1135.1232 c -34.6958,27.4612 -188.4023,234.602 -173.7237,748.8923 41.0243,106.1983 133.1033,116.6092 221.5997,133.7415 105.4202,-31.666 187.275,-86.2026 191.377,-216.1997 10.2788,-76.7764 -5.9421,-173.1992 -58.3042,-296.4165 -59.5756,-125.0081 -101.9375,-288.8021 -180.9488,-370.0176 z"
       id="path1226"
       sodipodi:nodetypes="cccccc" />
    <path
       style="fill:none;stroke:#ffffff;stroke-width:1px;stroke-linecap:butt;stroke-linejoin:miter;stroke-opacity:1"
       d="m 1865.217,1205.2472 c -34.2634,45.9196 -112.4312,74.0126 -102.3466,-20.8646 14.6843,-75.0451 65.7439,-87.0343 115.6597,-101.0065 75.5979,13.8871 119.4818,54.462 102.3645,146.3705 -14.2856,108.0786 -116.1544,159.9901 -191.0868,229.176 7.7572,32.7694 6.7301,87.7505 24.5799,95.0003 61.4821,-96.3646 295.0804,-155.9734 234.3649,-421.3615 -117.9389,-158.41369 -251.3584,-100.6788 -294.7637,-45.7697 -24.9052,12.8833 -103.9656,158.8161 7.5886,237.8123 60.2924,32.9337 108.8461,6.5592 149.4411,-60.0255 26.4144,-51.3808 -3.4283,-116.9342 -45.8016,-59.3313 z"
       id="path1228"
       sodipodi:nodetypes="ccccccccccc" />
    <path
       style="fill:none;stroke:#ffffff;stroke-width:1px;stroke-linecap:butt;stroke-linejoin:miter;stroke-opacity:1"
       d="m 2317.9539,1250.4996 c 24.9729,-55.3101 57.261,-29.9284 90.4077,4.9229 14.9002,80.265 -34.8339,116.2392 -115.8132,130.8027 -55.9375,-15.3747 -110.2745,-33.1376 -129.1844,-103.7625 -26.7649,-78.9434 11.0038,-135.6688 54.6299,-190.3775 73.9703,-88.2963 179.5974,-12.0625 279.6677,35.2912 92.8101,163.6477 100.5658,231.8327 103.1675,294.2331 l -23.939,-41.9536 c -1.6227,-11.8623 0.6915,-25.2448 -32.5597,-24.8941 l -23.7657,12.2307 c -35.7118,-110.5188 -29.6326,-248.1518 -239.9938,-245.3579 -80.6145,56.3844 -85.5392,109.7918 -39.1006,161.1789 66.0588,43.4766 98.6138,42.1476 76.4836,-32.3139 z"
       id="path1230"
       sodipodi:nodetypes="ccccccccccccc" />
    <path
       style="fill:none;stroke:#ffffff;stroke-width:1px;stroke-linecap:butt;stroke-linejoin:miter;stroke-opacity:1"
       d="m 2698.7448,1593.4896 c 27.4676,12.1997 54.548,52.2426 82.7767,9.7008 22.9478,-19.1718 12.9541,-39.9996 -32.6209,-62.6161 -14.3827,-33.4984 -4.2588,-40.6339 17.1597,-35.6192 36.2498,6.4934 70.624,20.3667 102.2258,45.1493 l -93.1736,158.1779 -84.4832,-82.5334 c -17.2233,-21.1773 0.1204,-24.2732 8.1155,-32.2593 z"
       id="path1232"
       sodipodi:nodetypes="cccccccc" />
    <path
       style="fill:none;stroke:#ffffff;stroke-width:1px;stroke-linecap:butt;stroke-linejoin:miter;stroke-opacity:1"
       d="m 2793.616,1413.5606 c 33.2338,0.9559 73.4074,13.7718 83.897,-24.1422 29.57,-36.8114 -44.3455,-49.6699 -68.7427,-73.99 -10.2621,-41.0587 9.0447,-36.0022 24.7399,-36.5784 146.5824,19.0711 157.7107,70.5 106.6109,136.7942 -20.4134,86.1047 -79.2273,55.0383 -132.6595,40.3927 -41.0778,-6.5755 -20.4969,-25.9744 -13.8456,-42.4763 z"
       id="path1234"
       sodipodi:nodetypes="ccccccc" />
    <path
       style="fill:none;stroke:#ffffff;stroke-width:1px;stroke-linecap:butt;stroke-linejoin:miter;stroke-opacity:1"
       d="m 2957.3114,1808.8829 c -51.9548,-3.8084 -19.0585,66.9409 -17.9321,109.7744 -16.4257,-10.2999 -39.8927,-5.6842 -45.9571,-37.932 -32.1118,-73.0804 -2.4562,-105.0301 59.0034,-115.8018 132.987,-57.1533 58.5232,112.3817 77.6469,179.6506 -19.0209,-2.0334 -33.648,-18.3403 -40.2089,-60.8509 -2.6932,-39.1401 2.2157,-91.5072 -32.5522,-74.8403 z"
       id="path1236"
       sodipodi:nodetypes="ccccccc" />
    <path
       style="fill:none;stroke:#ffffff;stroke-width:1px;stroke-linecap:butt;stroke-linejoin:miter;stroke-opacity:1"
       d="m 3154.0081,1692.401 c -94.6613,-0.6703 -94.0583,59.6467 -53.8088,145.3449 20.0366,94.3366 35.5086,69.6848 50.8669,42.0689 -0.6163,-53.766 -31.1834,-144.3354 8.8923,-148.099 36.8543,-35.1894 41.5912,50.0758 53.4238,108.7286 31.4248,-2.2228 23.401,-56.3804 23.3254,-100.0741 3.3457,-79.4761 -41.8264,-59.3083 -82.6996,-47.9693 z"
       id="path1238"
       sodipodi:nodetypes="ccccccc" />
    <path
       style="fill:none;stroke:#ffffff;stroke-width:1px;stroke-linecap:butt;stroke-linejoin:miter;stroke-opacity:1"
       d="m 2968.6861,1549.843 c 60.5843,-64.1602 118.8244,-101.4019 167.0582,-23.7378 51.8584,64.11 23.3775,112.9008 -77.7082,147.847 -63.4007,18.776 -126.8014,64.9668 -190.2021,54.9193 80.4005,-59.7607 265.0415,-158.6 222.6637,-172.3325 -17.891,-47.3574 -151.3236,81.5347 -240.1188,107.7432 18.4504,-41.1231 78.5256,-76.3419 118.3072,-114.4392 z"
       id="path1240"
       sodipodi:nodetypes="ccccccc" />
    <path
       style="fill:none;stroke:#ffffff;stroke-width:1px;stroke-linecap:butt;stroke-linejoin:miter;stroke-opacity:1"
       d="m 3021.6986,2916.2969 c -128.085,-61.0948 -262.5915,-64.0914 -409.3892,44.1136 -190.8587,78.5156 -387.6572,70.8636 -591.6603,-41.3014 -24.3857,-11.3824 12.5661,-110.3798 92.0492,-67.0072 149.5725,118.87 319.7818,114.1772 499.9765,49.6961 84.2352,-47.2734 168.4632,-94.6237 259.1521,-72.3568 73.5776,1.8732 128.8113,24.7762 149.8717,86.8557 z"
       id="path1242"
       sodipodi:nodetypes="ccccccc" />
    <path
       style="fill:none;stroke:#ffffff;stroke-width:1px;stroke-linecap:butt;stroke-linejoin:miter;stroke-opacity:1"
       d="m 2234.9011,2570.2141 c 21.6861,-33.5972 60.2199,-24.189 93.9461,-27.0526 40.2598,16.5493 58.4099,36.9063 69.3977,58.4968 -23.1869,23.135 -58.0335,24.37 -94.0499,23.4077 -44.963,-5.4707 -54.2285,-31.8607 -69.2939,-54.8519 z"
       id="path1244"
       sodipodi:nodetypes="ccccc" />
    <path
       style="fill:none;stroke:#ffffff;stroke-width:1px;stroke-linecap:butt;stroke-linejoin:miter;stroke-opacity:1"
       d="m 2315.1108,2499.4488 c -69.6547,6.6984 -125.5005,23.5728 -154.2693,60.4007 18.9215,72.5532 84.498,76.6601 134.8536,103.0973 68.4886,-1.1054 131.9301,-13.8926 181.194,-59.4948 -22.0906,-57.041 -94.637,-78.6228 -161.7783,-104.0032 z"
       id="path1246"
       sodipodi:nodetypes="ccccc" />
    <path
       style="fill:none;stroke:#ffffff;stroke-width:1px;stroke-linecap:butt;stroke-linejoin:miter;stroke-opacity:1"
       d="m 2324.2849,2458.7464 c -120.8996,8.5453 -181.8835,49.8446 -233.3654,96.3384 34.83,56.8946 68.6912,114.3544 156.9861,140.0565 103.2179,-14.094 213.0937,17.7399 303.1034,-87.4676 -51.9522,-63.6223 -114.7086,-120.8506 -226.7241,-148.9273 z"
       id="path1248"
       sodipodi:nodetypes="ccccc" />
    <path
       style="fill:none;stroke:#ffffff;stroke-width:1px;stroke-linecap:butt;stroke-linejoin:miter;stroke-opacity:1"
       d="m 2327.7175,2400.866 c -129.6278,4.3521 -226.4287,70.8995 -326.1054,131.9981 55.2863,102.2855 135.728,169.3041 228.0206,219.708 286.4198,9.7374 308.0278,-78.7015 397.151,-141.8919 -71.7951,-74.8294 -121.2896,-153.5694 -299.0662,-209.8142 z"
       id="path1250"
       sodipodi:nodetypes="ccccc" />
    <path
       style="display:inline;fill:none;stroke:#ffffff;stroke-width:1px;stroke-linecap:butt;stroke-linejoin:miter;stroke-opacity:1"
       d="m 1945.0238,2277.4645 c -84.1763,22.2538 -7.3753,105.933 30.3373,74.2218 53.8322,-16.7909 92.2057,-47.6262 41.5606,-159.3356 -138.6739,-102.426 -158.8369,-37.016 -217.1237,-25.5971 -121.679,180.9156 13.7206,306.5609 33.3883,312.816 -123.6419,107.2367 -283.1916,208.8323 -57.5219,370.9457 81.695,16.2349 161.9222,28.2523 201.7845,-75.7121 39.3725,-65.7464 -136.1634,-208.8443 -120.8402,-27.9221 -56.7693,94.8728 -216.7536,-69.2353 -17.7959,-154.0442 95.1967,-94.7736 228.0453,247.4941 469.9401,252.2611 125.2128,-12.6459 237.0765,-62.2469 335.2604,-149.7188 129.8115,-109.1622 311.8478,-53.5068 419.1405,-139.4785 90.4279,-52.3099 174.9878,-108.4401 170.2394,-222.7151 -22.7086,-107.4026 -117.8492,-72.0694 -193.2172,-75.7003 -241.2137,-177.7612 -318.6068,-87.0848 -358.9796,64.2531 21.2874,158.5992 100.2515,169.4344 185.9,163.1444 90.7993,-42.8879 103.868,-101.067 48.1114,-172.7855 -57.1978,-34.7862 -75.7135,-11.6884 -66.9246,52.2684 -42.1514,32.7497 -77.4856,44.8241 -70.1783,-72.4244 43.7774,-75.9525 113.8781,-71.4013 205.973,0.4142 36.7691,49.106 34.8994,110.1863 -13.313,185.6286 -84.6662,65.0624 -163.5419,140.3182 -346.7876,31.846 -75.2037,-86.2412 -176.3646,-145.1193 -310.2272,-169.5247 -86.991,-37.9495 -233.026,98.6518 -345.2428,90.9264 -67.5114,-4.6143 -125.5047,-37.1133 -160.9485,-135.6733 -6.0455,-82.1601 29.5463,-117.7059 104.1674,-109.5572 106.286,36.202 63.7137,86.1354 33.2976,91.4632 z"
       id="path1254"
       sodipodi:nodetypes="ccccccccccccccccccccccccccc" />
    <path
       style="fill:none;stroke:#ffffff;stroke-width:1px;stroke-linecap:butt;stroke-linejoin:miter;stroke-opacity:1"
       d="m 1347.0969,1995.9346 c 106.9583,69.8622 179.8129,75.1781 240.7718,57.9799 59.8265,-9.2791 73.8573,26.4357 -21.8278,68.8876 -178.4053,-3.4846 -405.7475,73.1259 -276.0787,461.6052 42.3875,56.41 76.9205,150.5016 127.1624,169.2299 28.0193,-68.7252 80.0297,-135.9811 183.7535,-200.0699 124.2953,-108.9616 52.9781,-289.6299 -114.3377,-224.8884 -26.4167,23.8455 -73.6524,34.376 -49.2991,90.6916 43.0981,14.6267 46.941,-20.8215 64.9668,-38.1775 35.3322,-29.4161 70.4864,-53.1865 102.978,7.4617 17.1606,73.9664 2.4703,140.179 -118.54,180.5087 -33.7515,33.971 -74.8772,52.3794 -96.6618,111.6054 -56.352,-109.9542 -126.4611,-216.5691 -86.2001,-349.974 16.3989,-146.8281 211.2858,-175.8425 294.6304,-156.456 74.1767,-6.7106 87.6031,-47.3752 82.5344,-98.3769 7.7842,-39.7145 127.3454,-43.5301 38.9465,108.9639 -68.9284,64.8694 -158.7329,27.9512 -238.952,37.7696 -182.2245,83.238 -165.2785,217.7824 -78.0031,280.5596 42.0066,13.5599 70.3479,58.6074 159.9965,-37.6099 33.638,-124.0442 -42.2279,-71.1842 -57.454,-27.7598 -106.5885,71.7688 -126.0588,17.954 -108.2489,-89.6013 63.8029,-108.53 147.305,-119.9337 246.6267,-53.3394 69.9434,44.5974 75.8589,123.1481 50.1858,218.4499 -51.5095,91.39 -180.3899,182.1034 -185.1538,202.4731 -19.2197,11.6786 -58.9575,104.4646 -66.3096,167.8089 -135.0741,-174.3433 -304.3779,-332.7793 -227.7783,-605.4914 45.7995,-76.0817 138.201,-192.0281 136.2991,-227.3045 z"
       id="path1256"
       sodipodi:nodetypes="cccccccccccccccccccccccccccc" />
    <path
       style="fill:none;stroke:#ffffff;stroke-width:1px;stroke-linecap:butt;stroke-linejoin:miter;stroke-opacity:1"
       d="m 1177.2692,2604.0537 c -38.207,-65.258 -65.6783,-139.7175 -96.7131,-211.1228 -10.0969,-54.5915 58.7013,-13.2018 60.3324,5.9203 11.613,69.1757 18.4565,145.5418 36.3807,205.2025 z"
       id="path1258"
       sodipodi:nodetypes="cccc" />
    <path
       style="fill:none;stroke:#ffffff;stroke-width:1px;stroke-linecap:butt;stroke-linejoin:miter;stroke-opacity:1"
       d="m 1167.9241,2338.9267 -114.0742,-73.1448 11.3187,59.427 z"
       id="path1260" />
    <path
       style="fill:none;stroke:#ffffff;stroke-width:1px;stroke-linecap:butt;stroke-linejoin:miter;stroke-opacity:1"
       d="m 1175.9342,2252.7797 c -43.7892,-22.7665 -87.5783,-48.5807 -131.3675,-76.0847 l 4.5748,52.0332 c 50.5746,17.5745 90.689,23.1193 126.7927,24.0515 z"
       id="path1262"
       sodipodi:nodetypes="cccc" />
    <path
       style="fill:none;stroke:#ffffff;stroke-width:1px;stroke-linecap:butt;stroke-linejoin:miter;stroke-opacity:1"
       d="m 1244.3188,2182.1442 c -62.1665,-29.6272 -114.4547,-11.0892 -192.7469,-119.344 l 204.0723,49.2755 c -85.7431,-53.4812 -174.1998,-107.3931 -192.0358,-150.0964 l -22.5984,169.185 c 74.6861,51.7372 138.2398,47.5524 203.3088,50.9799 z"
       id="path1264"
       sodipodi:nodetypes="cccccc" />
    <path
       style="fill:none;stroke:#ffffff;stroke-width:1px;stroke-linecap:butt;stroke-linejoin:miter;stroke-opacity:1"
       d="m 1293.2152,2057.6492 c -99.9467,-33.2655 -178.0448,-212.9502 -201.2811,-251.682 l -19.0354,112.4303 c 77.1742,54.2693 166.0978,133.2367 220.3165,139.2517 z"
       id="path1266"
       sodipodi:nodetypes="cccc" />
    <path
       style="fill:none;stroke:#ffffff;stroke-width:1px;stroke-linecap:butt;stroke-linejoin:miter;stroke-opacity:1"
       d="m 1310.5531,1968.001 c -72.8927,-85.2742 -153.5152,-160.43 -160.6541,-331.7751 l -33.7702,107.8242 c 81.0759,177.0032 150.8123,216.873 194.4243,223.9509 z"
       id="path1268"
       sodipodi:nodetypes="cccc" />
    <path
       style="fill:none;stroke:#ffffff;stroke-width:1px;stroke-linecap:butt;stroke-linejoin:miter;stroke-opacity:1"
       d="m 1332.169,1925.0348 c -47.5028,-154.6472 -107.4282,-312.4196 -75.1573,-446.9979 -29.1436,25.3866 -49.0098,73.8241 -71.2745,116.3023 41.2534,131.8765 74.247,287.4094 146.4318,330.6956 z"
       id="path1270"
       sodipodi:nodetypes="cccc" />
    <path
       style="fill:none;stroke:#ffffff;stroke-width:1px;stroke-linecap:butt;stroke-linejoin:miter;stroke-opacity:1"
       d="m 1336.8216,1730.6828 c 15.2765,-140.1098 11.7791,-282.5082 60.3445,-418.5598 -29.9239,38.4155 -56.941,88.9293 -90.9702,110.2579 7.5587,107.6252 8.2155,227.9036 30.6257,308.3019 z"
       id="path1272"
       sodipodi:nodetypes="cccc" />
    <path
       style="fill:none;stroke:#ffffff;stroke-width:1px;stroke-linecap:butt;stroke-linejoin:miter;stroke-opacity:1"
       d="m 2533.3434,1520.0405 -6.6479,-109.2656 42.7669,14.06 z"
       id="path1274" />
    <path
       style="fill:none;stroke:#ffffff;stroke-width:1px;stroke-linecap:butt;stroke-linejoin:miter;stroke-opacity:1"
       d="m 2457.8569,1520.5688 -19.796,-125.6685 52.6381,9.0561 z"
       id="path1276" />
    <path
       style="fill:none;stroke:#ffffff;stroke-width:1px;stroke-linecap:butt;stroke-linejoin:miter;stroke-opacity:1"
       d="m 2382.6262,1523.8275 -16.1208,-127.3705 46.7058,2.2616 z"
       id="path1278" />
    <path
       style="fill:none;stroke:#ffffff;stroke-width:1px;stroke-linecap:butt;stroke-linejoin:miter;stroke-opacity:1"
       d="m 2300.1543,1538.8586 -41.1174,-129.8854 57.4237,-2.5318 z"
       id="path1280" />
    <path
       style="fill:none;stroke:#ffffff;stroke-width:1px;stroke-linecap:butt;stroke-linejoin:miter;stroke-opacity:1"
       d="m 2209.8753,1578.3635 -51.1366,-163.6658 55.2373,-7.0182 z"
       id="path1282" />
    <path
       style="fill:none;stroke:#ffffff;stroke-width:1px;stroke-linecap:butt;stroke-linejoin:miter;stroke-opacity:1"
       d="m 2146.1811,1608.4523 -84.5049,-147.7051 53.4188,-35.1469 z"
       id="path1284" />
    <path
       style="fill:none;stroke:#ffffff;stroke-width:1px;stroke-linecap:butt;stroke-linejoin:miter;stroke-opacity:1"
       d="m 2105.4262,1656.0324 -137.5818,-135.0088 51.5631,-36.1155 z"
       id="path1286" />
    <path
       style="fill:none;stroke:#ffffff;stroke-width:1px;stroke-linecap:butt;stroke-linejoin:miter;stroke-opacity:1"
       d="m 2047.6346,1704.4514 -145.9304,-84.1383 42.826,-59.5565 z"
       id="path1288" />
    <path
       style="fill:none;stroke:#ffffff;stroke-width:1px;stroke-linecap:butt;stroke-linejoin:miter;stroke-opacity:1"
       d="m 2027.8074,1759.3204 -153.5915,-36.7522 8.5284,-64.7596 z"
       id="path1290" />
    <path
       style="fill:none;stroke:#ffffff;stroke-width:1px;stroke-linecap:butt;stroke-linejoin:miter;stroke-opacity:1"
       d="m 2007.2458,1808.1423 -153.7069,-47.1642 2.1004,50.6283 z"
       id="path1292" />
    <path
       style="fill:none;stroke:#ffffff;stroke-width:1px;stroke-linecap:butt;stroke-linejoin:miter;stroke-opacity:1"
       d="m 2012.4886,1863.505 -161.5834,-17.6424 12.306,54.5377 z"
       id="path1294" />
    <path
       style="fill:none;stroke:#ffffff;stroke-width:1px;stroke-linecap:butt;stroke-linejoin:miter;stroke-opacity:1"
       d="m 2020.0662,1909.5 -163.7694,13.1143 17.7291,53.5947 z"
       id="path1296" />
    <path
       style="fill:none;stroke:#ffffff;stroke-width:1px;stroke-linecap:butt;stroke-linejoin:miter;stroke-opacity:1"
       d="m 2042.5611,1959.9889 -156.8196,45.9826 29.7998,57.635 z"
       id="path1298" />
    <path
       style="fill:none;stroke:#ffffff;stroke-width:1px;stroke-linecap:butt;stroke-linejoin:miter;stroke-opacity:1"
       d="m 2081.8889,1997.2616 -140.5282,99.1827 42.0772,31.1205 z"
       id="path1300" />
    <path
       style="fill:none;stroke:#ffffff;stroke-width:1px;stroke-linecap:butt;stroke-linejoin:miter;stroke-opacity:1"
       d="m 2122.8579,2064.1976 -109.5818,80.356 53.4948,30.8475 z"
       id="path1302" />
    <path
       style="fill:none;stroke:#ffffff;stroke-width:1px;stroke-linecap:butt;stroke-linejoin:miter;stroke-opacity:1"
       d="m 2179.3639,2106.908 -111.6161,95.7346 53.9905,18.6569 z"
       id="path1304" />
    <path
       style="fill:none;stroke:#ffffff;stroke-width:1px;stroke-linecap:butt;stroke-linejoin:miter;stroke-opacity:1"
       d="m 2233.4803,2140.1238 -103.1211,110.0635 47.4352,23.7331 z"
       id="path1306" />
    <path
       style="fill:none;stroke:#ffffff;stroke-width:1px;stroke-linecap:butt;stroke-linejoin:miter;stroke-opacity:1"
       d="m 2292.7762,2156.2075 -83.8118,127.9681 64.3971,11.1084 z"
       id="path1308" />
    <path
       style="fill:none;stroke:#ffffff;stroke-width:1px;stroke-linecap:butt;stroke-linejoin:miter;stroke-opacity:1"
       d="m 2348.5367,2168.6129 -50.8763,139.0599 49.9307,2.7289 z"
       id="path1310" />
    <path
       style="fill:none;stroke:#ffffff;stroke-width:1px;stroke-linecap:butt;stroke-linejoin:miter;stroke-opacity:1"
       d="m 2398.9597,2172.2173 -25.3924,151.0032 56.4796,-2.6011 z"
       id="path1312" />
    <path
       style="fill:none;stroke:#ffffff;stroke-width:1px;stroke-linecap:butt;stroke-linejoin:miter;stroke-opacity:1"
       d="m 2450.4828,2166.3746 14.4933,157.9591 62.8107,-13.5467 z"
       id="path1314" />
    <path
       style="fill:none;stroke:#ffffff;stroke-width:1px;stroke-linecap:butt;stroke-linejoin:miter;stroke-opacity:1"
       d="m 2502.3052,2151.3517 61.6498,150.3213 46.259,-35.3826 z"
       id="path1316" />
    <path
       style="fill:none;stroke:#ffffff;stroke-width:1px;stroke-linecap:butt;stroke-linejoin:miter;stroke-opacity:1"
       d="m 2552.0613,2106.4138 82.1356,140.3776 32.2481,-37.5052 z"
       id="path1318" />
    <path
       style="fill:none;stroke:#ffffff;stroke-width:1px;stroke-linecap:butt;stroke-linejoin:miter;stroke-opacity:1"
       d="m 2602.0178,2055.2169 92.0396,129.2779 26.8873,-40.6007 z"
       id="path1320" />
    <path
       style="fill:none;stroke:#ffffff;stroke-width:1px;stroke-linecap:butt;stroke-linejoin:miter;stroke-opacity:1"
       d="m 2638.5374,2008.135 100.923,101.4366 23.3561,-39.8474 z"
       id="path1322" />
    <path
       style="fill:none;stroke:#ffffff;stroke-width:1px;stroke-linecap:butt;stroke-linejoin:miter;stroke-opacity:1"
       d="m 2694.2657,1898.8989 c -83.9811,-23.5906 -36.7642,40.0172 -4.1295,37.0171 148.5978,150.0051 286.8897,338.7158 572.1475,125.4776 70.5646,-71.1432 88.5277,-200.0945 -51.9493,-143.2618 -133.8973,128.7657 -284.0896,63.6899 -530.9578,-165.648 -128.8793,-51.8928 -255.2307,-81.2177 -364.1695,44.9154 -41.0998,73.6746 -75.5439,157.3655 43.8769,196.7579 l 80.6876,-53.762 c 76.5569,-48.8806 123.9373,46.0651 22.3344,118.6913 -238.5015,78.9719 -275.8175,-70.6854 -314.8691,-189.6167 24.6997,-204.8837 176.39,-262.1634 392.752,-244.2736 145.1265,51.9971 204.2639,-123.0085 240.6902,-357.9694 16.3414,-38.3253 -108.9851,-103.8192 -135.3036,-8.7296 -2.4188,368.784 -26.395,304.0403 -292.8744,300.3733 -128.6281,12.2729 -274.6059,92.1557 -285.0721,300.3748 76.466,229.9867 198.1464,297.8998 348.0068,264.7995 92.022,-41.6342 217.9058,-53.4624 140.8061,-243.9613 -56.3255,-49.3414 -92.7043,-6.4553 -133.0806,17.9472 -46.9995,42.0557 -128.3197,35.0152 -37.2032,-94.7923 139.1176,-89.9269 245.6586,-37.1205 347.0357,38.3115 161.2266,170.7721 317.2239,261.6804 458.8231,132.698 116.4955,-58.2646 90.5223,-6.3787 27.037,74.5098 -181.1118,151.13 -352.4538,29.4217 -524.5882,-149.8587 z"
       id="path1324"
       sodipodi:nodetypes="ccccccccccccccccccccccc" />
  </g>
  <g
     inkscape:groupmode="layer"
     id="layer1"
     inkscape:label="fondo" />
</svg>
