<?xml version="1.0" encoding="UTF-8" standalone="no"?>
<svg
   xmlns:dc="http://purl.org/dc/elements/1.1/"
   xmlns:cc="http://creativecommons.org/ns#"
   xmlns:rdf="http://www.w3.org/1999/02/22-rdf-syntax-ns#"
   xmlns:svg="http://www.w3.org/2000/svg"
   xmlns="http://www.w3.org/2000/svg"
   xmlns:sodipodi="http://sodipodi.sourceforge.net/DTD/sodipodi-0.dtd"
   xmlns:inkscape="http://www.inkscape.org/namespaces/inkscape"
   version="1.1"
   id="svg2"
   width="4339"
   height="4150"
   viewBox="0 0 4339 4150"
   sodipodi:docname="glifos.svg"
   inkscape:version="1.0.2 (e86c870879, 2021-01-15)">
  <metadata
     id="metadata8">
    <rdf:RDF>
      <cc:Work
         rdf:about="">
        <dc:format>image/svg+xml</dc:format>
        <dc:type
           rdf:resource="http://purl.org/dc/dcmitype/StillImage" />
        <dc:title></dc:title>
      </cc:Work>
    </rdf:RDF>
  </metadata>
  <defs
     id="defs6" />
  <sodipodi:namedview
     pagecolor="#ffffff"
     bordercolor="#666666"
     borderopacity="1"
     objecttolerance="10"
     gridtolerance="10"
     guidetolerance="10"
     inkscape:pageopacity="0"
     inkscape:pageshadow="2"
     inkscape:window-width="1920"
     inkscape:window-height="1006"
     id="namedview4"
     showgrid="false"
     inkscape:zoom="0.14144675"
     inkscape:cx="5797.114"
     inkscape:cy="2245.7146"
     inkscape:window-x="0"
     inkscape:window-y="0"
     inkscape:window-maximized="1"
     inkscape:current-layer="g10"
     inkscape:document-rotation="0" />
  <g
     inkscape:groupmode="layer"
     inkscape:label="Image"
     id="g10"
     style="display:inline">
     <defs>
    <path
       style="fill:none;stroke:#ffffff;stroke-width:1.39446px;stroke-linecap:butt;stroke-linejoin:miter;stroke-opacity:1"
       d="m 2900.6786,453.95388 c 19.8942,17.15238 32.5697,21.48873 58.0093,59.73578 11.5542,39.84428 14.4644,74.80251 8.3454,104.65719 -20.8835,67.60894 -40.8181,84.28953 -60.9056,109.16819 -27.166,13.6026 -54.3319,20.27052 -81.4979,24.65179 -43.6744,-3.72295 -80.6574,-11.72564 -106.0313,-27.15304 -40.2315,-36.93033 -54.1105,-67.88815 -61.288,-97.32716 -2.1486,-23.87105 -1.683,-47.17379 3.6025,-69.42874 l 49.0692,-84.41427 c 18.0533,-12.02876 28.8338,-24.13384 68.9457,-35.93114 24.6865,-6.96113 28.9247,-5.96709 40.0107,-8.885 30.5258,2.2174 58.8963,8.4388 81.74,24.9264 z"
       id="glifo1-1"
       sodipodi:nodetypes="cccccccccccc" />
    <path
       style="fill:none;stroke:#ffffff;stroke-width:1.39446px;stroke-linecap:butt;stroke-linejoin:miter;stroke-opacity:1"
       d="m 2783.8828,555.03386 c 14.5039,-9.95536 31.3448,-9.44614 48.7698,-9.87296 37.7846,34.10543 25.0662,49.4841 23.4363,71.67856 -5.9617,7.95068 -16.4069,15.94127 -41.1739,24.05937 -19.9031,-4.80545 -39.6492,-9.83428 -49.868,-28.43707 -0.3915,-20.25326 -9.5775,-37.47273 18.8358,-57.4279 z"
       id="glifo1-2"
       sodipodi:nodetypes="cccccc" />
    <path
       style="fill:none;stroke:#ffffff;stroke-width:1.39446px;stroke-linecap:butt;stroke-linejoin:miter;stroke-opacity:1"
       d="m 2809.375,498.69579 c 33.3984,4.43794 58.8432,17.82346 77.0164,39.38935 20.9227,24.4651 21.5429,51.3217 15.7207,77.25601 0.1226,27.5114 -27.5091,47.54816 -71.1003,64.83784 -28.5031,8.88547 -58.295,2.35698 -90.0058,-27.12136 -26.656,-26.23184 -26.8884,-49.83004 -28.6312,-73.57879 16.1672,-37.40082 40.6284,-69.42845 97.0002,-80.78305 z"
       id="glifo1-3"
       sodipodi:nodetypes="ccccccc" />
    <path
       style="fill:none;stroke:#ffffff;stroke-width:1.39446px;stroke-linecap:butt;stroke-linejoin:miter;stroke-opacity:1"
       d="m 2333.3848,722.70052 c -9.3251,-70.41309 21.8486,-114.40709 69.8943,-147.39462 l 127.8243,-63.79172 -79.8645,-140.54753 c -20.2995,-45.18312 -26.3221,-96.17133 33.6887,-163.41119 l 44.7552,-31.17319 c 67.1164,-47.72964 110.6904,-34.33129 152.8583,-17.28238 l 44.1446,39.86716 119.5271,178.36158 c 21.5246,29.2085 37.4543,17.49148 60.0752,8.57343 l 241.723,-59.5957 c 100.3593,6.93879 127.9347,76.31494 149.3788,112.73819 30.0428,71.16632 17.4932,116.18888 -18.7721,146.65425 -28.6347,29.59569 -85.1831,52.02157 -127.9495,77.98739 l -83.5504,30.64796 97.995,201.86606 c 12.1981,42.06894 -32.2988,78.19731 -68.4226,115.20309 -18.361,19.6533 -47.4626,24.1008 -72.6359,34.1096 -69.2419,8.0515 -127.8742,6.0899 -149.4092,-30.8825 -30.5555,-42.67807 -60.9447,-84.82928 -82.0819,-124.61311 -17.5708,-20.49195 -23.7755,-38.965 -33.0529,-57.75152 -6.7272,-17.74931 -11.1954,-42.16808 -43.833,-15.88658 -24.5812,2.9755 -73.7328,28.00394 -103.9772,38.22774 l -63.0663,8.68947 c -44.2645,7.51506 -88.5249,15.13958 -134.94,-33.19274 -24.4044,-18.56788 -38.2476,-35.1054 -50.6087,-51.35804 -12.6254,-17.55311 -26.4431,-34.61245 -29.7003,-56.0451 z"
       id="glifo1-4"
       sodipodi:nodetypes="ccccccccccccccccccccccccccc" />
    <path
       style="fill:none;stroke:#ffffff;stroke-width:1.39446px;stroke-linecap:butt;stroke-linejoin:miter;stroke-opacity:1"
       d="m 2552.9023,233.02903 c 49.0839,-42.24519 82.0499,-30.30801 133.7283,0.15828 13.2095,14.0617 22.5003,18.1715 40.7589,45.05515 l 81.8318,127.88877 c 25.0591,28.18565 55.7499,34.58033 88.8764,31.55151 l 188.7575,-51.10402 c 72.0251,-16.64127 124.3697,-3.91422 143.4885,58.39448 24.5184,50.94943 15.9303,96.05094 -33.7037,133.90204 l -147.7204,69.95832 -50.8797,22.25271 40.8717,80.66236 48.7947,106.97044 c 24.9487,56.59578 19.5505,102.30526 -46.7639,126.16203 -44.696,16.7223 -85.7164,57.8351 -147.2335,-37.06878 l -87.8527,-150.95816 c -27.974,-50.31623 -48.7791,-71.25539 -122.5607,-30.37495 l -109.1323,36.73971 c -52.5058,18.7041 -101.7083,21.26379 -139.1765,-33.53049 -60.3678,-65.14609 -36.7843,-111.51267 1.3934,-154.61455 l 68.8101,-38.63866 115.6698,-51.86307 -92.9526,-129.64106 c -43.6923,-56.54201 -52.3417,-106.91039 24.9949,-161.90206 z"
       id="glifo1-5"
       sodipodi:nodetypes="ccccccccccccccccccccccc" />
    <path
       style="fill:none;stroke:#ffffff;stroke-width:1.39446px;stroke-linecap:butt;stroke-linejoin:miter;stroke-opacity:1"
       d="m 2450.1889,651.65042 c -23.4372,54.51438 0.8704,82.00934 45.1378,98.20885 23.3689,3.40027 37.1296,2.21078 48.2891,-0.22116 l 83.7152,-37.64877 c 15.4011,-13.2781 34.6042,-55.41283 -25.1669,-26.26824 l -56.7672,22.67359 c -26.8932,7.80831 -70.9078,-2.45872 -30.7506,-50.03731 l 69.9005,-43.22045 c 15.3055,-5.41461 38.0691,-42.92662 -11.9832,-25.46426 l -26.1506,12.38931 c -71.2928,32.06936 -87.3792,42.26363 -96.2241,49.58844 z"
       id="glifo1-6"
       sodipodi:nodetypes="ccccccccccc" />
    <path
       style="fill:none;stroke:#ffffff;stroke-width:1.39446px;stroke-linecap:butt;stroke-linejoin:miter;stroke-opacity:1"
       d="m 2877.5758,835.28786 c 19.9992,42.46929 41.4884,73.82637 63.9009,98.29839 62.8399,47.81832 94.9084,-0.21167 100.2278,-47.2145 L 2982.43,767.32801 c -7.8493,-10.43631 -12.3706,-21.90496 -17.6276,-26.88195 -29.2909,-27.7302 -34.3909,24.02624 -12.7153,47.47836 l 41.5191,74.51257 c 18.6036,48.26232 -16.068,54.93624 -42.0008,21.73567 l -46.028,-70.46513 c -49.7046,-50.64378 -59.9564,-21.22503 -28.0016,21.58033 z"
       id="glifo1-7"
       sodipodi:nodetypes="ccccsccccc" />
    <path
       style="fill:none;stroke:#ffffff;stroke-width:1.39446px;stroke-linecap:butt;stroke-linejoin:miter;stroke-opacity:1"
       d="m 3051.1723,554.37473 80.3395,-37.28778 c 36.7161,-32.19273 16.3716,-55.69846 -27.7337,-47.97114 l -80.2273,32.37098 c -39.8631,16.24187 -51.5446,-12.98117 -11.0456,-30.15166 45.2562,-12.69268 92.3945,-44.30978 135.4072,-34.44807 47.9934,14.9339 43.0178,39.95616 41.2141,64.37429 -4.3678,17.03125 -7.6516,33.98373 -36.5774,52.79905 l -88.1225,40.0176 c -45.8945,19.71116 -89.8828,-15.0618 -13.2543,-39.70327 z"
       id="glifo1-8"
       sodipodi:nodetypes="cccccccccc" />
    <path
       style="fill:none;stroke:#ffffff;stroke-width:1.39446px;stroke-linecap:butt;stroke-linejoin:miter;stroke-opacity:1"
       d="m 2644.6419,426.67655 -44.4315,-57.10879 c -24.0542,-30.95487 -1.0267,-79.70425 47.9382,-35.51856 l 56.3905,61.41286 c 31.0827,28.95489 60.8136,11.70824 23.1833,-28.78304 l -61.0211,-76.86599 c -36.7484,-29.07195 -66.6715,-30.14973 -90.0858,-4.53198 -30.3324,32.04227 -32.0346,60.78271 -10.8594,86.88476 l 55.4957,78.04604 c 24.0414,29.38566 58.1989,17.27711 23.3901,-23.5353 z"
       id="glifo1-9"
       sodipodi:nodetypes="cccccccccc" />
    <path
       style="fill:none;stroke:#ffffff;stroke-width:1.39446px;stroke-linecap:butt;stroke-linejoin:miter;stroke-opacity:1"
       d="m 2879.6593,291.1619 c 1.7558,-13.51077 4.5447,-26.31451 24.4157,-27.42781 10.6429,-1.17061 18.3037,7.1338 24.2725,20.81385 -0.1213,13.61812 -1.6649,26.45384 -23.8606,27.93777 -14.3885,1.85609 -22.7631,-5.10707 -24.8276,-21.32381 z"
       id="glifo1-10"
       sodipodi:nodetypes="ccccc" />
    <path
       style="fill:none;stroke:#ffffff;stroke-width:1.39446px;stroke-linecap:butt;stroke-linejoin:miter;stroke-opacity:1"
       d="m 2909.1843,221.56093 c -58.8071,4.59866 -70.6367,38.81053 -68.3091,81.9465 8.7219,50.16054 37.215,57.02344 69.7404,55.05625 41.3598,-8.3258 61.2023,-33.10333 62.8639,-71.78156 -6.505,-40.64011 -28.8736,-61.19425 -64.2952,-65.22119 z"
       id="glifo1-11"
       sodipodi:nodetypes="ccccc" />
    <path
       style="fill:none;stroke:#ffffff;stroke-width:1.39446px;stroke-linecap:butt;stroke-linejoin:miter;stroke-opacity:1"
       d="m 2376.4685,263.5823 c -21.562,3.39369 -27.6625,19.19258 -29.4117,38.48253 8.5117,17.52473 21.5023,20.87259 35.3533,21.49719 8.8128,-7.17615 18.5107,-11.31271 22.7707,-34.12689 -0.4585,-13.31929 -11.5187,-21.16846 -28.7123,-25.85283 z"
       id="glifo1-12"
       sodipodi:nodetypes="ccccc" />
    <path
       style="fill:none;stroke:#ffffff;stroke-width:1.39446px;stroke-linecap:butt;stroke-linejoin:miter;stroke-opacity:1"
       d="m 2398.8384,422.47401 c -23.3397,5.08355 -25.896,19.0769 -27.9899,33.26841 5.041,19.03307 19.205,18.27289 32.0111,20.45869 8.9789,-0.91695 16.7182,-7.32279 21.6947,-25.96039 1.3116,-20.69923 -13.9031,-22.26347 -25.7159,-27.76671 z"
       id="glifo1-13"
       sodipodi:nodetypes="ccccc" />
    <path
       style="fill:none;stroke:#ffffff;stroke-width:1.39446px;stroke-linecap:butt;stroke-linejoin:miter;stroke-opacity:1"
       d="m 2396.163,387.18309 c 34.8665,0.69639 60.6094,18.48381 71.9976,63.16217 -3.2345,32.6837 -21.4755,58.10289 -63.8636,71.83257 -33.6956,-1.54318 -67.384,-3.10291 -78.5165,-56.59473 1.6576,-34.77743 6.4794,-78.52248 70.3825,-78.40001 z"
       id="glifo1-14"
       sodipodi:nodetypes="ccccc" />
    <path
       style="fill:none;stroke:#ffffff;stroke-width:1.39446px;stroke-linecap:butt;stroke-linejoin:miter;stroke-opacity:1"
       d="m 2722.7595,883.21063 c -26.1797,-0.98003 -33.9581,10.72037 -31.6541,29.36884 14.0152,18.8985 24.4524,13.9402 35.8193,15.18169 11.4745,-4.76685 15.3848,-12.64892 11.8812,-23.5839 -4.111,-13.67233 -10.2727,-16.27175 -16.0464,-20.96663 z"
       id="glifo1-15"
       sodipodi:nodetypes="ccccc" />
    <path
       style="fill:none;stroke:#ffffff;stroke-width:1.39446px;stroke-linecap:butt;stroke-linejoin:miter;stroke-opacity:1"
       d="m 2724.7901,844.45271 c -65.6458,12.03954 -72.2301,39.87057 -81.8207,66.89782 10.8668,40.46209 32.5264,51.94245 55.9099,58.79319 35.7011,-0.54301 78.5156,8.57554 85.4434,-31.0471 z"
       id="glifo1-16"
       sodipodi:nodetypes="ccccc" />
    <path
       style="fill:none;stroke:#ffffff;stroke-width:1.39446px;stroke-linecap:butt;stroke-linejoin:miter;stroke-opacity:1"
       d="m 2399.1583,205.96247 c -13.7,-6.31131 -30.258,-10.78914 -30.7181,-25.59382 -5.5161,-26.09459 7.7405,-33.72216 29.8487,-32.6421 14.4093,-9.79119 24.0558,2.4886 31.5826,24.59057 6.8763,22.92889 -5.0716,32.97339 -30.7132,33.64535 z"
       id="glifo1-17"
       sodipodi:nodetypes="ccccc" />
    <path
       style="fill:none;stroke:#ffffff;stroke-width:1.39446px;stroke-linecap:butt;stroke-linejoin:miter;stroke-opacity:1"
       d="m 2238.0576,176.95695 c 22.7225,-103.924401 87.566,-44.23946 82.5517,0.7627 l -26.5483,593.24723 c -29.3432,62.77104 -61.2329,38.69753 -69.9203,0 z"
       id="glifo1-18"
       sodipodi:nodetypes="ccccc" />
    <path
       style="fill:none;stroke:#ffffff;stroke-width:1.39446px;stroke-linecap:butt;stroke-linejoin:miter;stroke-opacity:1"
       d="m 3258.831,734.64202 c -17.2262,5.48764 -29.1388,16.02311 -27.8055,39.14154 1.4104,21.04555 14.9315,21.45622 28.3952,21.96492 12.5689,-2.60709 19.2578,-15.67881 26.0447,-28.57608 -3.5775,-11.86272 4.2727,-25.92285 -26.6344,-32.53038 z"
       id="glifo1-19"
       sodipodi:nodetypes="ccccc" />
    <path
       style="fill:none;stroke:#ffffff;stroke-width:1.39446px;stroke-linecap:butt;stroke-linejoin:miter;stroke-opacity:1"
       d="m 3256.259,686.91644 c -53.3921,6.95795 -70.7234,40.86118 -73.1165,85.92655 5.0855,68.73196 41.1957,63.80754 73.4311,68.08186 39.8159,-19.17181 72.0961,-42.75809 72.7022,-84.89842 -3.3954,-43.63158 -32.6388,-61.84552 -73.0168,-69.10999 z"
       id="glifo1-20"
       sodipodi:nodetypes="ccccc" />
    <path
       style="fill:none;stroke:#ffffff;stroke-width:1.39446px;stroke-linecap:butt;stroke-linejoin:miter;stroke-opacity:1"
       d="m 3361.666,650.18867 c -24.0018,2.94391 -30.4574,17.36742 -31.1261,35.57705 10.5823,21.71294 20.4406,19.79681 30.3151,18.41086 10.5187,-5.29982 22.3333,-6.23383 27.772,-28.64902 -4.0918,-10.64364 -3.9213,-23.20071 -26.961,-25.33889 z"
       id="glifo1-21"
       sodipodi:nodetypes="ccccc" />
    <path
       style="fill:none;stroke:#ffffff;stroke-width:1.39446px;stroke-linecap:butt;stroke-linejoin:miter;stroke-opacity:1"
       d="m 3432.6543,569.30491 -32.4564,40.29099 32.2956,20.76654 29.8584,-30.73949 z"
       id="glifo1-22" />
    <path
       style="fill:none;stroke:#ffffff;stroke-width:1.39446px;stroke-linecap:butt;stroke-linejoin:miter;stroke-opacity:1"
       d="m 3519.0795,646.13397 c 69.9838,-18.1745 49.036,48.71962 49.036,48.71962 l -447.8146,427.51291 c -25.47,31.9051 -133.1273,27.4907 -56.3891,-54.3006 z"
       id="glifo1-23"
       sodipodi:nodetypes="ccccc" />
       </defs>


 <text font-size="1.5em" fill="white">
      <textPath href="#glifo1-6"> Temazcal (maraca soloist and electronic sounds)</textPath>
      <textPath href="#glifo1-7"> Temazcal (maraca soloist and electronic sounds)</textPath>
      <textPath href="#glifo1-8"> Temazcal (maraca soloist and electronic sounds)</textPath>
      <textPath href="#glifo1-3"> 1984. London, Institute of Contemporary Arts. Work by Javier Alvarez. Original performance by Julio Toro</textPath>
      <textPath href="#glifo1-4"> 1984. London, Institute of Contemporary Arts. Work by Javier Alvarez. Original performance by Julio Toro</textPath>
      <textPath href="#glifo1-5"> 1984. London, Institute of Contemporary Arts. Work by Javier Alvarez. Original performance by Julio Toro</textPath>
      <textPath href="#glifo1-9"> Winning an honourary mention in the Concours International de Composition de Bourges (France) in 1988,</textPath>
      <textPath href="#glifo1-10"> Winning an honourary mention in the Concours International de Composition de Bourges (France) in 1988,</textPath>
      <textPath href="#glifo1-11"> Winning an honourary mention in the Concours International de Composition de Bourges (France) in 1988,</textPath>
      <textPath href="#glifo1-12"> Winning an honourary mention in the Concours International de Composition de Bourges (France) in 1988,</textPath>
      <textPath href="#glifo1-13"> Winning an honourary mention in the Concours International de Composition de Bourges (France) in 1988,</textPath>
      <textPath href="#glifo1-1"> it has become an iconic work for the electroacoustic music tradition.</textPath>
      <textPath href="#glifo1-2"> it has become an iconic work for the electroacoustic music tradition.</textPath>
      <textPath href="#glifo1-14"> it has become an iconic work for the electroacoustic music tradition.</textPath>
      <textPath href="#glifo1-15"> it has become an iconic work for the electroacoustic music tradition.</textPath>
      <textPath href="#glifo1-16"> it has become an iconic work for the electroacoustic music tradition.</textPath>
      <textPath href="#glifo1-20"> Performed regularly, the work is perhaps one of the most well known pieces of music for instrumentalist and electronic sounds ever made by a Mexican composer</textPath>
      <textPath href="#glifo1-21"> Performed regularly, the work is perhaps one of the most well known pieces of music for instrumentalist and electronic sounds ever made by a Mexican composer</textPath>
      <textPath href="#glifo1-22"> Performed regularly, the work is perhaps one of the most well known pieces of music for instrumentalist and electronic sounds ever made by a Mexican composer</textPath>
      <textPath href="#glifo1-23"> Performed regularly, the work is perhaps one of the most well known pieces of music for instrumentalist and electronic sounds ever made by a Mexican composer</textPath>
      <textPath href="#glifo1-17"> Temazcal (maraca soloist and electronic sounds)</textPath>
      <textPath href="#glifo1-18"> Temazcal (maraca soloist and electronic sounds)</textPath>
      <textPath href="#glifo1-19"> Temazcal (maraca soloist and electronic sounds)</textPath>
   </text>


  </g>
</svg>
