<?xml version="1.0" encoding="UTF-8" standalone="no"?>
<svg
   xmlns:dc="http://purl.org/dc/elements/1.1/"
   xmlns:cc="http://creativecommons.org/ns#"
   xmlns:rdf="http://www.w3.org/1999/02/22-rdf-syntax-ns#"
   xmlns:svg="http://www.w3.org/2000/svg"
   xmlns="http://www.w3.org/2000/svg"
   xmlns:sodipodi="http://sodipodi.sourceforge.net/DTD/sodipodi-0.dtd"
   xmlns:inkscape="http://www.inkscape.org/namespaces/inkscape"
   version="1.1"
   id="svg2"
   width="4339"
   height="4150"
   viewBox="0 0 4339 4150"
   sodipodi:docname="glifos.svg"
   inkscape:version="1.0.2 (e86c870879, 2021-01-15)">
  <metadata
     id="metadata8">
    <rdf:RDF>
      <cc:Work
         rdf:about="">
        <dc:format>image/svg+xml</dc:format>
        <dc:type
           rdf:resource="http://purl.org/dc/dcmitype/StillImage" />
        <dc:title></dc:title>
      </cc:Work>
    </rdf:RDF>
  </metadata>
  <defs
     id="defs6" />
  <sodipodi:namedview
     pagecolor="#ffffff"
     bordercolor="#666666"
     borderopacity="1"
     objecttolerance="10"
     gridtolerance="10"
     guidetolerance="10"
     inkscape:pageopacity="0"
     inkscape:pageshadow="2"
     inkscape:window-width="1920"
     inkscape:window-height="1006"
     id="namedview4"
     showgrid="false"
     inkscape:zoom="0.14144675"
     inkscape:cx="5797.114"
     inkscape:cy="2245.7146"
     inkscape:window-x="0"
     inkscape:window-y="0"
     inkscape:window-maximized="1"
     inkscape:current-layer="g10"
     inkscape:document-rotation="0" />
  <g
     inkscape:groupmode="layer"
     inkscape:label="Image"
     id="g10"
     style="display:inline">
     <defs>
    <path
       style="fill:none;stroke:#ffffff;stroke-width:1.39446px;stroke-linecap:butt;stroke-linejoin:miter;stroke-opacity:1"
       d="m 3759.8472,1393.1335 c -28.6196,1.354 -31.3236,22.1476 -33.7758,43.1302 5.6946,12.3672 17.4192,14.7716 42.3621,14.8138 13.244,-5.2404 19.623,-17.1932 23.8168,-31.2826 -4.3695,-11.0432 -10.2105,-23.7406 -32.4031,-26.6614 z"
       id="glifo2-1"
       sodipodi:nodetypes="ccccc" />
    <path
       style="fill:none;stroke:#ffffff;stroke-width:1.39446px;stroke-linecap:butt;stroke-linejoin:miter;stroke-opacity:1"
       d="m 3766.9791,1357.4191 c -55.2789,3.8417 -68.1264,35.2157 -71.8685,72.4983 7.4791,35.1789 27.2213,56.2048 62.0097,59.8649 38.5351,-8.5479 53.0287,-29.5639 58.4759,-55.2717 2.1532,-34.4083 2.386,-67.9055 -48.6171,-77.0915 z"
       id="glifo2-2"
       sodipodi:nodetypes="ccccc" />
    <path
       style="fill:none;stroke:#ffffff;stroke-width:1.39446px;stroke-linecap:butt;stroke-linejoin:miter;stroke-opacity:1"
       d="m 3764.4752,1310.291 c -135.2201,37.2866 -100.0013,74.971 -114.8228,112.5386 10.285,135.7662 68.3511,74.2559 103.7432,106.3609 113.3994,-37.5098 84.0832,-85.7653 100.4335,-120.2465 -8.1753,-27.2593 -10.8564,-49.8674 -26.5736,-70.7708 -9.1128,-12.1201 -26.4536,-22.1197 -62.7803,-27.8822 z"
       id="glifo2-3"
       sodipodi:nodetypes="ccccsc" />
    <path
       style="fill:none;stroke:#ffffff;stroke-width:1.39446px;stroke-linecap:butt;stroke-linejoin:miter;stroke-opacity:1"
       d="m 3740.0481,1263.9516 c -158.8609,51.9068 -121.6341,113.6645 -155.4672,171.8523 28.9887,125.2479 105.5195,128.9888 175.046,150.6315 54.5209,-28.6002 112.7168,-51.1605 128.2654,-143.8113 -1.7467,-40.2433 -5.6736,-80.0679 -34.4248,-115.1241 -23.7209,-37.7783 -62.0185,-58.3825 -113.4194,-63.5484 z"
       id="glifo2-4"
       sodipodi:nodetypes="cccccc" />
    <path
       style="fill:none;stroke:#ffffff;stroke-width:1.39446px;stroke-linecap:butt;stroke-linejoin:miter;stroke-opacity:1"
       d="m 3712.7255,1221.5135 c -173.3534,47.5428 -156.0079,114.4463 -173.5823,180.8944 -3.3069,12.5028 -0.2441,24.0285 -4.0033,37.1757 5.1177,116.7947 81.9785,195.0398 221.678,201.81 192.6076,-62.553 172.9525,-146.3172 175.233,-227.8895 -10.3931,-59.624 -15.6064,-121.1974 -84.5068,-158.8015 -35.043,-17.3306 -60.4765,-40.7464 -134.8186,-33.1891 z"
       id="glifo2-5"
       sodipodi:nodetypes="csccccc" />
    <path
       style="fill:none;stroke:#ffffff;stroke-width:1.39446px;stroke-linecap:butt;stroke-linejoin:miter;stroke-opacity:1"
       d="m 3660.5726,1169.9491 c 3.9099,5.2332 7.1817,14.5813 10.3412,17.7575 13.3201,13.391 29.4572,5.3128 30.3708,-19.0815 l -4.7281,-57.7504 c 4.8478,-6.6968 3.6799,-13.558 7.6908,-17.983 26.775,-29.5393 60.4021,-9.861 58.3462,12.4229 l -2.1593,60.509 c 1.5721,32.0446 37.374,25.7708 31.9479,-2.6587 l 2.8241,-81.5335 c 1.2171,-22.9871 -13.8764,-35.9771 -47.9227,-37.3508 -23.9195,-1.2296 -47.8389,-4.9463 -71.7583,7.9736 -26.6312,2.2781 -40.7362,23.7219 -25.5793,55.1709 z"
       id="glifo2-6"
       sodipodi:nodetypes="csccscccccccc" />
    <path
       style="fill:none;stroke:#ffffff;stroke-width:1.39446px;stroke-linecap:butt;stroke-linejoin:miter;stroke-opacity:1"
       d="m 3848.3101,1134.1701 c 1.4556,-49.0731 14.784,-65.7765 43.6948,-39.9979 13.8578,8.7433 34.2614,17.4865 32.558,26.2298 22.776,12.8751 -2.2289,31.8891 -12.5685,49.0188 l -19.7251,26.1983 c -26.7226,27.7452 11.0194,34.195 26.5445,19.1325 24.8276,-21.0726 47.3147,-42.1449 60.9528,-63.2172 12.5078,-27.4008 5.3235,-49.8077 -25.5062,-66.218 -22.8797,-14.8921 -41.4026,-33.3816 -79.4666,-35.7358 -32.4963,-8.7316 -52.7546,4.0719 -52.9214,40.6323 l -4.3183,75.9999 c 1.1707,37.516 33.6973,21.758 32.3679,0 z"
       id="glifo2-7"
       sodipodi:nodetypes="ccccccccccccc" />
    <path
       style="fill:none;stroke:#ffffff;stroke-width:1.39446px;stroke-linecap:butt;stroke-linejoin:miter;stroke-opacity:1"
       d="m 3918.5308,1249.7715 c -17.177,41.761 13.9299,32.6197 27.35,19.178 l 25.779,-25.0759 c 18.9701,-11.5785 33.6432,-10.7056 42.4519,7.1617 6.9101,16.1998 3.9312,29.1833 -8.6889,39.0314 l -41.6908,25.3036 c -39.1511,25.1398 -13.5259,48.3857 18.5743,33.5806 l 63.3707,-30.1227 c 15.3122,-9.969 29.0253,-25.1852 17.4486,-60.6263 l -21.6492,-52.8296 c -22.9049,-36.3262 -43.1164,-17.0241 -58.479,-11.8134 -24.1593,13.6395 -44.4608,34.6437 -64.4666,56.2126 z"
       id="glifo2-8"
       sodipodi:nodetypes="cccccccccccc" />
    <path
       style="fill:none;stroke:#ffffff;stroke-width:1.39446px;stroke-linecap:butt;stroke-linejoin:miter;stroke-opacity:1"
       d="m 3981.3785,1378.8448 c 32.984,-11.5938 60.6134,-17.8262 88.1722,-20.0027 24.1384,-7.0552 37.5258,10.6069 38.7873,47.3845 l 1.5799,25.4121 c 6.2134,51.8464 -19.2862,56.4408 -45.7601,59.5833 l -62.2177,-7.0297 c -31.0594,-2.1217 -51.1185,-26.3816 -6.5789,-33.5666 l 43.2143,0.5416 c 26.5211,-0.8361 46.6805,-5.3122 31.1992,-30.1809 -3.0604,-19.5758 -10.8673,-33.4182 -39.0822,-22.6071 l -44.8926,4.7826 c -40.1384,6.6652 -26.7719,-25.175 -4.4214,-24.3171 z"
       id="glifo2-9"
       sodipodi:nodetypes="cccccccccccc" />
    <path
       style="fill:none;stroke:#ffffff;stroke-width:1.39446px;stroke-linecap:butt;stroke-linejoin:miter;stroke-opacity:1"
       d="m 3991.4232,1516.0993 82.3575,8.9777 c 15.2531,5.6928 34.4748,6.4025 26.2298,41.6018 l -18.3825,66.3579 c -17.0735,29.4493 -37.0792,32.0321 -58.7679,19.1939 l -47.2923,-29.0139 c -40.8416,-10.0051 -58.0705,-55.7618 4.2898,-38.8346 l 41.9716,20.554 c 10.8537,0.5318 23.1721,7.0612 27.6936,-18.3365 -0.1353,-13.9115 -5.6503,-25.5362 -31.2113,-28.6424 l -31.4141,-6.3178 c -27.6209,5.8983 -31.5812,-42.79 4.5258,-35.5401 z"
       id="glifo2-10"
       sodipodi:nodetypes="cccccccccccc" />
    <path
       style="fill:none;stroke:#ffffff;stroke-width:1.39446px;stroke-linecap:butt;stroke-linejoin:miter;stroke-opacity:1"
       d="m 3922.0309,1657.3064 29.6146,25.2139 c 19.0649,17.7222 8.5718,29.5948 0.9283,38.1973 -18.8414,25.6082 -28.8642,29.2006 -47.7535,0.2935 l -18.9886,-32.4857 c -27.2301,-43.0511 -45.8445,-7.2924 -27.1227,15.1698 l 35.762,69.4856 c 15.5481,34.5307 43.1776,13.0885 68.8372,0.7736 l 48.8942,-53.7891 c 13.7048,-12.1268 27.0081,-24.3802 -16.9679,-54.7152 l -51.3675,-31.9594 c -39.6507,-22.2965 -51.2447,1.5825 -21.8361,23.8157 z"
       id="glifo2-11"
       sodipodi:nodetypes="cccccccccccc" />
    <path
       style="fill:none;stroke:#ffffff;stroke-width:1.39446px;stroke-linecap:butt;stroke-linejoin:miter;stroke-opacity:1"
       d="m 3801.8456,1714.5154 c -13.7327,-62.8536 37.2157,-33.044 37.9575,-5.1787 l 23.8201,63.9944 c 7.7587,23.4989 0.5522,40.83 -24.7828,48.7361 l -68.9608,10.1197 c -26.0053,3.215 -45.4234,-6.2272 -49.2083,-45.707 l 6.392,-68.9047 c -2.7556,-41.0211 29.1918,-48.1845 29.2504,-5.2394 l 7.5389,40.5581 c 3.8961,21.6503 8.2874,42.4042 30.7837,30.4001 19.4557,-0.8802 20.9315,-15.3406 15.5837,-34.9549 z"
       id="glifo2-12"
       sodipodi:nodetypes="cccccccccccc" />
    <path
       style="fill:none;stroke:#ffffff;stroke-width:1.39446px;stroke-linecap:butt;stroke-linejoin:miter;stroke-opacity:1"
       d="m 3608.2288,1687.156 c 30.3635,-49.4297 46.8809,-20.6869 24.393,11.4267 l -17.6194,38.0199 c -10.9122,39.3833 35.2443,42.2798 41.7115,15.8657 l 14.7899,-44.2324 c 16.6633,-37.0865 38.4995,-40.5791 35.9036,6.9649 l -12.443,71.6311 c -12.8754,23.5001 -33.416,29.646 -60.1931,21.6719 L 3595.78,1783.718 c -37.0412,-15.0455 -17.2006,-37.4764 -9.9419,-58.2735 z"
       id="glifo2-13"
       sodipodi:nodetypes="ccccccccccc" />
    <path
       style="fill:none;stroke:#ffffff;stroke-width:1.39446px;stroke-linecap:butt;stroke-linejoin:miter;stroke-opacity:1"
       d="m 3491.0404,1652.181 c -34.5895,35.0108 12.7147,53.1798 35.816,26.6152 l 30.21,-38.4423 c 31.1416,-29.4207 54.7194,4.3761 35.0278,30.4281 l -51.1302,72.0012 c -24.3759,42.2871 -50.6755,20.7951 -82.7675,-21.7374 -25.0272,-27.2753 -45.1021,-54.6493 -11.1916,-83.0972 l 54.7638,-48.621 c 32.814,-34.0708 45.1461,3.5453 23.793,21.5433 z"
       id="glifo2-14"
       sodipodi:nodetypes="cccccccccc" />
    <path
       style="fill:none;stroke:#ffffff;stroke-width:1.39446px;stroke-linecap:butt;stroke-linejoin:miter;stroke-opacity:1"
       d="m 4099.8129,1771.6798 c -11.4389,0.3768 -19.0188,8.86 -22.5544,25.8387 1.883,12.1454 4.7412,23.585 25.106,22.3486 13.5168,-2.3051 23.115,-8.95 22.3454,-27.0776 -8.4691,-19.7639 -16.6985,-21.5878 -24.897,-21.1097 z"
       id="glifo2-15"
       sodipodi:nodetypes="ccccc" />
    <path
       style="fill:none;stroke:#ffffff;stroke-width:1.39446px;stroke-linecap:butt;stroke-linejoin:miter;stroke-opacity:1"
       d="m 4097.9488,1730.8696 c -49.5968,12.8793 -53.4869,42.9821 -61.8454,71.4012 1.3084,53.6907 35.5314,56.3311 66.1985,64.4864 36.8806,-10.2884 66.0591,-25.9144 59.4983,-66.3062 0.1005,-47.3339 -21.896,-69.7232 -63.8514,-69.5814 z"
       id="glifo2-16"
       sodipodi:nodetypes="ccccc" />
    <path
       style="fill:none;stroke:#ffffff;stroke-width:1.39446px;stroke-linecap:butt;stroke-linejoin:miter;stroke-opacity:1"
       d="m 4094.7999,1691.2415 c -60.4639,11.8342 -89.3286,55.9047 -99.1644,119.3878 14.5073,83.1427 58.1777,93.9636 106.7145,92.7159 78.6852,-14.2899 104.7477,-58.0379 101.9899,-117.9196 -14.4532,-105.2773 -61.8725,-100.1462 -109.54,-94.1841 z"
       id="glifo2-17"
       sodipodi:nodetypes="ccccc" />
    <path
       style="fill:none;stroke:#ffffff;stroke-width:1.39446px;stroke-linecap:butt;stroke-linejoin:miter;stroke-opacity:1"
       d="m 3553.9708,1848.9431 c -12.6602,-1.9292 -18.5323,7.5378 -21.7684,21.4305 0.1798,9.8625 3.6598,18.2364 16.8736,22.2206 12.4029,-2.6501 20.1136,-9.4688 22.8513,-20.7059 0.8544,-10.7575 -2.9534,-19.396 -17.9565,-22.9452 z"
       id="glifo2-18"
       sodipodi:nodetypes="ccccc" />
    <path
       style="fill:none;stroke:#ffffff;stroke-width:1.39446px;stroke-linecap:butt;stroke-linejoin:miter;stroke-opacity:1"
       d="m 3555.0657,1807.0236 c -36.0871,10.1963 -47.4512,40.7147 -53.1086,75.9238 2.6866,36.2289 28.4139,41.4533 52.6827,48.6404 39.2818,-12.7865 60.5813,-31.5432 54.421,-59.4163 2.5154,-38.6867 -19.6157,-56.9837 -53.9951,-65.1479 z"
       id="glifo2-19"
       sodipodi:nodetypes="ccccc" />
    <path
       style="fill:none;stroke:#ffffff;stroke-width:1.39446px;stroke-linecap:butt;stroke-linejoin:miter;stroke-opacity:1"
       d="m 3552.4108,1779.8355 c -59.2963,-1.1855 -78.1711,43.0179 -81.9366,104.1874 7.5797,49.193 28.0553,83.2463 81.8364,78.2 62.1772,-4.9683 94.4399,-33.5904 95.5001,-86.8848 -8.7674,-75.005 -50.9975,-87.2896 -95.3999,-95.5026 z"
       id="glifo2-20"
       sodipodi:nodetypes="ccccc" />
    <path
       style="fill:none;stroke:#ffffff;stroke-width:1.39446px;stroke-linecap:butt;stroke-linejoin:miter;stroke-opacity:1"
       d="m 3714.2552,1852.8983 c -17.9134,3.5124 -28.1768,14.5626 -29.493,34.4286 3.5663,15.1703 10.1936,26.3704 24.742,27.2965 15.2236,-5.6537 29.6595,-11.9895 27.998,-32.2602 -0.4663,-14.411 -3.0076,-27.5141 -23.247,-29.4649 z"
       id="glifo2-21"
       sodipodi:nodetypes="ccccc" />
    <path
       style="fill:none;stroke:#ffffff;stroke-width:1.39446px;stroke-linecap:butt;stroke-linejoin:miter;stroke-opacity:1"
       d="m 3811.5238,1862.6425 c -14.1208,-1.1693 -26.4118,4.5568 -33.1814,31.0903 0.199,15.8185 8.6355,22.9094 20.5444,26.3214 21.912,-4.0661 29.6649,-15.4583 29.9311,-30.7247 2.5515,-16.4461 -6.3536,-22.4907 -17.2941,-26.687 z"
       id="glifo2-22"
       sodipodi:nodetypes="ccccc" />
    <path
       style="fill:none;stroke:#ffffff;stroke-width:1.39446px;stroke-linecap:butt;stroke-linejoin:miter;stroke-opacity:1"
       d="m 3886.1544,1848.5109 c -18.1537,8.6204 -23.5136,20.9823 -23.7388,34.846 -0.749,15.8044 14.0304,20.6256 26.9285,26.7774 17.4278,-6.1782 18.9611,-19.0825 19.7031,-32.3215 2.8606,-13.4465 -5.6571,-22.9028 -22.8928,-29.3019 z"
       id="glifo2-23"
       sodipodi:nodetypes="ccccc" />
    <path
       style="fill:none;stroke:#ffffff;stroke-width:1.39446px;stroke-linecap:butt;stroke-linejoin:miter;stroke-opacity:1"
       d="m 3964.6953,1845.5546 c -25.0709,1.1608 -29.1255,15.5962 -30.8361,31.5121 4.8716,18.334 15.3178,20.7939 25.9892,22.6129 21.6333,-0.5176 30.4964,-12.2151 29.801,-32.2806 -3.4434,-12.2834 -9.7333,-21.6461 -24.9541,-21.8444 z"
       id="glifo2-24"
       sodipodi:nodetypes="ccccc" />
    <path
       style="fill:none;stroke:#ffffff;stroke-width:1.39446px;stroke-linecap:butt;stroke-linejoin:miter;stroke-opacity:1"
       d="m 3587.8103,1986.2916 c -131.7622,-7.3002 -108.1347,90.2528 1.809,79.6337 l 577.0885,0.9421 c 112.1298,-6.5692 87.0976,-100.6992 -3.0131,-91.2472 -177.6733,7.4335 -361.8855,13.0931 -575.8844,10.6714 z"
       id="glifo2-25"
       sodipodi:nodetypes="ccccc" />
    <path
       style="fill:none;stroke:#ffffff;stroke-width:1.39446px;stroke-linecap:butt;stroke-linejoin:miter;stroke-opacity:1"
       d="m 3370.5802,1494.3292 c -8.9169,-49.617 17.5077,-50.1353 43.9688,-50.6025 l 46.5416,0.1653 c 73.0496,6.1314 20.4084,35.1296 6.8389,34.6685 -41.9557,-3.3888 -60.8645,9.6037 -52.2882,42.1325 7.6728,39.358 37.8083,6.4783 56.1646,0.3211 38.3416,-19.0761 36.927,-0.656 30.9661,22.0524 l -88.776,65.6384 c -44.2222,26.249 -31.4313,-29.6222 -37.9394,-57.6955 z"
       id="glifo2-26"
       sodipodi:nodetypes="cccccccccc" />
    <path
       style="fill:none;stroke:#ffffff;stroke-width:1.39446px;stroke-linecap:butt;stroke-linejoin:miter;stroke-opacity:1"
       d="m 3425.2084,1244.5582 c 25.002,-21.7152 49.8588,-6.4033 74.6807,17.8107 14.8518,5.9748 26.379,13.345 32.4589,23.001 17.0862,21.836 18.4285,42.1379 -21.9346,28.8991 -22.3999,-23.3356 -42.6547,-27.1293 -57.9863,13.9283 -12.9048,44.8022 0.4503,52.2736 29.1083,43.0109 39.2544,-2.7285 50.0061,38.4416 1.003,33.5247 -19.934,-2.4597 -36.8031,-9.2319 -65.3346,0.4065 -13.1104,1.0872 -17.8268,-11.4908 -19.8403,-28.4691 42.7439,-22.9807 78.658,-50.2593 27.8449,-132.1121 z"
       id="glifo2-27"
       sodipodi:nodetypes="cccccccccc" />
    <path
       style="fill:none;stroke:#ffffff;stroke-width:1.39446px;stroke-linecap:butt;stroke-linejoin:miter;stroke-opacity:1"
       d="m 3356.7678,1221.3905 c 82.667,11.1638 82.1583,49.9228 94.0609,84.7467 -2.6365,46.0244 -49.937,77.1541 -107.2926,95.2456 -68.5339,0.1649 -89.9609,-34.3926 -94.0762,-81.7103 9.5503,-52.7451 20.6906,-104.2783 107.3079,-98.282 z"
       id="glifo2-28"
       sodipodi:nodetypes="ccccc" />
    <path
       style="fill:none;stroke:#ffffff;stroke-width:1.39446px;stroke-linecap:butt;stroke-linejoin:miter;stroke-opacity:1"
       d="m 3351.1675,1255.5304 c -43.1823,-2.3218 -50.407,24.3046 -56.2706,52.027 -1.3058,35.4532 21.6566,44.2464 48.3781,48.9102 31.3576,-7.8486 50.0709,-22.9329 51.4436,-47.9404 2.305,-35.3506 -12.1519,-53.0795 -43.5511,-52.9968 z"
       id="glifo2-29"
       sodipodi:nodetypes="ccccc" />
    <path
       style="fill:none;stroke:#ffffff;stroke-width:1.39446px;stroke-linecap:butt;stroke-linejoin:miter;stroke-opacity:1"
       d="m 3349.2244,1285.7674 c -10.62,-1.2772 -19.8023,0.7168 -21.1309,20.5766 -1.0954,8.2188 4.6664,13.3557 17.5728,15.2815 11.1448,-2.4227 20.3492,-5.9763 21.2673,-14.3582 -3.4655,-7.8983 6.1778,-19.7306 -17.7092,-21.4999 z"
       id="glifo2-30"
       sodipodi:nodetypes="ccccc" />
    <path
       style="fill:none;stroke:#ffffff;stroke-width:1.39446px;stroke-linecap:butt;stroke-linejoin:miter;stroke-opacity:1"
       d="m 3401.5188,1125.8085 c -19.6425,-1.9261 -28.4371,10.2793 -30.5076,31.2441 -1.1308,19.972 8.7112,26.818 21.8498,29.7208 16.7442,-3.3001 30.3162,-9.8166 33.6099,-26.7539 -0.083,-16.3172 -4.2457,-30.1989 -24.9521,-34.211 z"
       id="glifo2-31"
       sodipodi:nodetypes="ccccc" />
    <path
       style="fill:none;stroke:#ffffff;stroke-width:1.39446px;stroke-linecap:butt;stroke-linejoin:miter;stroke-opacity:1"
       d="m 3469.4232,1048.0043 c -18.8299,3.9181 -25.2395,18.5918 -29.4399,35.1787 -2.7022,14.4365 7.3964,23.0123 27.3189,27.0906 14.7736,-1.9424 26.08,-9.0638 30.2083,-26.9079 -1.8371,-16.4187 -8.6561,-29.7715 -28.0873,-35.3614 z"
       id="glifo2-32"
       sodipodi:nodetypes="ccccc" />
    <path
       style="fill:none;stroke:#ffffff;stroke-width:1.39446px;stroke-linecap:butt;stroke-linejoin:miter;stroke-opacity:1"
       d="m 3526.0987,1111.6528 c -27.9232,22.5593 -91.5233,62.9285 -38.0123,112.2067 16.5908,12.6108 32.7767,25.5382 56.6157,32.4803 13.4355,10.0902 45.1164,10.1569 19.6205,-23.7903 l -25.5592,-20.9022 c -33.2501,-29.1042 -4.0875,-34.2072 7.6359,-46.0164 15.0147,-8.3648 23.9235,-35.3468 54.3626,3.3185 l 22.9561,31.8046 c 5.1786,16.5824 21.9815,17.1362 18.7466,-14.031 1.4466,-19.1677 -12.8526,-41.9184 -19.5217,-63.5172 -12.9856,-78.8047 -65.7897,-25.5163 -96.8442,-11.553 z"
       id="glifo2-33"
       sodipodi:nodetypes="ccccccccccc" />
    <path
       style="fill:none;stroke:#ffffff;stroke-width:1.39446px;stroke-linecap:butt;stroke-linejoin:miter;stroke-opacity:1"
       d="m 3538.4949,983.09188 c -15.7272,0.89622 -30.1168,4.85312 -32.9648,35.22152 1.3682,19.0483 15.3713,24.1076 32.7091,25.4748 20.8888,-2.8122 29.7742,-11.6226 31.3073,-38.9302 -8.8444,-7.49452 -9.1877,-21.58386 -31.0516,-21.76612 z"
       id="glifo2-34"
       sodipodi:nodetypes="ccccc" />
    <path
       style="fill:none;stroke:#ffffff;stroke-width:1.39446px;stroke-linecap:butt;stroke-linejoin:miter;stroke-opacity:1"
       d="m 3729.3295,908.66004 c -20.3331,-3.08414 -21.556,12.65353 -24.7552,26.44465 3.2857,10.4854 2.8556,22.89754 24.5824,23.82027 17.8829,-3.35467 25.0093,-13.26152 25.7696,-27.04636 -5.3277,-10.19564 -7.4828,-22.82267 -25.5968,-23.21856 z"
       id="glifo2-35"
       sodipodi:nodetypes="ccccc" />
    <path
       style="fill:none;stroke:#ffffff;stroke-width:1.39446px;stroke-linecap:butt;stroke-linejoin:miter;stroke-opacity:1"
       d="m 3734.0822,861.34624 c -38.4146,9.37695 -63.8606,34.71941 -71.1697,82.39019 10.2744,53.54845 37.9097,54.98335 65.249,57.30737 38.5382,-8.3584 59.6164,-32.86573 67.0611,-69.98278 -1.1195,-55.43196 -28.2657,-67.36092 -61.1404,-69.71478 z"
       id="glifo2-36"
       sodipodi:nodetypes="ccccc" />
    <path
       style="fill:none;stroke:#ffffff;stroke-width:1.39446px;stroke-linecap:butt;stroke-linejoin:miter;stroke-opacity:1"
       d="m 3721.6129,824.96282 c -59.8907,8.09822 -96.5283,48.74871 -100.1049,135.68109 31.5219,84.66429 68.3497,66.50239 103.7562,75.88729 57.6417,-11.3429 103.3859,-37.78632 109.7319,-114.23356 -21.2168,-102.14099 -68.2778,-95.62674 -113.3832,-97.33482 z"
       id="glifo2-37"
       sodipodi:nodetypes="ccccc" />
    <path
       style="fill:none;stroke:#ffffff;stroke-width:1.39446px;stroke-linecap:butt;stroke-linejoin:miter;stroke-opacity:1"
       d="m 3131.0407,1179.9263 c -35.8052,63.8042 25.8664,75.246 57.5996,53.945 152.2887,-150.5705 309.2886,-286.46715 456.8659,-451.71147 11.8148,-41.85363 -32.0942,-62.20167 -53.7163,-39.7671 -142.3047,153.02393 -304.6629,293.28247 -460.7492,437.53357 z"
       id="glifo2-39"
       sodipodi:nodetypes="ccccc" />
       </defs>


 <text font-size="1.5em" fill="white">

      <textPath href="#glifo2-1"> The work is based on the traditional 'temazcalli' of some mesoamerican cultures,</textPath>
      <textPath href="#glifo2-2"> The work is based on the traditional 'temazcalli' of some mesoamerican cultures,</textPath>
      <textPath href="#glifo2-3"> The work is based on the traditional 'temazcalli' of some mesoamerican cultures,</textPath>
      <textPath href="#glifo2-4"> The work is based on the traditional 'temazcalli' of some mesoamerican cultures,</textPath>
      <textPath href="#glifo2-5"> The work is based on the traditional 'temazcalli' of some mesoamerican cultures,</textPath>
      <textPath href="#glifo2-6"> The work is based on the traditional 'temazcalli' of some mesoamerican cultures,</textPath>
      <textPath href="#glifo2-7"> The work is based on the traditional 'temazcalli' of some mesoamerican cultures,</textPath>
      <textPath href="#glifo2-8"> The work is based on the traditional 'temazcalli' of some mesoamerican cultures,</textPath>
      <textPath href="#glifo2-9"> The work is based on the traditional 'temazcalli' of some mesoamerican cultures,</textPath>
      <textPath href="#glifo2-10"> particularly the one used in the Anahuac valley in the centre of Mexico.</textPath>
      <textPath href="#glifo2-11"> particularly the one used in the Anahuac valley in the centre of Mexico.</textPath>
      <textPath href="#glifo2-12"> particularly the one used in the Anahuac valley in the centre of Mexico.</textPath>
      <textPath href="#glifo2-13"> particularly the one used in the Anahuac valley in the centre of Mexico.</textPath>
      <textPath href="#glifo2-14"> particularly the one used in the Anahuac valley in the centre of Mexico.</textPath>
      <textPath href="#glifo2-15"> particularly the one used in the Anahuac valley in the centre of Mexico.</textPath>
      <textPath href="#glifo2-16"> particularly the one used in the Anahuac valley in the centre of Mexico.</textPath>
      <textPath href="#glifo2-17"> particularly the one used in the Anahuac valley in the centre of Mexico.</textPath>
      <textPath href="#glifo2-18"> particularly the one used in the Anahuac valley in the centre of Mexico.</textPath>
      <textPath href="#glifo2-19"> Temazcalli is the name given by Nahua speakers to a steam house in which ritual and medicinal ceremonies take place.</textPath>
      <textPath href="#glifo2-20"> Temazcalli is the name given by Nahua speakers to a steam house in which ritual and medicinal ceremonies take place.</textPath>
      <textPath href="#glifo2-21"> Temazcalli is the name given by Nahua speakers to a steam house in which ritual and medicinal ceremonies take place.</textPath>
      <textPath href="#glifo2-22"> Temazcalli is the name given by Nahua speakers to a steam house in which ritual and medicinal ceremonies take place.</textPath>
      <textPath href="#glifo2-23"> Temazcalli is the name given by Nahua speakers to a steam house in which ritual and medicinal ceremonies take place.</textPath>
      <textPath href="#glifo2-24"> Temazcalli is the name given by Nahua speakers to a steam house in which ritual and medicinal ceremonies take place.</textPath>
      <textPath href="#glifo2-25"> Temazcalli is the name given by Nahua speakers to a steam house in which ritual and medicinal ceremonies take place.</textPath>
      <textPath href="#glifo2-26"> Temazcalli is the name given by Nahua speakers to a steam house in which ritual and medicinal ceremonies take place.</textPath>
      <textPath href="#glifo2-27"> Temazcalli is the name given by Nahua speakers to a steam house in which ritual and medicinal ceremonies take place.</textPath>
      <textPath href="#glifo2-28"> Often these rituals have to do with birth and pregnancy.</textPath>
      <textPath href="#glifo2-29"> Often these rituals have to do with birth and pregnancy.</textPath>
      <textPath href="#glifo2-30"> Often these rituals have to do with birth and pregnancy.</textPath>
      <textPath href="#glifo2-31"> Often these rituals have to do with birth and pregnancy.</textPath>
      <textPath href="#glifo2-32"> Often these rituals have to do with birth and pregnancy.</textPath>
      <textPath href="#glifo2-33"> Often these rituals have to do with birth and pregnancy.</textPath>
      <textPath href="#glifo2-34"> Often these rituals have to do with birth and pregnancy.</textPath>
      <textPath href="#glifo2-35"> Often these rituals have to do with birth and pregnancy.</textPath>
      <textPath href="#glifo2-36"> Often these rituals have to do with birth and pregnancy.</textPath>
      <textPath href="#glifo2-37"> Often these rituals have to do with birth and pregnancy.</textPath>
      <textPath href="#glifo2-39"> Often these rituals have to do with birth and pregnancy.</textPath>
  </text>


  </g>
</svg>
