<?xml version="1.0" encoding="UTF-8" standalone="no"?>
<svg
   xmlns:dc="http://purl.org/dc/elements/1.1/"
   xmlns:cc="http://creativecommons.org/ns#"
   xmlns:rdf="http://www.w3.org/1999/02/22-rdf-syntax-ns#"
   xmlns:svg="http://www.w3.org/2000/svg"
   xmlns="http://www.w3.org/2000/svg"
   xmlns:sodipodi="http://sodipodi.sourceforge.net/DTD/sodipodi-0.dtd"
   xmlns:inkscape="http://www.inkscape.org/namespaces/inkscape"
   version="1.1"
   id="svg2"
   width="4339"
   height="4150"
   viewBox="0 0 4339 4150"
   sodipodi:docname="glifos.svg"
   inkscape:version="1.0.2 (e86c870879, 2021-01-15)">
  <metadata
     id="metadata8">
    <rdf:RDF>
      <cc:Work
         rdf:about="">
        <dc:format>image/svg+xml</dc:format>
        <dc:type
           rdf:resource="http://purl.org/dc/dcmitype/StillImage" />
        <dc:title></dc:title>
      </cc:Work>
    </rdf:RDF>
  </metadata>
  <defs
     id="defs6" />
  <sodipodi:namedview
     pagecolor="#ffffff"
     bordercolor="#666666"
     borderopacity="1"
     objecttolerance="10"
     gridtolerance="10"
     guidetolerance="10"
     inkscape:pageopacity="0"
     inkscape:pageshadow="2"
     inkscape:window-width="1920"
     inkscape:window-height="1006"
     id="namedview4"
     showgrid="false"
     inkscape:zoom="0.14144675"
     inkscape:cx="5797.114"
     inkscape:cy="2245.7146"
     inkscape:window-x="0"
     inkscape:window-y="0"
     inkscape:window-maximized="1"
     inkscape:current-layer="g10"
     inkscape:document-rotation="0" />
  <g
     inkscape:groupmode="layer"
     inkscape:label="Image"
     id="g10"
     style="display:inline">
     <defs>
    <path
       style="fill:none;stroke:#ffffff;stroke-width:1.39446px;stroke-linecap:butt;stroke-linejoin:miter;stroke-opacity:1"
       d="m 1026.0439,497.80375 c -29.09838,4.12204 -34.53998,23.55089 -40.71228,42.5069 5.7795,22.51687 20.95328,33.4085 42.84958,35.98121 13.1819,-9.68407 27.3063,-18.06844 33.0789,-37.96838 -5.2801,-19.36612 -11.5533,-37.83108 -35.2162,-40.51973 z"
       id="glifo8-1"
       sodipodi:nodetypes="ccccc" />
    <path
       style="fill:none;stroke:#ffffff;stroke-width:1.39446px;stroke-linecap:butt;stroke-linejoin:miter;stroke-opacity:1"
       d="m 1182.6962,578.78727 c -45.9276,19.82844 -86.3523,49.99808 -99.7456,130.96842 4.4084,31.03412 19.9712,53.1258 64.1901,52.24421 31.2298,2.46653 61.8118,-0.91058 88.0761,-43.24488 -2.1856,-50.42342 -0.4009,-101.82319 -52.5206,-139.96775 z"
       id="glifo8-2"
       sodipodi:nodetypes="ccccc" />
    <path
       style="fill:none;stroke:#ffffff;stroke-width:1.39446px;stroke-linecap:butt;stroke-linejoin:miter;stroke-opacity:1"
       d="m 1197.541,852.80137 c -12.6778,33.5595 17.1776,23.21953 34.161,26.16506 l 57.6356,-71.51614 c -0.911,-39.40259 -18.0389,-25.98838 -32.4826,-21.31623 z"
       id="glifo8-3"
       sodipodi:nodetypes="ccccc" />
    <path
       style="fill:none;stroke:#ffffff;stroke-width:1.39446px;stroke-linecap:butt;stroke-linejoin:miter;stroke-opacity:1"
       d="m 1258.4528,909.65709 c -7.9448,44.72776 17.3736,23.7246 31.678,24.48654 l 54.3913,-68.64062 c -3.7249,-13.41407 4.0863,-37.59634 -32.9954,-19.87449 z"
       id="glifo8-4"
       sodipodi:nodetypes="ccccc" />
    <path
       style="fill:none;stroke:#ffffff;stroke-width:1.39446px;stroke-linecap:butt;stroke-linejoin:miter;stroke-opacity:1"
       d="m 1130.0947,403.84877 c 5.3893,-16.22441 13.0229,-24.35842 21.5087,-29.41898 38.8276,-14.56621 37.7184,3.63678 34.3628,23.68289 -5.3999,31.69907 -16.361,33.00011 -27.6046,32.75836 -15.088,0.1315 -25.9518,-6.55092 -28.2669,-27.02227 z"
       id="glifo8-5"
       sodipodi:nodetypes="ccccc" />
    <path
       style="fill:none;stroke:#ffffff;stroke-width:1.39446px;stroke-linecap:butt;stroke-linejoin:miter;stroke-opacity:1"
       d="m 1282.0965,352.68829 c -22.5533,48.78612 -46.8506,97.57224 -48.0315,146.35836 31.3185,11.49813 75.7768,-1.27023 115.8554,-5.95012 -9.2646,-25.20745 -0.4806,-50.41494 13.2499,-75.6224 -8.1507,-28.76273 -47.3248,-45.74415 -81.0738,-64.78584 z"
       id="glifo8-6"
       sodipodi:nodetypes="ccccc" />
    <path
       style="fill:none;stroke:#ffffff;stroke-width:1.39446px;stroke-linecap:butt;stroke-linejoin:miter;stroke-opacity:1"
       d="m 1309.8323,310.28323 c 4.5349,-18.6959 12.1683,-27.5464 21.7,-30.3637 33.7634,9.36429 54.7783,52.56613 79.9892,84.63126 l -27.141,21.24804 c -23.0127,-24.99032 -41.6575,-49.54884 -74.5482,-75.5156 z"
       id="glifo8-7"
       sodipodi:nodetypes="ccccc" />
    <path
       style="fill:none;stroke:#ffffff;stroke-width:1.39446px;stroke-linecap:butt;stroke-linejoin:miter;stroke-opacity:1"
       d="m 1372.8696,237.23936 c 2.0747,11.81472 -9.2326,23.62943 12.3107,35.44415 l 55.2985,65.38592 c 13.8489,-10.03815 32.5154,-22.28027 58.7094,-37.96638 -12.8165,-38.91898 -24.2978,-77.88024 -20.3665,-117.3295 -36.035,17.13504 -84.1286,17.1273 -105.9521,54.46581 z"
       id="glifo8-8"
       sodipodi:nodetypes="cccccc" />
    <path
       style="fill:none;stroke:#ffffff;stroke-width:1.39446px;stroke-linecap:butt;stroke-linejoin:miter;stroke-opacity:1"
       d="m 1169.4102,655.59535 c -15.6788,6.84557 -27.5547,15.23888 -31.389,26.90527 -6.9367,22.1919 4.0784,24.09954 16.0227,24.95713 25.3149,-4.61442 30.6238,-14.06138 31.7956,-24.50784 4.8024,-10.97663 -4.2241,-19.45296 -16.4293,-27.35456 z"
       id="glifo8-9"
       sodipodi:nodetypes="ccccc" />
    <path
       style="fill:none;stroke:#ffffff;stroke-width:1.39446px;stroke-linecap:butt;stroke-linejoin:miter;stroke-opacity:1"
       d="m 1265.5128,639.26213 c -0.103,41.87535 35.7796,71.72501 65.3005,103.70067 l 71.0119,-93.04342 -30.5961,-55.58269 z"
       id="glifo8-10"
       sodipodi:nodetypes="ccccc" />
    <path
       style="fill:none;stroke:#ffffff;stroke-width:1.39446px;stroke-linecap:butt;stroke-linejoin:miter;stroke-opacity:1"
       d="m 1248.0446,545.92072 c -5.1198,28.26703 3.6705,36.08783 16.3012,38.26353 30.6598,-6.83006 62.3151,-11.69125 89.8632,-24.67496 4.8365,-11.98667 -2.5898,-23.54876 -12.4347,-35.02712 -18.2471,6.47315 -18.0578,11.99154 -93.7297,21.43855 z"
       id="glifo8-11"
       sodipodi:nodetypes="ccccc" />
    <path
       style="fill:none;stroke:#ffffff;stroke-width:1.39446px;stroke-linecap:butt;stroke-linejoin:miter;stroke-opacity:1"
       d="m 1432.9476,675.52924 c 24.9002,-6.26053 28.3644,9.14587 31.3062,25.08043 l -67.617,96.09486 c -17.6169,-1.5784 -37.0676,-0.12968 -39.4967,-26.77318 z"
       id="glifo8-12"
       sodipodi:nodetypes="ccccc" />
    <path
       style="fill:none;stroke:#ffffff;stroke-width:1.39446px;stroke-linecap:butt;stroke-linejoin:miter;stroke-opacity:1"
       d="m 1493.234,706.52136 85.5255,22.63595 -24.2829,120.66005 c -44.2188,-3.53972 -102.2814,6.91571 -115.1848,-28.28158 z"
       id="glifo8-13"
       sodipodi:nodetypes="ccccc" />
    <path
       style="fill:none;stroke:#ffffff;stroke-width:1.39446px;stroke-linecap:butt;stroke-linejoin:miter;stroke-opacity:1"
       d="m 1422.8254,886.4833 c 44.7272,-1.66946 89.7539,-5.82189 131.3993,18.08427 -0.9098,24.73545 -9.8167,49.03345 -40.1717,72.15886 -23.6742,17.93755 -51.1909,22.04615 -82.998,10.71497 -43.0846,-46.09815 -26.2256,-73.70341 -8.2296,-100.9581 z"
       id="glifo8-14"
       sodipodi:nodetypes="ccccc" />
    <path
       style="fill:none;stroke:#ffffff;stroke-width:1.39446px;stroke-linecap:butt;stroke-linejoin:miter;stroke-opacity:1"
       d="m 1449.0651,916.51465 c -7.8444,11.87792 -9.2791,23.75569 6.8202,35.63363 23.429,10.11029 28.9313,0.16161 38.1229,-5.65904 8.2281,-9.07768 10.0785,-18.15552 -2.3612,-27.23321 -22.207,-6.48831 -30.6186,-3.37949 -42.5819,-2.74138 z"
       id="glifo8-15"
       sodipodi:nodetypes="ccccc" />
    <path
       style="fill:none;stroke:#ffffff;stroke-width:1.39446px;stroke-linecap:butt;stroke-linejoin:miter;stroke-opacity:1"
       d="m 2026.5575,505.13909 c -11.0854,9.43392 -24.0788,7.26585 -31.284,40.29627 4.715,17.01617 12.9979,30.74504 36.2683,30.665 9.8092,-8.80448 23.7733,-3.39174 24.6549,-42.74576 -4.3617,-14.02592 -11.4221,-25.79188 -29.6392,-28.21551 z"
       id="glifo8-16"
       sodipodi:nodetypes="ccccc" />
    <path
       style="fill:none;stroke:#ffffff;stroke-width:1.39446px;stroke-linecap:butt;stroke-linejoin:miter;stroke-opacity:1"
       d="m 1981.4561,624.66131 c -43.9536,21.26059 -60.3451,66.35011 -74.6191,113.2704 11.7574,88.08853 59.2789,57.59171 94.882,66.61376 48.4431,-11.46711 75.2477,-49.32853 67.4282,-129.42362 -23.5771,-30.18022 -50.9988,-51.27456 -87.6911,-50.46054 z"
       id="glifo8-17"
       sodipodi:nodetypes="ccccc" />
    <path
       style="fill:none;stroke:#ffffff;stroke-width:1.39446px;stroke-linecap:butt;stroke-linejoin:miter;stroke-opacity:1"
       d="m 2045.3215,261.74666 c -48.7002,27.22893 -109.83,46.68336 -131.4199,90.8691 0.2797,31.71501 0.7094,63.40604 25.6441,91.18338 32.5678,5.42268 69.3562,-6.35586 109.9686,-33.72026 18.0826,-36.11443 4.9867,-93.56331 -4.1928,-148.33222 z"
       id="glifo8-18"
       sodipodi:nodetypes="ccccc" />
    <path
       style="fill:none;stroke:#ffffff;stroke-width:1.39446px;stroke-linecap:butt;stroke-linejoin:miter;stroke-opacity:1"
       d="m 2016.6755,334.9234 c -21.2542,-1.806 -41.9306,-2.57402 -47.6826,23.47172 -7.1069,10.52007 -1.2524,21.04011 8.4885,31.56017 21.3513,1.94046 36.5273,-4.16144 44.4373,-19.72607 2.5027,-10.79897 9.0966,-20.66465 -5.2432,-35.30582 z"
       id="glifo8-19"
       sodipodi:nodetypes="ccccc" />
    <path
       style="fill:none;stroke:#ffffff;stroke-width:1.39446px;stroke-linecap:butt;stroke-linejoin:miter;stroke-opacity:1"
       d="m 2119.6695,153.51984 c 14.008,-94.000639 90.9583,-27.66312 79.2539,-2.47754 l -18.8053,616.25615 c 0.1255,46.2126 -65.0423,70.96172 -77.9306,-1.99408 z"
       id="glifo8-20"
       sodipodi:nodetypes="ccccc" />
    <path
       style="fill:none;stroke:#ffffff;stroke-width:1.39446px;stroke-linecap:butt;stroke-linejoin:miter;stroke-opacity:1"
       d="m 1607.3052,730.99298 42.4192,9.35059 -2.8611,109.11918 c -13.8218,4.88174 -26.9153,5.96022 -38.9564,1.54493 z"
       id="glifo8-21"
       sodipodi:nodetypes="ccccc" />
    <path
       style="fill:none;stroke:#ffffff;stroke-width:1.39446px;stroke-linecap:butt;stroke-linejoin:miter;stroke-opacity:1"
       d="m 1668.736,720.14139 54.1926,-44.99178 c 37.0064,19.07229 66.7667,47.35749 91.3744,82.19362 -30.8859,33.73156 -56.6929,73.26453 -114.805,75.89644 z"
       id="glifo8-22"
       sodipodi:nodetypes="ccccc" />
    <path
       style="fill:none;stroke:#ffffff;stroke-width:1.39446px;stroke-linecap:butt;stroke-linejoin:miter;stroke-opacity:1"
       d="m 1759.5133,643.62664 21.8391,-27.34154 102.1542,67.43118 -35.4423,34.0831 z"
       id="glifo8-23" />
    <path
       style="fill:none;stroke:#ffffff;stroke-width:1.39446px;stroke-linecap:butt;stroke-linejoin:miter;stroke-opacity:1"
       d="m 1808.1289,516.74134 -12.1305,69.63698 c 36.2946,22.54727 75.7078,64.4198 107.0359,56.19159 17.422,-39.46058 42.7577,-79.12192 31.7687,-117.86181 z"
       id="glifo8-24"
       sodipodi:nodetypes="ccccc" />
    <path
       style="fill:none;stroke:#ffffff;stroke-width:1.39446px;stroke-linecap:butt;stroke-linejoin:miter;stroke-opacity:1"
       d="m 1787.7067,448.99148 14.9413,34.67085 112.1732,-18.52464 c -0.098,-22.84825 -9.83,-50.17013 -37.1506,-85.65793 z"
       id="glifo8-25"
       sodipodi:nodetypes="ccccc" />
    <path
       style="fill:none;stroke:#ffffff;stroke-width:1.39446px;stroke-linecap:butt;stroke-linejoin:miter;stroke-opacity:1"
       d="m 1514.8741,182.21451 c 13.4149,-16.39721 26.8299,-7.26847 40.2449,-0.36991 l 9.9129,116.59447 -29.707,1.39476 z"
       id="glifo8-26"
       sodipodi:nodetypes="ccccc" />
    <path
       style="fill:none;stroke:#ffffff;stroke-width:1.39446px;stroke-linecap:butt;stroke-linejoin:miter;stroke-opacity:1"
       d="m 1611.5603,166.00297 -22.2671,128.18442 44.4096,8.2697 76.6828,-97.59012 c -29.126,-34.61803 -63.947,-36.90359 -98.8253,-38.864 z"
       id="glifo8-27"
       sodipodi:nodetypes="ccccc" />
    <path
       style="fill:none;stroke:#ffffff;stroke-width:1.39446px;stroke-linecap:butt;stroke-linejoin:miter;stroke-opacity:1"
       d="m 1224.8841,320.19513 c 25.1262,24.68162 -2.2321,85.90609 -25.9919,144.62518 -15.6187,29.55068 -35.0414,48.62223 -78.8845,0.4211 -34.5725,-18.39276 -47.8477,-46.54233 -27.0035,-90.3227 36.779,-37.91037 78.4932,-62.30204 131.8799,-54.72358 z"
       id="glifo8-28"
       sodipodi:nodetypes="ccccc" />
    <path
       style="fill:none;stroke:#ffffff;stroke-width:1.39446px;stroke-linecap:butt;stroke-linejoin:miter;stroke-opacity:1"
       d="m 1992.8958,668.18654 c -31.204,-2.70126 -45.9508,38.31224 -61.8474,76.27196 13.1029,28.15901 34.8175,37.43192 60.221,38.61513 51.6192,-12.52802 52.4089,-40.60698 49.0072,-69.9683 -11.7341,-24.71871 -22.676,-51.3399 -47.3808,-44.91879 z"
       id="glifo8-29"
       sodipodi:nodetypes="ccccc" />
    <path
       style="fill:none;stroke:#ffffff;stroke-width:1.39446px;stroke-linecap:butt;stroke-linejoin:miter;stroke-opacity:1"
       d="m 1993.8409,696.11796 c -17.9047,4.5776 -25.9959,16.69942 -25.3402,35.5459 l 23.9456,18.0529 c 9.9083,-6.64227 26.139,-4.55907 24.1822,-27.5764 -2.5764,-9.65626 -2.4026,-19.85077 -22.7876,-26.0224 z"
       id="glifo8-30"
       sodipodi:nodetypes="ccccc" />
    <path
       style="fill:none;stroke:#ffffff;stroke-width:1.39446px;stroke-linecap:butt;stroke-linejoin:miter;stroke-opacity:1"
       d="m 1910.276,93.753058 c 55.6025,-35.047626 66.1517,-26.950772 28.2544,27.539762 -131.9676,96.94978 -238.623,214.30508 -353.7076,324.86524 -39.8835,41.72674 -34.0955,85.30225 42.8556,31.29356 L 1968.6,152.83327 c 61.5366,-40.39692 71.4836,1.02558 31.4935,40.58982 l -362.3446,334.14436 c -61.0606,45.54398 -161.7599,19.85582 -103.3103,-84.08828 125.2791,-116.57538 227.3191,-245.46804 375.8374,-349.726112 z"
       id="glifo8-31"
       sodipodi:nodetypes="ccccccccc" />
    <path
       style="fill:none;stroke:#ffffff;stroke-width:1.39446px;stroke-linecap:butt;stroke-linejoin:miter;stroke-opacity:1"
       d="m 1424.301,421.82082 c 63.6091,-103.41785 134.8767,-22.85314 53.8912,25.6028 -23.4399,63.99075 -16.9722,108.0924 23.76,129.40749 109.748,69.8667 152.2932,11.03988 199.7232,-38.43267 23.3567,-110.72712 100.9726,-54.73611 48.9528,32.26227 -107.4589,143.70704 -206.6128,122.07539 -303.4484,54.28667 -108.4391,-142.60765 -28.6204,-145.34942 -22.8788,-203.12656 z"
       id="glifo8-32"
       sodipodi:nodetypes="ccccccc" />
    <path
       style="fill:none;stroke:#ffffff;stroke-width:1.39446px;stroke-linecap:butt;stroke-linejoin:miter;stroke-opacity:1"
       d="m 802.86931,643.10817 c -51.8776,-53.6068 41.1987,-92.87622 59.15374,-46.0422 l 435.46355,469.26613 c 38.5276,29.6485 -17.6374,64.8117 -47.1373,39.0593 z"
       id="glifo8-33"
       sodipodi:nodetypes="ccccc" />
       </defs>


 <text font-size="1.5em" fill="white">
      <textPath href="#glifo8-1"> The migration from rural areas to cities and its catastrophic consequences is a good example of this alienation:</textPath>
      <textPath href="#glifo8-2"> The migration from rural areas to cities and its catastrophic consequences is a good example of this alienation:</textPath>
      <textPath href="#glifo8-3"> The migration from rural areas to cities and its catastrophic consequences is a good example of this alienation:</textPath>
      <textPath href="#glifo8-4"> The migration from rural areas to cities and its catastrophic consequences is a good example of this alienation:</textPath>
      <textPath href="#glifo8-5"> The migration from rural areas to cities and its catastrophic consequences is a good example of this alienation:</textPath>
      <textPath href="#glifo8-6"> The migration from rural areas to cities and its catastrophic consequences is a good example of this alienation:</textPath>
      <textPath href="#glifo8-7"> The migration from rural areas to cities and its catastrophic consequences is a good example of this alienation:</textPath>
      <textPath href="#glifo8-8"> The migration from rural areas to cities and its catastrophic consequences is a good example of this alienation:</textPath>
      <textPath href="#glifo8-9"> The migration from rural areas to cities and its catastrophic consequences is a good example of this alienation:</textPath>
      <textPath href="#glifo8-10"> The migration from rural areas to cities and its catastrophic consequences is a good example of this alienation:</textPath>
      <textPath href="#glifo8-11"> indigenous people leaving behind their lands, languages and culture to become cheap labour.</textPath>
      <textPath href="#glifo8-12"> indigenous people leaving behind their lands, languages and culture to become cheap labour.</textPath>
      <textPath href="#glifo8-13"> indigenous people leaving behind their lands, languages and culture to become cheap labour.</textPath>
      <textPath href="#glifo8-14"> indigenous people leaving behind their lands, languages and culture to become cheap labour.</textPath>
      <textPath href="#glifo8-15"> indigenous people leaving behind their lands, languages and culture to become cheap labour.</textPath>
      <textPath href="#glifo8-16"> indigenous people leaving behind their lands, languages and culture to become cheap labour.</textPath>
      <textPath href="#glifo8-17"> indigenous people leaving behind their lands, languages and culture to become cheap labour.</textPath>
      <textPath href="#glifo8-18"> indigenous people leaving behind their lands, languages and culture to become cheap labour.</textPath>
      <textPath href="#glifo8-19"> indigenous people leaving behind their lands, languages and culture to become cheap labour.</textPath>
      <textPath href="#glifo8-20"> indigenous people leaving behind their lands, languages and culture to become cheap labour.</textPath>
      <textPath href="#glifo8-21"> indigenous people leaving behind their lands, languages and culture to become cheap labour.</textPath>
      <textPath href="#glifo8-22"> Temazcal (the music piece) is a hegemonic cultural artifact that enables such alienation, using electroacoustic music as a technological and ideological framework. </textPath>
      <textPath href="#glifo8-23"> Temazcal (the music piece) is a hegemonic cultural artifact that enables such alienation, using electroacoustic music as a technological and ideological framework. </textPath>
      <textPath href="#glifo8-24"> Temazcal (the music piece) is a hegemonic cultural artifact that enables such alienation, using electroacoustic music as a technological and ideological framework. </textPath>
      <textPath href="#glifo8-25"> Temazcal (the music piece) is a hegemonic cultural artifact that enables such alienation, using electroacoustic music as a technological and ideological framework. </textPath>
      <textPath href="#glifo8-26"> Temazcal (the music piece) is a hegemonic cultural artifact that enables such alienation, using electroacoustic music as a technological and ideological framework. </textPath>
      <textPath href="#glifo8-27"> Temazcal (the music piece) is a hegemonic cultural artifact that enables such alienation, using electroacoustic music as a technological and ideological framework. </textPath>
      <textPath href="#glifo8-28"> Temazcal (the music piece) is a hegemonic cultural artifact that enables such alienation, using electroacoustic music as a technological and ideological framework. </textPath>
      <textPath href="#glifo8-29"> Temazcal (the music piece) is a hegemonic cultural artifact that enables such alienation, using electroacoustic music as a technological and ideological framework. </textPath>
      <textPath href="#glifo8-30"> Temazcal (the music piece) is a hegemonic cultural artifact that enables such alienation, using electroacoustic music as a technological and ideological framework. </textPath>
      <textPath href="#glifo8-31"> Temazcal (the music piece) is a hegemonic cultural artifact that enables such alienation, using electroacoustic music as a technological and ideological framework. </textPath>
      <textPath href="#glifo8-32"> Temazcal (the music piece) is a hegemonic cultural artifact that enables such alienation, using electroacoustic music as a technological and ideological framework. </textPath>
      <textPath href="#glifo8-33"> Temazcal (the music piece) is a hegemonic cultural artifact that enables such alienation, using electroacoustic music as a technological and ideological framework. </textPath>
   </text>


  </g>
</svg>
