<?xml version="1.0" encoding="UTF-8" standalone="no"?>
<svg
   xmlns:dc="http://purl.org/dc/elements/1.1/"
   xmlns:cc="http://creativecommons.org/ns#"
   xmlns:rdf="http://www.w3.org/1999/02/22-rdf-syntax-ns#"
   xmlns:svg="http://www.w3.org/2000/svg"
   xmlns="http://www.w3.org/2000/svg"
   xmlns:sodipodi="http://sodipodi.sourceforge.net/DTD/sodipodi-0.dtd"
   xmlns:inkscape="http://www.inkscape.org/namespaces/inkscape"
   width="1000mm"
   height="1000mm"
   viewBox="0 0 1000 1000"
   version="1.1"
   id="svg191"
   inkscape:version="1.0.2 (e86c870879, 2021-01-15)"
   sodipodi:docname="glifos.svg">
  <defs
     id="defs185" />
  <sodipodi:namedview
     id="base"
     pagecolor="#ffffff"
     bordercolor="#666666"
     borderopacity="1.0"
     inkscape:pageopacity="0.0"
     inkscape:pageshadow="2"
     inkscape:zoom="0.18"
     inkscape:cx="1869.9168"
     inkscape:cy="1902.0022"
     inkscape:document-units="mm"
     inkscape:current-layer="layer1"
     inkscape:document-rotation="0"
     showgrid="false"
     inkscape:window-width="1358"
     inkscape:window-height="1005"
     inkscape:window-x="236"
     inkscape:window-y="0"
     inkscape:window-maximized="0" />
  <metadata
     id="metadata188">
    <rdf:RDF>
      <cc:Work
         rdf:about="">
        <dc:format>image/svg+xml</dc:format>
        <dc:type
           rdf:resource="http://purl.org/dc/dcmitype/StillImage" />
        <dc:title></dc:title>
      </cc:Work>
    </rdf:RDF>
  </metadata>
  <g
     inkscape:label="Layer 1"
     inkscape:groupmode="layer"
     id="layer1">
    <path
       style="display:inline;fill:none;stroke:white;stroke-width:1px;stroke-linecap:butt;stroke-linejoin:miter;stroke-opacity:1"
       d="m 673.93139,105.04361 c 4.51942,3.89655 7.39896,4.88166 13.17824,13.57035 2.62477,9.05154 3.28587,16.99311 1.89576,23.77528 -4.74411,15.35892 -9.27281,19.14829 -13.83605,24.80006 -6.17142,3.09013 -12.34273,4.60491 -18.51415,5.60021 -9.92159,-0.84575 -18.32326,-2.66375 -24.08743,-6.16843 -9.13951,-8.38957 -12.29252,-15.42235 -13.92298,-22.1101 -0.48775,-5.42285 -0.38221,-10.71661 0.81839,-15.77233 l 11.14717,-19.17663 c 4.10124,-2.73261 6.55025,-5.48256 15.66259,-8.16258 5.6081,-1.58138 6.57098,-1.35557 9.08931,-2.018444 6.93471,0.50375 13.37974,1.917074 18.56915,5.662614 z"
       id="path90"
       sodipodi:nodetypes="cccccccccccc" />
    <path
       style="display:inline;fill:none;stroke:white;stroke-width:1px;stroke-linecap:butt;stroke-linejoin:miter;stroke-opacity:1"
       d="m 647.39853,128.00623 c 3.29492,-2.26157 7.12077,-2.1459 11.07919,-2.24286 8.58366,7.74783 5.69437,11.24145 5.32415,16.28343 -1.35444,1.80618 -3.72717,3.62143 -9.35366,5.46563 -4.52142,-1.09166 -9.00718,-2.23408 -11.32858,-6.46012 -0.0896,-4.60099 -2.1758,-8.51279 4.2789,-13.04608 z"
       id="path92"
       sodipodi:nodetypes="cccccc" />
    <path
       style="display:inline;fill:none;stroke:white;stroke-width:1px;stroke-linecap:butt;stroke-linejoin:miter;stroke-opacity:1"
       d="m 653.18964,115.20776 c 7.58727,1.00818 13.36758,4.04901 17.49616,8.94819 4.75308,5.55781 4.89397,11.6589 3.57126,17.55047 0.032,6.24985 -6.24927,10.80166 -16.15203,14.72941 -6.47517,2.01853 -13.24299,0.53541 -20.44685,-6.16125 -6.05553,-5.95916 -6.10839,-11.32003 -6.50435,-16.7151 3.67281,-8.49645 9.22973,-15.77226 22.03581,-18.35172 z"
       id="path94"
       sodipodi:nodetypes="ccccccc" />
    <path
       style="display:inline;fill:none;stroke:white;stroke-width:1px;stroke-linecap:butt;stroke-linejoin:miter;stroke-opacity:1"
       d="m 545.05761,166.09556 c -2.11836,-15.99594 4.96337,-25.99019 15.87809,-33.48406 l 29.03826,-14.49175 -18.14313,-31.928594 c -4.61144,-10.264382 -5.97956,-21.847521 7.65324,-37.122594 l 10.16708,-7.081712 c 15.24713,-10.842883 25.14596,-7.799138 34.72534,-3.926083 l 10.02852,9.056742 27.15319,40.518917 c 4.88989,6.635373 8.50872,3.973588 13.64751,1.947655 l 54.91297,-13.538526 c 22.79886,1.576295 29.06327,17.336671 33.93475,25.611055 6.82492,16.16707 3.97411,26.39496 -4.2646,33.31588 -6.5049,6.72334 -19.35115,11.81789 -29.06653,17.71662 l -18.98048,6.96238 22.26188,45.8585 c 2.77109,9.55693 -7.33738,17.76431 -15.54378,26.17103 -4.17104,4.4647 -10.78214,5.47507 -16.5009,7.74877 -15.72984,1.82908 -29.04952,1.38349 -33.94165,-7.01566 -6.94141,-9.6953 -13.84502,-19.27093 -18.64686,-28.30873 -3.99152,-4.6552 -5.40114,-8.85179 -7.50874,-13.11958 -1.52828,-4.03217 -2.5432,-9.57945 -9.95758,-3.609 -5.58426,0.67598 -16.75015,6.36175 -23.62089,8.68432 l -14.32693,1.974 c -10.05563,1.70722 -20.11045,3.4393 -30.65464,-7.54049 -5.54404,-4.21812 -8.68896,-7.975 -11.497,-11.66716 -2.86816,-3.98758 -6.00716,-7.86301 -6.74712,-12.73193 z"
       id="path96"
       sodipodi:nodetypes="ccccccccccccccccccccccccccc" />
    <path
       style="display:inline;fill:none;stroke:white;stroke-width:1px;stroke-linecap:butt;stroke-linejoin:miter;stroke-opacity:1"
       d="m 594.92613,54.855461 c 11.15051,-9.59696 18.63943,-6.885161 30.37942,0.03598 3.00091,3.194432 5.11144,4.12807 9.2593,10.235307 l 18.58994,29.052871 c 5.69276,6.403021 12.66488,7.855711 20.19033,7.167641 l 42.88054,-11.609451 c 16.36217,-3.780443 28.25346,-0.889197 32.59673,13.265651 5.56985,11.57433 3.61899,21.82017 -7.65652,30.41892 l -33.55814,15.89264 -11.5584,5.0552 9.28489,18.32431 11.08479,24.30079 c 5.66766,12.85703 4.44138,23.24097 -10.6235,28.66059 -10.15366,3.79886 -19.47238,13.13857 -33.44748,-8.42102 l -19.95774,-34.2936 c -6.35493,-11.43049 -11.08128,-16.1873 -27.84244,-6.90037 l -24.7919,8.34626 c -11.9278,4.24903 -23.10536,4.83052 -31.61711,-7.61725 -13.71389,-14.79943 -8.3564,-25.33266 0.31664,-35.12424 l 15.63173,-8.77768 26.27707,-11.78188 -21.11636,-29.450939 c -9.92561,-12.844821 -11.89056,-24.28715 5.67829,-36.779772 z"
       id="path98"
       sodipodi:nodetypes="ccccccccccccccccccccccc" />
    <path
       style="display:inline;fill:none;stroke:white;stroke-width:1px;stroke-linecap:butt;stroke-linejoin:miter;stroke-opacity:1"
       d="m 571.59239,149.95491 c -5.3243,12.38419 0.19742,18.6303 10.25401,22.31038 5.30887,0.77242 8.43492,0.50223 10.96998,-0.0504 l 19.01789,-8.55277 c 3.49873,-3.01644 7.86111,-12.5883 -5.71725,-5.96745 l -12.89596,5.15084 c -6.10943,1.77381 -16.10838,-0.5586 -6.98573,-11.36715 l 15.87954,-9.81852 c 3.47699,-1.23004 8.64824,-9.75176 -2.72232,-5.78478 l -5.94064,2.81452 c -16.19578,7.28528 -19.85019,9.60114 -21.85952,11.26514 z"
       id="path100"
       sodipodi:nodetypes="ccccccccccc" />
    <path
       style="display:inline;fill:none;stroke:white;stroke-width:1px;stroke-linecap:butt;stroke-linejoin:miter;stroke-opacity:1"
       d="m 668.68312,191.67236 c 4.54325,9.64788 9.42507,16.77136 14.51654,22.33073 14.27552,10.86303 21.56061,-0.048 22.76905,-10.72586 l -13.46561,-27.0435 c -1.78311,-2.37086 -2.81028,-4.97622 -4.00449,-6.10686 -6.65411,-6.29955 -7.81275,5.45811 -2.88863,10.7858 l 9.43209,16.92725 c 4.22621,10.96387 -3.65027,12.48001 -9.54148,4.93776 l -10.45632,-16.00779 c -11.29157,-11.50489 -13.62048,-4.82175 -6.36115,4.90247 z"
       id="path102"
       sodipodi:nodetypes="ccccsccccc" />
    <path
       style="display:inline;fill:none;stroke:white;stroke-width:1px;stroke-linecap:butt;stroke-linejoin:miter;stroke-opacity:1"
       d="m 708.11955,127.8565 18.25091,-8.47077 c 8.34088,-7.31332 3.71919,-12.65317 -6.30031,-10.89774 l -18.22555,7.35381 c -9.05574,3.68971 -11.70944,-2.94898 -2.50915,-6.84964 10.28097,-2.88344 20.98945,-10.065985 30.76075,-7.82567 10.90279,3.39257 9.7725,9.07695 9.36278,14.6241 -0.99232,3.86903 -1.73819,7.72017 -8.30938,11.99451 l -20.01899,9.09091 c -10.426,4.47784 -20.41903,-3.42164 -3.01106,-9.01951 z"
       id="path104"
       sodipodi:nodetypes="cccccccccc" />
    <path
       style="display:inline;fill:none;stroke:white;stroke-width:1px;stroke-linecap:butt;stroke-linejoin:miter;stroke-opacity:1"
       d="M 615.76686,98.846942 605.67318,85.87336 c -5.46448,-7.032111 -0.23349,-18.106638 10.89024,-8.068849 l 12.81042,13.951341 c 7.06112,6.577762 13.8152,2.659796 5.26665,-6.538732 L 620.77813,67.755248 c -8.34825,-6.604366 -15.14597,-6.849194 -20.46517,-1.029544 -6.89057,7.279133 -7.27726,13.808191 -2.46685,19.737874 l 12.60717,17.729952 c 5.46151,6.67561 13.22124,3.92488 5.31358,-5.346588 z"
       id="path106"
       sodipodi:nodetypes="cccccccccc" />
    <path
       style="display:inline;fill:none;stroke:white;stroke-width:1px;stroke-linecap:butt;stroke-linejoin:miter;stroke-opacity:1"
       d="m 669.1565,68.061678 c 0.39898,-3.069278 1.03227,-5.977948 5.5465,-6.230855 2.41768,-0.265947 4.1581,1.620609 5.51406,4.728341 -0.032,3.093666 -0.37822,6.009597 -5.42049,6.346701 -3.26871,0.421629 -5.17119,-1.160183 -5.64007,-4.844187 z"
       id="path108"
       sodipodi:nodetypes="ccccc" />
    <path
       style="display:inline;fill:none;stroke:white;stroke-width:1px;stroke-linecap:butt;stroke-linejoin:miter;stroke-opacity:1"
       d="m 675.86363,52.250222 c -13.35934,1.044695 -16.04664,8.816704 -15.51787,18.616018 1.98126,11.395121 8.45427,12.954184 15.84307,12.507296 9.39588,-1.891403 13.90347,-7.520188 14.28096,-16.306826 -1.47774,-9.232335 -6.55928,-13.90167 -14.60616,-14.816488 z"
       id="path110"
       sodipodi:nodetypes="ccccc" />
    <path
       style="display:inline;fill:none;stroke:white;stroke-width:1px;stroke-linecap:butt;stroke-linejoin:miter;stroke-opacity:1"
       d="m 554.84507,61.796338 c -4.89828,0.770975 -6.28415,4.360034 -6.68147,8.742193 1.9336,3.981137 4.88468,4.741686 8.03119,4.883584 2.00213,-1.630228 4.20519,-2.569953 5.17287,-7.752721 -0.10394,-3.025772 -2.61663,-4.80889 -6.52259,-5.873056 z"
       id="path112"
       sodipodi:nodetypes="ccccc" />
    <path
       style="display:inline;fill:none;stroke:white;stroke-width:1px;stroke-linecap:butt;stroke-linejoin:miter;stroke-opacity:1"
       d="m 559.92693,97.892235 c -5.30223,1.154841 -5.88282,4.333755 -6.35859,7.557685 1.14519,4.32379 4.36286,4.1511 7.27213,4.64766 2.03978,-0.20831 3.79788,-1.66354 4.92843,-5.8975 0.29825,-4.702308 -3.15851,-5.057661 -5.84197,-6.307845 z"
       id="path114"
       sodipodi:nodetypes="ccccc" />
    <path
       style="display:inline;fill:none;stroke:white;stroke-width:1px;stroke-linecap:butt;stroke-linejoin:miter;stroke-opacity:1"
       d="m 559.31907,89.875087 c 7.92078,0.158172 13.76882,4.199028 16.35602,14.348743 -0.73483,7.42485 -4.8787,13.19941 -14.50814,16.3184 -7.65474,-0.35054 -15.30781,-0.70484 -17.83687,-12.85678 0.37661,-7.900495 1.47208,-17.838182 15.98899,-17.810363 z"
       id="path116"
       sodipodi:nodetypes="ccccc" />
    <path
       style="display:inline;fill:none;stroke:white;stroke-width:1px;stroke-linecap:butt;stroke-linejoin:miter;stroke-opacity:1"
       d="m 633.51305,202.5591 c -5.94742,-0.2226 -7.7144,2.4354 -7.19096,6.67183 3.18384,4.2932 5.5549,3.16683 8.13714,3.44886 2.60669,-1.0829 3.49498,-2.8735 2.69912,-5.35762 -0.93401,-3.10598 -2.33371,-3.6965 -3.6453,-4.76307 z"
       id="path118"
       sodipodi:nodetypes="ccccc" />
    <path
       style="display:inline;fill:none;stroke:white;stroke-width:1px;stroke-linecap:butt;stroke-linejoin:miter;stroke-opacity:1"
       d="m 633.97427,193.75436 c -14.9129,2.73507 -16.40872,9.05751 -18.58738,15.19736 2.46861,9.19191 7.38912,11.79994 12.70119,13.35624 8.11027,-0.12336 17.83662,1.94814 19.41049,-7.05305 z"
       id="path120"
       sodipodi:nodetypes="ccccc" />
    <path
       style="display:inline;fill:none;stroke:white;stroke-width:1px;stroke-linecap:butt;stroke-linejoin:miter;stroke-opacity:1"
       d="m 559.99961,48.706676 c -3.11229,-1.433765 -6.87377,-2.451009 -6.97835,-5.81422 -1.25315,-5.927991 1.75839,-7.660768 6.78086,-7.415402 3.2734,-2.224298 5.4648,0.56532 7.17466,5.586305 1.56217,5.208819 -1.15215,7.490675 -6.97717,7.643317 z"
       id="path122"
       sodipodi:nodetypes="ccccc" />
    <path
       style="display:inline;fill:none;stroke:white;stroke-width:1px;stroke-linecap:butt;stroke-linejoin:miter;stroke-opacity:1"
       d="m 523.40185,42.117408 c 5.16191,-23.608809 19.89265,-10.050014 18.75354,0.173283 l -6.03107,134.769699 c -6.66604,14.25987 -13.91043,8.79104 -15.88392,0 z"
       id="path124"
       sodipodi:nodetypes="ccccc" />
    <path
       style="display:inline;fill:none;stroke:white;stroke-width:1px;stroke-linecap:butt;stroke-linejoin:miter;stroke-opacity:1"
       d="m 755.29387,168.80835 c -3.91323,1.24665 -6.61949,3.64001 -6.31653,8.8919 0.31985,4.78098 3.392,4.87427 6.45054,4.98983 2.85538,-0.59226 4.3748,-3.5618 5.91665,-6.4917 -0.81271,-2.6949 0.97066,-5.88898 -6.05066,-7.39003 z"
       id="path126"
       sodipodi:nodetypes="ccccc" />
    <path
       style="display:inline;fill:none;stroke:white;stroke-width:1px;stroke-linecap:butt;stroke-linejoin:miter;stroke-opacity:1"
       d="m 754.70961,157.96639 c -12.12915,1.58066 -16.0664,9.28255 -16.61004,19.52018 1.15526,15.61404 9.35855,14.49535 16.68152,15.46636 9.04517,-4.35532 16.37833,-9.71348 16.51601,-19.28662 -0.77161,-9.91192 -7.41462,-14.04963 -16.58749,-15.69992 z"
       id="path128"
       sodipodi:nodetypes="ccccc" />
    <path
       style="display:inline;fill:none;stroke:white;stroke-width:1px;stroke-linecap:butt;stroke-linejoin:miter;stroke-opacity:1"
       d="m 778.65535,149.62284 c -5.45263,0.66878 -6.91919,3.94541 -7.0711,8.08214 2.40408,4.93259 4.64352,4.49729 6.88681,4.18244 2.38952,-1.20397 5.07354,-1.41615 6.30901,-6.50828 -0.92954,-2.41794 -0.89076,-5.27056 -6.12472,-5.7563 z"
       id="path130"
       sodipodi:nodetypes="ccccc" />
    <path
       style="display:inline;fill:none;stroke:white;stroke-width:1px;stroke-linecap:butt;stroke-linejoin:miter;stroke-opacity:1"
       d="m 794.78196,131.24823 -7.37328,9.15303 7.33666,4.7176 6.78302,-6.98319 z"
       id="path132" />
    <path
       style="display:inline;fill:none;stroke:white;stroke-width:1px;stroke-linecap:butt;stroke-linejoin:miter;stroke-opacity:1"
       d="m 814.41529,148.70172 c 15.89856,-4.12876 11.13974,11.06777 11.13974,11.06777 l -101.73145,97.11936 c -5.7861,7.24798 -30.24285,6.24514 -12.81004,-12.33564 z"
       id="path134"
       sodipodi:nodetypes="ccccc" />
    <path
       style="display:inline;fill:none;stroke:white;stroke-width:1px;stroke-linecap:butt;stroke-linejoin:miter;stroke-opacity:1"
       d="m 869.11124,318.3998 c -6.50166,0.30759 -7.11591,5.03132 -7.67291,9.79798 1.29368,2.80951 3.95716,3.35571 9.62352,3.36532 3.00866,-1.19049 4.45778,-3.90583 5.4105,-7.10656 -0.99261,-2.50873 -2.31954,-5.39321 -7.36111,-6.05674 z"
       id="path376"
       sodipodi:nodetypes="ccccc" />
    <path
       style="display:inline;fill:none;stroke:white;stroke-width:1px;stroke-linecap:butt;stroke-linejoin:miter;stroke-opacity:1"
       d="m 870.73138,310.28645 c -12.55781,0.87271 -15.47636,8.00006 -16.32657,16.46961 1.69906,7.99174 6.18394,12.76825 14.08697,13.59972 8.75412,-1.94188 12.04671,-6.71613 13.28411,-12.55622 0.48935,-7.81666 0.54213,-15.42633 -11.04451,-17.51311 z"
       id="path378"
       sodipodi:nodetypes="ccccc" />
    <path
       style="display:inline;fill:none;stroke:white;stroke-width:1px;stroke-linecap:butt;stroke-linejoin:miter;stroke-opacity:1"
       d="m 870.16263,299.58021 c -30.71836,8.47051 -22.71765,17.03138 -26.08468,25.56571 2.33651,30.84243 15.52754,16.86895 23.5677,24.16232 25.76123,-8.5212 19.10135,-19.48354 22.81574,-27.31674 -1.85715,-6.19257 -2.4663,-11.32851 -6.03683,-16.07722 -2.07009,-2.75333 -6.00956,-5.02498 -14.26193,-6.33407 z"
       id="path380"
       sodipodi:nodetypes="ccccsc" />
    <path
       style="display:inline;fill:none;stroke:white;stroke-width:1px;stroke-linecap:butt;stroke-linejoin:miter;stroke-opacity:1"
       d="m 864.61346,289.05316 c -36.08887,11.79181 -27.63197,25.82148 -35.31799,39.04019 6.58545,28.4529 23.97125,29.30275 39.7657,34.21938 12.38576,-6.49715 25.60622,-11.62226 29.13844,-32.67002 -0.39659,-9.14218 -1.28888,-18.18925 -7.82033,-26.15306 -5.38875,-8.58225 -14.0889,-13.26295 -25.76582,-14.43649 z"
       id="path382"
       sodipodi:nodetypes="cccccc" />
    <path
       style="display:inline;fill:none;stroke:white;stroke-width:1px;stroke-linecap:butt;stroke-linejoin:miter;stroke-opacity:1"
       d="m 858.40649,279.41235 c -39.38118,10.80047 -35.44082,25.99912 -39.43324,41.09435 -0.75161,2.84029 -0.0559,5.45859 -0.90938,8.44529 1.16264,26.5326 18.6232,44.30774 50.35923,45.84577 43.75524,-14.21034 39.29009,-33.2393 39.80815,-51.77034 -2.36097,-13.54497 -3.54535,-27.53275 -19.19764,-36.0754 -7.96082,-3.93704 -13.73866,-9.25647 -30.62712,-7.53967 z"
       id="path384"
       sodipodi:nodetypes="csccccc" />
    <path
       style="display:inline;fill:none;stroke:white;stroke-width:1px;stroke-linecap:butt;stroke-linejoin:miter;stroke-opacity:1"
       d="m 846.55878,267.69831 c 0.88821,1.18887 1.63143,3.31248 2.34923,4.03404 3.02595,3.04209 6.69187,1.20692 6.89945,-4.3348 l -1.0741,-13.11931 c 1.10129,-1.52134 0.83589,-3.08001 1.74713,-4.08526 6.08257,-6.71052 13.72171,-2.24015 13.25467,2.82214 l -0.49095,13.74601 c 0.35742,7.27967 8.4904,5.85441 7.25758,-0.60401 l 0.64128,-18.52224 c 0.27667,-5.22202 -3.15227,-8.17301 -10.88674,-8.48507 -5.43385,-0.27938 -10.86762,-1.12366 -16.30147,1.81137 -6.04987,0.51752 -9.25418,5.38899 -5.81094,12.53335 z"
       id="path386"
       sodipodi:nodetypes="csccscccccccc" />
    <path
       style="display:inline;fill:none;stroke:white;stroke-width:1px;stroke-linecap:butt;stroke-linejoin:miter;stroke-opacity:1"
       d="m 889.20769,259.57031 c 0.33105,-11.14807 3.35849,-14.94264 9.92627,-9.08643 3.14809,1.98623 7.78323,3.97244 7.39613,5.9587 5.17424,2.92486 -0.50614,7.24432 -2.85512,11.13572 l -4.48098,5.95155 c -6.07065,6.30297 2.50325,7.76818 6.03013,4.34639 5.64022,-4.7871 10.74864,-9.57416 13.84685,-14.36124 2.84138,-6.22471 1.20931,-11.31494 -5.79431,-15.04294 -5.19765,-3.38306 -9.40555,-7.58338 -18.05261,-8.11821 -7.38231,-1.98356 -11.98449,0.92504 -12.02231,9.23058 l -0.98096,17.26512 c 0.26546,8.52264 7.65507,4.94284 7.35304,0 z"
       id="path388"
       sodipodi:nodetypes="ccccccccccccc" />
    <path
       style="display:inline;fill:none;stroke:white;stroke-width:1px;stroke-linecap:butt;stroke-linejoin:miter;stroke-opacity:1"
       d="m 905.1599,285.83181 c -3.90214,9.48697 3.16451,7.41031 6.21315,4.35675 l 5.85629,-5.69659 c 4.30945,-2.63033 7.64282,-2.43202 9.64399,1.62695 1.56977,3.68015 0.8929,6.62967 -1.9739,8.86689 l -9.47104,5.74828 c -8.89413,5.7111 -3.07272,10.9919 4.2195,7.6286 l 14.39617,-6.84305 c 3.47844,-2.26472 6.59369,-5.72141 3.9638,-13.77264 l -4.91804,-12.00146 c -5.20341,-8.25233 -9.79494,-3.86744 -13.28482,-2.68372 -5.48839,3.09854 -10.10032,7.87014 -14.6451,12.76999 z"
       id="path390"
       sodipodi:nodetypes="cccccccccccc" />
    <path
       style="display:inline;fill:none;stroke:white;stroke-width:1px;stroke-linecap:butt;stroke-linejoin:miter;stroke-opacity:1"
       d="m 919.4372,315.1538 c 7.49305,-2.63381 13.76969,-4.04966 20.03024,-4.54411 5.48368,-1.60274 8.52487,2.40961 8.81146,10.76449 l 0.35901,5.77293 c 1.41162,11.77813 -4.38118,12.82184 -10.3953,13.53571 l -14.13423,-1.59694 c -7.05576,-0.482 -11.61276,-5.9932 -1.49462,-7.62544 l 9.81719,0.12315 c 6.02483,-0.18995 10.60457,-1.20679 7.08758,-6.85627 -0.69484,-4.44711 -2.46875,-7.59172 -8.87836,-5.13576 l -10.19837,1.08648 c -9.1184,1.51417 -6.08184,-5.71908 -1.00446,-5.52415 z"
       id="path392"
       sodipodi:nodetypes="cccccccccccc" />
    <path
       style="display:inline;fill:none;stroke:white;stroke-width:1px;stroke-linecap:butt;stroke-linejoin:miter;stroke-opacity:1"
       d="m 921.719,346.33431 18.70948,2.03946 c 3.46508,1.29327 7.83171,1.45447 5.95872,9.45081 l -4.17607,15.07473 c -3.87864,6.69007 -8.42333,7.27681 -13.35057,4.3603 l -10.74344,-6.59114 c -9.27809,-2.27289 -13.19197,-12.6676 0.97456,-8.82216 l 9.53486,4.6693 c 2.46557,0.1208 5.264,1.60409 6.29109,-4.16557 -0.032,-3.1603 -1.28352,-5.80114 -7.09023,-6.50678 l -7.13644,-1.43524 c -6.27478,1.33994 -7.17443,-9.72072 1.02804,-8.07371 z"
       id="path394"
       sodipodi:nodetypes="cccccccccccc" />
    <path
       style="display:inline;fill:none;stroke:white;stroke-width:1px;stroke-linecap:butt;stroke-linejoin:miter;stroke-opacity:1"
       d="m 905.95495,378.41271 6.72761,5.72793 c 4.33111,4.02601 1.94726,6.72311 0.21108,8.67739 -4.28025,5.81747 -6.55721,6.63358 -10.84826,0.0664 l -4.31361,-7.37985 c -6.18604,-9.78007 -10.41474,-1.65668 -6.16158,3.44612 l 8.12412,15.78528 c 3.53208,7.84444 9.80878,2.97334 15.63797,0.17565 l 11.10743,-12.21944 c 3.11332,-2.75489 6.13549,-5.53853 -3.85465,-12.42981 l -11.6693,-7.26033 c -9.00759,-5.06513 -11.64141,0.3595 -4.96064,5.41031 z"
       id="path396"
       sodipodi:nodetypes="cccccccccccc" />
    <path
       style="display:inline;fill:none;stroke:white;stroke-width:1px;stroke-linecap:butt;stroke-linejoin:miter;stroke-opacity:1"
       d="m 878.65223,391.40908 c -3.1198,-14.27868 8.45427,-7.50673 8.62284,-1.17648 l 5.41121,14.53778 c 1.76272,5.3383 0.12549,9.27546 -5.62991,11.07153 l -15.66603,2.29893 c -5.90771,0.73035 -10.31902,-1.41467 -11.17876,-10.38339 l 1.452,-15.65329 c -0.62609,-9.3189 6.63166,-10.94623 6.64493,-1.19025 l 1.71266,9.21372 c 0.88509,4.91833 1.88268,9.63308 6.99325,6.90606 4.41987,-0.19999 4.75506,-3.48499 3.54014,-7.94081 z"
       id="path398"
       sodipodi:nodetypes="cccccccccccc" />
    <path
       style="display:inline;fill:none;stroke:white;stroke-width:1px;stroke-linecap:butt;stroke-linejoin:miter;stroke-opacity:1"
       d="m 834.66769,385.19372 c 6.89767,-11.22908 10.65005,-4.69947 5.54131,2.59587 l -4.00258,8.63707 c -2.47891,8.94683 8.00659,9.60481 9.47577,3.60426 l 3.35984,-10.04839 c 3.78539,-8.42506 8.74605,-9.21848 8.15626,1.58223 l -2.82659,16.27264 c -2.92502,5.33859 -7.59125,6.73476 -13.67431,4.92326 l -8.85782,-5.63063 c -8.41477,-3.41796 -3.9075,-8.51363 -2.2584,-13.23819 z"
       id="path400"
       sodipodi:nodetypes="ccccccccccc" />
    <path
       style="display:inline;fill:none;stroke:white;stroke-width:1px;stroke-linecap:butt;stroke-linejoin:miter;stroke-opacity:1"
       d="m 808.04559,377.24839 c -7.85776,7.95348 2.88855,12.081 8.13642,6.04624 l 6.86299,-8.73307 c 7.07454,-6.68359 12.43075,0.99415 7.95731,6.91244 l -11.61541,16.35675 c -5.53747,9.60647 -11.51203,4.72405 -18.80256,-4.93817 -5.6854,-6.19622 -10.24601,-12.41484 -2.5424,-18.87744 l 12.4409,-11.04537 c 7.45445,-7.73997 10.25594,0.8054 5.40509,4.89407 z"
       id="path402"
       sodipodi:nodetypes="cccccccccc" />
    <path
       style="display:inline;fill:none;stroke:white;stroke-width:1px;stroke-linecap:butt;stroke-linejoin:miter;stroke-opacity:1"
       d="m 946.34225,404.39524 c -2.59862,0.0856 -4.32056,2.01278 -5.12376,5.86984 0.4278,2.75915 1.07707,5.35787 5.70339,5.07702 3.07073,-0.52364 5.25116,-2.03318 5.07628,-6.15129 -1.92391,-4.48983 -3.79346,-4.90416 -5.65591,-4.79557 z"
       id="path404"
       sodipodi:nodetypes="ccccc" />
    <path
       style="display:inline;fill:none;stroke:white;stroke-width:1px;stroke-linecap:butt;stroke-linejoin:miter;stroke-opacity:1"
       d="m 945.9187,395.1243 c -11.267,2.92581 -12.15073,9.76434 -14.04954,16.22039 0.29744,12.19707 8.07173,12.79691 15.03851,14.64958 8.37829,-2.33726 15.00692,-5.88705 13.51637,-15.06299 0.0239,-10.75297 -4.97417,-15.83921 -14.50534,-15.80698 z"
       id="path406"
       sodipodi:nodetypes="ccccc" />
    <path
       style="display:inline;fill:none;stroke:white;stroke-width:1px;stroke-linecap:butt;stroke-linejoin:miter;stroke-opacity:1"
       d="m 945.2034,386.12184 c -13.73572,2.68841 -20.29302,12.70003 -22.52742,27.1217 3.29563,18.88774 13.21638,21.34597 24.24264,21.06254 17.87516,-3.2463 23.79589,-13.18465 23.16933,-26.78817 -3.28341,-23.91613 -14.0558,-22.75049 -24.88455,-21.39607 z"
       id="path408"
       sodipodi:nodetypes="ccccc" />
    <path
       style="display:inline;fill:none;stroke:white;stroke-width:1px;stroke-linecap:butt;stroke-linejoin:miter;stroke-opacity:1"
       d="m 822.34167,421.94738 c -2.87602,-0.43825 -4.20999,1.71238 -4.94514,4.86842 0.0399,2.24049 0.83143,4.14284 3.83322,5.04793 2.81762,-0.60202 4.56923,-2.15107 5.19116,-4.7038 0.19422,-2.44385 -0.67087,-4.40628 -4.07924,-5.21255 z"
       id="path410"
       sodipodi:nodetypes="ccccc" />
    <path
       style="display:inline;fill:none;stroke:white;stroke-width:1px;stroke-linecap:butt;stroke-linejoin:miter;stroke-opacity:1"
       d="m 822.59042,412.42441 c -8.19793,2.31632 -10.77952,9.24927 -12.06478,17.24783 0.61008,8.23024 6.45485,9.41707 11.96812,11.04976 8.92371,-2.90474 13.76233,-7.16574 12.36294,-13.49777 0.57171,-8.78856 -4.45618,-12.94513 -12.26628,-14.79982 z"
       id="path412"
       sodipodi:nodetypes="ccccc" />
    <path
       style="display:inline;fill:none;stroke:white;stroke-width:1px;stroke-linecap:butt;stroke-linejoin:miter;stroke-opacity:1"
       d="m 821.98736,406.24799 c -13.47056,-0.2693 -17.75834,9.7725 -18.61385,23.66856 1.72194,11.17534 6.37347,18.91132 18.59105,17.76493 14.12497,-1.12861 21.45411,-7.6308 21.69503,-19.73786 -1.99172,-17.0391 -11.58519,-19.82986 -21.67223,-21.69563 z"
       id="path414"
       sodipodi:nodetypes="ccccc" />
    <path
       style="display:inline;fill:none;stroke:white;stroke-width:1px;stroke-linecap:butt;stroke-linejoin:miter;stroke-opacity:1"
       d="m 858.75399,422.84587 c -4.06948,0.79793 -6.40104,3.30825 -6.7001,7.82127 0.81024,3.4463 2.31581,5.99064 5.62079,6.20102 3.45845,-1.28435 6.73786,-2.72367 6.36037,-7.32865 -0.10565,-3.27378 -0.68286,-6.25045 -5.28106,-6.69364 z"
       id="path416"
       sodipodi:nodetypes="ccccc" />
    <path
       style="display:inline;fill:none;stroke:white;stroke-width:1px;stroke-linecap:butt;stroke-linejoin:miter;stroke-opacity:1"
       d="m 880.85074,425.05949 c -3.20784,-0.26561 -5.99998,1.03522 -7.53792,7.06289 0.048,3.59354 1.96181,5.2044 4.66719,5.97951 4.97784,-0.92372 6.73904,-3.51172 6.79956,-6.97983 0.57972,-3.73609 -1.44335,-5.10927 -3.92883,-6.06257 z"
       id="path418"
       sodipodi:nodetypes="ccccc" />
    <path
       style="display:inline;fill:none;stroke:white;stroke-width:1px;stroke-linecap:butt;stroke-linejoin:miter;stroke-opacity:1"
       d="m 897.80485,421.8492 c -4.12402,1.95832 -5.34165,4.76661 -5.39292,7.91605 -0.17031,3.59034 3.18746,4.6856 6.11751,6.08313 3.95915,-1.40355 4.30746,-4.33504 4.47594,-7.34261 0.65009,-3.05464 -1.28503,-5.20286 -5.20053,-6.65657 z"
       id="path420"
       sodipodi:nodetypes="ccccc" />
    <path
       style="display:inline;fill:none;stroke:white;stroke-width:1px;stroke-linecap:butt;stroke-linejoin:miter;stroke-opacity:1"
       d="m 915.64715,421.17759 c -5.69547,0.26371 -6.61646,3.54304 -7.00514,7.15872 1.1068,4.16497 3.47987,4.72381 5.9041,5.13703 4.9145,-0.1176 6.92798,-2.77493 6.76998,-7.33328 -0.782,-2.79045 -2.21114,-4.91742 -5.66894,-4.96247 z"
       id="path422"
       sodipodi:nodetypes="ccccc" />
    <path
       style="display:inline;fill:none;stroke:white;stroke-width:1px;stroke-linecap:butt;stroke-linejoin:miter;stroke-opacity:1"
       d="m 830.02911,453.14927 c -29.93275,-1.65845 -24.56528,20.50294 0.411,18.0906 l 131.09891,0.21396 c 25.47282,-1.49235 19.7862,-22.87612 -0.68447,-20.72887 -40.36253,1.68871 -82.21054,2.97436 -130.82529,2.42427 z"
       id="path424"
       sodipodi:nodetypes="ccccc" />
    <path
       style="display:inline;fill:none;stroke:white;stroke-width:1px;stroke-linecap:butt;stroke-linejoin:miter;stroke-opacity:1"
       d="m 780.68043,341.38872 c -2.0258,-11.27167 3.97722,-11.38939 9.98846,-11.49553 l 10.57296,0.0376 c 16.59485,1.39286 4.63625,7.98049 1.55363,7.87571 -9.53132,-0.76985 -13.82687,2.18172 -11.87848,9.57139 1.74305,8.94108 8.58901,1.47167 12.75909,0.0728 8.71013,-4.33358 8.38886,-0.14897 7.03465,5.00971 l -20.16756,14.91128 c -10.04602,5.96307 -7.14028,-6.72936 -8.61874,-13.10689 z"
       id="path426"
       sodipodi:nodetypes="cccccccccc" />
    <path
       style="display:inline;fill:none;stroke:white;stroke-width:1px;stroke-linecap:butt;stroke-linejoin:miter;stroke-opacity:1"
       d="m 793.09047,284.64748 c 5.67966,-4.93311 11.32645,-1.45465 16.96532,4.04614 3.37399,1.35732 5.99261,3.0316 7.37375,5.2252 3.88159,4.96053 4.18656,9.57258 -4.98294,6.56507 -5.08859,-5.30119 -9.6899,-6.16303 -13.17288,3.16416 -2.93166,10.17784 0.10244,11.87511 6.61262,9.77092 8.91756,-0.61986 11.36002,8.73286 0.2279,7.61588 -4.52847,-0.55878 -8.36073,-2.09725 -14.84222,0.0924 -2.97827,0.247 -4.04973,-2.61043 -4.50719,-6.46743 9.71028,-5.22061 17.86894,-11.41756 6.32564,-30.01232 z"
       id="path428"
       sodipodi:nodetypes="cccccccccc" />
    <path
       style="display:inline;fill:none;stroke:white;stroke-width:1px;stroke-linecap:butt;stroke-linejoin:miter;stroke-opacity:1"
       d="m 777.54256,279.38441 c 18.77967,2.53611 18.66412,11.34111 21.36805,19.25217 -0.5989,10.45551 -11.34433,17.52732 -24.37392,21.63723 -15.56905,0.0376 -20.43669,-7.81307 -21.3716,-18.56237 2.16957,-11.98227 4.70039,-23.68922 24.37747,-22.32703 z"
       id="path430"
       sodipodi:nodetypes="ccccc" />
    <path
       style="display:inline;fill:none;stroke:white;stroke-width:1px;stroke-linecap:butt;stroke-linejoin:miter;stroke-opacity:1"
       d="m 776.27031,287.14009 c -9.80983,-0.52749 -11.45118,5.52134 -12.78323,11.81913 -0.29667,8.05399 4.91987,10.05157 10.99028,11.11105 7.12356,-1.78298 11.37472,-5.20975 11.68656,-10.89073 0.52376,-8.03073 -2.76053,-12.05823 -9.89361,-12.03945 z"
       id="path432"
       sodipodi:nodetypes="ccccc" />
    <path
       style="display:inline;fill:none;stroke:white;stroke-width:1px;stroke-linecap:butt;stroke-linejoin:miter;stroke-opacity:1"
       d="m 775.82885,294.0091 c -2.41255,-0.29009 -4.49848,0.16285 -4.80042,4.67445 -0.24866,1.8671 1.06019,3.03406 3.99219,3.47155 2.53184,-0.55037 4.6228,-1.35764 4.83126,-3.26181 -0.78681,-1.79428 1.40346,-4.48224 -4.02303,-4.88419 z"
       id="path434"
       sodipodi:nodetypes="ccccc" />
    <path
       style="display:inline;fill:none;stroke:white;stroke-width:1px;stroke-linecap:butt;stroke-linejoin:miter;stroke-opacity:1"
       d="m 787.70876,257.67077 c -4.46226,-0.43753 -6.46014,2.33519 -6.93045,7.09783 -0.25667,4.53709 1.97893,6.09232 4.96366,6.75175 3.80371,-0.74971 6.88699,-2.23007 7.63516,-6.07776 -0.0149,-3.70683 -0.96446,-6.86037 -5.66837,-7.77182 z"
       id="path436"
       sodipodi:nodetypes="ccccc" />
    <path
       style="display:inline;fill:none;stroke:white;stroke-width:1px;stroke-linecap:butt;stroke-linejoin:miter;stroke-opacity:1"
       d="m 803.13483,239.99576 c -4.2777,0.8901 -5.73378,4.22356 -6.68802,7.99167 -0.6141,3.27956 1.68037,5.22776 6.2061,6.15423 3.35617,-0.44122 5.92474,-2.05903 6.86259,-6.11274 -0.4174,-3.72988 -1.96647,-6.76326 -6.38067,-8.03316 z"
       id="path438"
       sodipodi:nodetypes="ccccc" />
    <path
       style="display:inline;fill:none;stroke:white;stroke-width:1px;stroke-linecap:butt;stroke-linejoin:miter;stroke-opacity:1"
       d="m 816.01003,254.455 c -6.34357,5.12485 -20.79174,14.29565 -8.63548,25.4903 3.769,2.86486 7.44598,5.80161 12.86152,7.37866 3.05215,2.29222 10.24929,2.30738 4.45722,-5.40451 l -5.80622,-4.74842 c -7.55361,-6.6117 -0.92867,-7.77094 1.73458,-10.45368 3.41093,-1.90026 5.43487,-8.02983 12.34975,0.75388 l 5.21492,7.22513 c 1.17646,3.76708 4.99359,3.89286 4.25884,-3.18749 0.32864,-4.35437 -2.91981,-9.52272 -4.4349,-14.42936 -2.94991,-17.90231 -14.9456,-5.79664 -22.00023,-2.62453 z"
       id="path440"
       sodipodi:nodetypes="ccccccccccc" />
    <path
       style="display:inline;fill:none;stroke:white;stroke-width:1px;stroke-linecap:butt;stroke-linejoin:miter;stroke-opacity:1"
       d="m 818.82599,225.24944 c -3.5728,0.20361 -6.84172,1.10248 -7.48868,8.00137 0.31105,4.32725 3.49186,5.47658 7.43062,5.78719 4.7454,-0.63888 6.7639,-2.64035 7.11213,-8.84391 -2.00924,-1.70252 -2.08712,-4.90325 -7.05407,-4.94465 z"
       id="path442"
       sodipodi:nodetypes="ccccc" />
    <path
       style="display:inline;fill:none;stroke:white;stroke-width:1px;stroke-linecap:butt;stroke-linejoin:miter;stroke-opacity:1"
       d="m 862.17846,208.34053 c -4.61907,-0.70061 -4.89702,2.87454 -5.62368,6.0075 0.74602,2.38202 0.64846,5.20171 5.58441,5.41134 4.06253,-0.76211 5.68149,-3.01268 5.85411,-6.14421 -1.21018,-2.31617 -1.69979,-5.1847 -5.81484,-5.27463 z"
       id="path444"
       sodipodi:nodetypes="ccccc" />
    <path
       style="display:inline;fill:none;stroke:white;stroke-width:1px;stroke-linecap:butt;stroke-linejoin:miter;stroke-opacity:1"
       d="m 863.25815,197.59213 c -8.72678,2.13019 -14.5075,7.8873 -16.16787,18.71682 2.33413,12.16475 8.61211,12.49072 14.82286,13.01868 8.75483,-1.89881 13.54325,-7.4662 15.23442,-15.8982 -0.25428,-12.59265 -6.42113,-15.30258 -13.88941,-15.8373 z"
       id="path446"
       sodipodi:nodetypes="ccccc" />
    <path
       style="display:inline;fill:none;stroke:white;stroke-width:1px;stroke-linecap:butt;stroke-linejoin:miter;stroke-opacity:1"
       d="m 860.42548,189.32679 c -13.60561,1.8397 -21.92867,11.07438 -22.74115,30.82307 7.16092,19.23342 15.52722,15.10753 23.57058,17.23953 13.09468,-2.57679 23.48653,-8.58402 24.92821,-25.95075 -4.81992,-23.20368 -15.51099,-21.72382 -25.75764,-22.11185 z"
       id="path448"
       sodipodi:nodetypes="ccccc" />
    <path
       style="display:inline;fill:none;stroke:white;stroke-width:1px;stroke-linecap:butt;stroke-linejoin:miter;stroke-opacity:1"
       d="m 726.26339,269.96488 c -8.13386,14.49459 5.8762,17.09387 13.08516,12.25485 34.59579,-34.20554 70.26195,-65.07758 103.78754,-102.61662 2.68395,-9.50801 -7.291,-14.13053 -12.20296,-9.03401 -32.32772,34.76289 -69.2111,66.62583 -104.66974,99.39578 z"
       id="path452"
       sodipodi:nodetypes="ccccc" />
    <path
       style="display:inline;fill:none;stroke:white;stroke-width:1px;stroke-linecap:butt;stroke-linejoin:miter;stroke-opacity:1"
       d="m 875.82948,511.81222 c -5.89603,-0.47752 -9.79832,3.89665 -8.44131,12.17404 1.28016,5.76968 4.70798,6.18106 8.18968,5.47146 6.08368,-1.96651 8.1804,-4.97304 9.41364,-8.20491 0.35982,-7.5068 -2.71018,-10.63302 -9.16201,-9.44059 z"
       id="path454"
       sodipodi:nodetypes="ccccc" />
    <path
       style="display:inline;fill:none;stroke:white;stroke-width:1px;stroke-linecap:butt;stroke-linejoin:miter;stroke-opacity:1"
       d="m 874.93833,503.38399 c -15.02307,2.00597 -14.91025,12.97524 -16.68385,22.82735 3.01443,8.67756 9.7254,11.55027 17.47424,12.7933 7.31229,-3.20314 14.76298,-6.09721 17.51337,-19.48875 -2.92191,-9.95773 -6.83741,-18.48415 -18.30376,-16.1319 z"
       id="path456"
       sodipodi:nodetypes="ccccc" />
    <path
       style="display:inline;fill:none;stroke:white;stroke-width:1px;stroke-linecap:butt;stroke-linejoin:miter;stroke-opacity:1"
       d="m 817.085,479.63714 c -11.05968,7.2049 -5.10384,18.01263 0.53733,18.49451 l 96.73172,1.34723 59.20512,0.11141 c 5.60041,-2.40795 8.44051,-15.28436 -0.0559,-17.93683 -24.23929,-1.01786 -48.02688,-1.28334 -71.60904,-1.20706 z"
       id="path458"
       sodipodi:nodetypes="ccccccc" />
    <path
       style="display:inline;fill:none;stroke:white;stroke-width:1px;stroke-linecap:butt;stroke-linejoin:miter;stroke-opacity:1"
       d="m 964.01417,514.593 c -6.40783,0.92836 -7.86903,4.99857 -8.98991,9.28484 1.06027,5.73547 3.7474,8.4262 8.50854,7.23455 4.84791,-1.77648 8.49009,-3.94581 7.33732,-7.67706 0.17821,-6.77277 -3.77692,-7.1276 -6.85595,-8.84233 z"
       id="path460"
       sodipodi:nodetypes="ccccc" />
    <path
       style="display:inline;fill:none;stroke:white;stroke-width:1px;stroke-linecap:butt;stroke-linejoin:miter;stroke-opacity:1"
       d="m 964.06238,506.84612 c -12.82471,2.16549 -16.25949,9.72748 -17.20726,18.7187 1.86452,12.40665 8.10476,13.87876 14.2713,15.53503 10.67147,-3.42592 17.3045,-8.22019 17.78345,-15.09966 -0.87444,-10.48163 -3.38728,-19.31596 -14.84749,-19.15407 z"
       id="path462"
       sodipodi:nodetypes="ccccc" />
    <path
       style="display:inline;fill:none;stroke:white;stroke-width:1px;stroke-linecap:butt;stroke-linejoin:miter;stroke-opacity:1"
       d="m 840.22507,512.68041 c -0.53013,7.9662 -1.33901,15.35792 -1.27096,24.55648 l 1.46239,86.05239 c -1.37068,49.33658 -13.46114,55.04853 -23.09578,59.70405 -12.21111,2.21194 -25.16306,0.33504 -23.23161,-18.73061 -3.57822,-9.53369 15.94109,-20.455 14.09472,-29.66057 -6.55864,-12.42296 -15.09056,-14.48944 -25.35247,-7.47579 -14.42082,11.26447 -24.73935,24.43403 -20.83243,44.20948 4.12348,25.87249 19.96606,39.38126 48.76466,39.22175 19.16893,-2.52258 50.02227,-26.15025 45.92113,-48.36297 1.74655,-18.29539 -1.59955,-37.54909 -3.13021,-56.46113 -1.61545,-18.80388 -4.72909,-38.37927 -5.58274,-55.47804 l -2.08352,-38.2057 c 0.38859,-7.89945 -6.14341,-5.14697 -5.66318,0.63066 z"
       id="path464"
       sodipodi:nodetypes="cccccccccccccc" />
    <path
       style="display:inline;fill:none;stroke:white;stroke-width:1px;stroke-linecap:butt;stroke-linejoin:miter;stroke-opacity:1"
       d="m 847.94219,636.72077 c -0.92801,37.45832 -16.08982,50.34165 -36.3458,54.43002 -13.51864,-0.89493 -26.36406,-2.72913 -27.74027,-20.56927 -3.20128,-10.13428 1.33438,-14.44202 4.35456,-20.47998 2.92319,-2.74653 6.4076,-4.95479 8.23829,-8.29741 3.01178,-8.86292 -3.21249,-5.99203 -8.36511,-4.48247 -7.49043,3.70177 -13.80311,9.74481 -16.09054,23.78938 -2.02155,13.79599 -0.0864,25.97505 11.83153,34.07526 20.69249,13.33678 36.51334,5.85619 51.67009,-4.46217 7.41968,-7.45878 11.85786,-16.62461 12.35793,-28.04528 1.49476,-8.25545 1.45342,-16.92744 0.0896,-25.95808 z"
       id="path466"
       sodipodi:nodetypes="ccccccccccc" />
    <path
       style="display:inline;fill:none;stroke:white;stroke-width:1px;stroke-linecap:butt;stroke-linejoin:miter;stroke-opacity:1"
       d="m 826.23828,524.69984 c 1.7636,-0.8785 2.67114,0.19016 3.6501,1.09655 l -3.67377,121.86811 c -0.009,18.77296 -6.92143,22.20354 -16.45659,19.81897 -8.22102,-2.19558 -5.57666,-9.04823 -0.7956,-16.81677 6.95084,-1.18605 8.87565,-10.46586 8.64896,-23.2102 l -0.45338,-8.09933 -5.31551,-2.44205 c -10.71425,-0.25995 -26.72588,0.9784 -32.14238,-0.78042 1.43496,-7.50061 2.03811,-6.84007 2.91072,-8.82423 l 32.96677,1.57698 c 1.89418,-0.56181 6.92015,-6.46401 0.0239,-8.29047 -8.53719,0 -14.45567,1.84019 -25.61163,-0.0149 -0.59252,-5.3241 1.55177,-5.93903 3.13731,-7.51585 l 26.06102,0.3496 c 0.11205,-2.11139 0.0935,-4.35702 -0.0559,-6.73777 l -23.63894,-0.26427 c -0.69006,-4.62033 2.40257,-6.74204 4.61002,-9.44819 l 19.74864,1.65132 c 0.58531,-2.43772 0.8064,-4.98723 -0.46617,-7.99598 l -16.9589,-0.1001 c 0.10394,-3.02409 -0.29826,-6.18096 4.66807,-7.92969 l 11.55696,0.72165 z"
       id="path468"
       sodipodi:nodetypes="cccccccccccccccccccccccc" />
    <path
       style="display:inline;fill:none;stroke:white;stroke-width:1px;stroke-linecap:butt;stroke-linejoin:miter;stroke-opacity:1"
       d="m 851.25014,717.0773 c -10.49837,1.53171 -13.05605,7.79837 -15.32205,14.23907 -0.88436,10.13735 5.75722,13.16153 13.39421,15.2448 8.63962,-3.04161 14.53859,-8.00545 15.26367,-16.59854 -0.33104,-8.78848 -4.89451,-12.95433 -13.33583,-12.88533 z"
       id="path470"
       sodipodi:nodetypes="ccccc" />
    <path
       style="display:inline;fill:none;stroke:white;stroke-width:1px;stroke-linecap:butt;stroke-linejoin:miter;stroke-opacity:1"
       d="m 850.75165,724.48962 c -3.29642,-0.0719 -5.89513,1.86361 -7.48746,6.70138 0.75562,2.77812 1.34174,5.73481 5.74155,4.66918 3.48034,-0.80008 5.64398,-2.6889 6.27287,-5.84652 -0.62048,-2.4575 -2.16765,-4.2722 -4.52696,-5.52404 z"
       id="path472"
       sodipodi:nodetypes="ccccc" />
    <path
       style="display:inline;fill:none;stroke:white;stroke-width:1px;stroke-linecap:butt;stroke-linejoin:miter;stroke-opacity:1"
       d="m 850.41119,709.55968 c -14.56881,1.13745 -18.36229,11.48861 -21.83503,22.11395 0.76682,18.44617 9.89171,18.79039 17.73108,21.91876 27.93792,-7.40952 18.54196,-16.04634 23.56938,-23.91665 -3.33163,-6.23312 3.29963,-17.99078 -19.46543,-20.11606 z"
       id="path474"
       sodipodi:nodetypes="ccccc" />
    <path
       style="display:inline;fill:none;stroke:white;stroke-width:1px;stroke-linecap:butt;stroke-linejoin:miter;stroke-opacity:1"
       d="m 894.59254,721.35245 23.83682,-39.04702 c -0.19592,-2.12989 2.36163,-5.13584 -3.26411,-5.53828 l -9.41771,-0.31664 -0.34463,-9.92226 22.41851,-0.83487 c 1.45606,-0.87032 9.37844,-7.61388 -0.81256,-9.2589 l -19.27217,0.83009 c -5.5389,-0.84725 -3.01169,-10.05083 0.14962,-10.53032 l 30.62802,-2.51634 c 0.6069,-2.43324 2.02147,-5.15275 -0.58691,-6.44696 l -28.76063,0.1161 c -4.89964,-3.1454 -2.18226,-8.26255 -0.50454,-8.7036 l 37.66274,-0.74354 c 5.3387,-4.0436 2.56016,-8.51809 -1.23147,-10.41754 -14.14663,0.83525 -28.79908,2.23496 -41.37176,1.31421 l 0.40459,-24.10016 c 1.86691,-12.73411 8.94881,-16.98444 16.9402,-20.92519 0,0 19.76053,-12.89656 -5.01775,-13.36904 -14.63054,7.21984 -19.18139,10.97416 -20.26638,50.31011 z"
       id="path476"
       sodipodi:nodetypes="ccccccccccccccccccccc" />
    <path
       style="display:inline;fill:none;stroke:white;stroke-width:1px;stroke-linecap:butt;stroke-linejoin:miter;stroke-opacity:1"
       d="m 878.5036,743.09161 c 3.06022,-3.31139 6.33772,-6.12743 6.45086,-16.16225 2.05154,-45.49749 1.78247,-92.89337 6.15436,-136.4922 11.89257,-50.16493 24.3614,-38.3305 36.723,-38.03867 18.91896,10.37037 7.82352,21.88762 3.21391,26.02308 -18.51022,8.518 -22.30545,18.26331 -15.48357,28.89428 9.30624,10.56431 18.93401,8.33727 28.62909,3.43857 13.53638,-3.84191 20.06841,-18.19672 16.69632,-47.41654 -7.72751,-36.24278 -29.85368,-37.84215 -53.21651,-36.46609 -17.61627,8.40468 -35.34087,16.54617 -37.60389,62.28842 0.78439,50.40964 5.17334,102.4206 8.43643,153.9314 z"
       id="path478"
       sodipodi:nodetypes="ccccccccccc" />
    <path
       style="display:inline;fill:none;stroke:white;stroke-width:1px;stroke-linecap:butt;stroke-linejoin:miter;stroke-opacity:1"
       d="m 879.46776,635.73717 7.15443,-61.04224 c 9.59426,-25.06047 19.41616,-28.01424 32.05825,-33.0375 24.20747,0.46186 35.11891,19.78794 21.73157,39.22557 -7.90062,6.67025 -30.52229,16.30058 -10.37979,24.30114 11.34651,0.26572 22.23133,-0.98203 24.47526,-30.56491 0.23428,-10.58508 -1.10234,-29.9404 -27.09059,-38.19503 -14.20332,-3.61207 -28.46917,-6.20008 -44.97543,28.00725 -3.98016,10.97196 -4.39949,25.84365 -4.74787,40.79314 0.46937,11.636 0.11846,26.44563 1.77417,30.51258 z"
       id="path480"
       sodipodi:nodetypes="cccccccccc" />
    <path
       style="display:inline;fill:none;stroke:white;stroke-width:1px;stroke-linecap:butt;stroke-linejoin:miter;stroke-opacity:1"
       d="m 731.76865,684.11972 c -6.45654,-12.46308 8.73924,-11.2974 10.44168,-8.60378 l 62.08001,61.54132 42.30236,42.64835 c 5.47039,6.8689 -4.13506,14.33109 -8.60643,9.8909 -29.56079,-27.4751 -55.51338,-54.77436 -82.11228,-82.10506 z"
       id="path482"
       sodipodi:nodetypes="ccccccc" />
    <path
       style="display:inline;fill:none;stroke:white;stroke-width:1px;stroke-linecap:butt;stroke-linejoin:miter;stroke-opacity:1"
       d="m 510.61143,779.46926 c 2.4691,-17.9326 14.24994,-8.25901 13.80295,-0.43819 l -2.97507,134.84656 c 3.7,13.66861 -15.21019,18.85371 -13.57594,0.5589 z"
       id="path484"
       sodipodi:nodetypes="ccccc" />
    <path
       style="display:inline;fill:none;stroke:white;stroke-width:1px;stroke-linecap:butt;stroke-linejoin:miter;stroke-opacity:1"
       d="m 544.44552,767.91077 c -3.84496,1.0582 -7.11588,2.68282 -6.84218,7.80492 -0.50854,7.05048 4.44194,5.87018 8.53478,5.98332 4.03862,-0.61649 4.04584,-3.26661 4.99015,-5.44384 -1.96973,-2.86473 -0.0399,-6.98796 -6.68275,-8.3444 z"
       id="path486"
       sodipodi:nodetypes="ccccc" />
    <path
       style="display:inline;fill:none;stroke:white;stroke-width:1px;stroke-linecap:butt;stroke-linejoin:miter;stroke-opacity:1"
       d="m 544.47719,760.24667 c -11.00436,0.55733 -14.13752,7.8141 -14.82053,17.15625 -0.87021,12.25094 7.84041,14.26409 16.92596,15.8768 8.98305,-4.5028 12.20416,-11.03346 12.80993,-18.48455 1.57267,-9.12073 -2.69473,-14.43 -14.91536,-14.5485 z"
       id="path488"
       sodipodi:nodetypes="ccccc" />
    <path
       style="display:inline;fill:none;stroke:white;stroke-width:1px;stroke-linecap:butt;stroke-linejoin:miter;stroke-opacity:1"
       d="m 638.65257,742.66271 c -3.43036,-0.1208 -8.66352,2.36626 -5.82629,9.71939 -0.67166,4.05271 1.7911,4.85503 5.0131,4.87006 4.62122,-1.3506 6.85691,-4.00168 7.06065,-7.76037 -0.65328,-4.31801 -1.85973,-7.84528 -6.24746,-6.82908 z"
       id="path490"
       sodipodi:nodetypes="ccccc" />
    <path
       style="display:inline;fill:none;stroke:white;stroke-width:1px;stroke-linecap:butt;stroke-linejoin:miter;stroke-opacity:1"
       d="m 640.90808,735.70482 c -13.13545,0.54292 -17.47631,6.77886 -19.36754,14.60088 -1.1567,11.76359 5.32143,15.78574 15.47765,16.07848 9.52972,0.61809 13.00199,-7.40816 16.57127,-15.29614 -1.13241,-8.88525 -3.99682,-15.6678 -12.68138,-15.38322 z"
       id="path492"
       sodipodi:nodetypes="ccccc" />
    <path
       style="display:inline;fill:none;stroke:white;stroke-width:1px;stroke-linecap:butt;stroke-linejoin:miter;stroke-opacity:1"
       d="m 630.09077,892.75175 c -3.67561,1.86178 -5.7493,4.50687 -4.91251,8.57501 -1.09739,4.80727 3.33785,4.00832 6.25143,4.75131 4.04622,-1.02286 5.01615,-3.73846 4.69742,-7.16299 -0.81974,-2.76294 -1.12025,-5.83446 -6.03634,-6.16333 z"
       id="path494"
       sodipodi:nodetypes="ccccc" />
    <path
       style="display:inline;fill:none;stroke:white;stroke-width:1px;stroke-linecap:butt;stroke-linejoin:miter;stroke-opacity:1"
       d="m 631.28767,882.52309 c -10.68289,2.95635 -17.25579,9.67477 -17.49351,22.19166 7.84225,12.92012 12.11372,9.22492 17.30674,9.81759 6.80437,-3.00732 14.08122,-5.42666 13.64999,-17.43708 -1.55673,-9.10154 -6.27878,-13.6197 -13.46322,-14.57217 z"
       id="path496"
       sodipodi:nodetypes="ccccc" />
    <path
       style="display:inline;fill:none;stroke:white;stroke-width:1px;stroke-linecap:butt;stroke-linejoin:miter;stroke-opacity:1"
       d="m 749.83116,828.22455 c -11.26589,0.8914 -13.57515,10.37906 -15.62285,20.11789 3.50538,8.9597 10.10824,10.03901 16.9374,10.54306 7.39646,-3.10285 11.00603,-8.37893 11.96019,-15.17884 -0.5925,-8.0527 -2.59822,-15.03897 -13.27474,-15.48211 z"
       id="path498"
       sodipodi:nodetypes="ccccc" />
    <path
       style="display:inline;fill:none;stroke:white;stroke-width:1px;stroke-linecap:butt;stroke-linejoin:miter;stroke-opacity:1"
       d="m 750.40808,837.06269 c -5.86677,-0.50533 -6.20906,3.84977 -6.61878,8.14547 0.49334,2.17172 2.70145,3.14692 6.93837,2.70546 4.06294,0.5957 4.13435,-2.68011 4.0029,-6.15223 -0.44218,-2.01827 0.64127,-4.7274 -4.32249,-4.6987 z"
       id="path500"
       sodipodi:nodetypes="ccccc" />
    <path
       style="display:inline;fill:none;stroke:white;stroke-width:1px;stroke-linecap:butt;stroke-linejoin:miter;stroke-opacity:1"
       d="m 713.03527,700.75312 c -3.88319,-3.7136 5.0929,-18.82757 10.1267,-10.47854 l 100.9896,104.75299 c 11.80706,9.38245 -2.19316,21.03577 -10.61337,16.0133 z"
       id="path502"
       sodipodi:nodetypes="ccccc" />
    <path
       style="display:inline;fill:none;stroke:white;stroke-width:1px;stroke-linecap:butt;stroke-linejoin:miter;stroke-opacity:1"
       d="m 535,802.38719 c 8.57964,6.3498 0.65486,14.98596 -0.35822,22.66446 l -2.38594,8.55318 c 3.1565,17.12434 10.96133,11.29204 17.70909,10.68044 14.4233,-9.11706 16.14557,-22.5207 21.92285,-34.55581 6.67338,-14.43323 12.85263,-24.63501 18.6012,-31.14826 11.08295,-10.25329 25.93507,-8.56267 15.72793,10.45752 -13.16153,22.99606 -28.93112,47.51241 -48.62713,74.31737 l -22.80537,37.57455 c -15.47044,31.15199 7.54353,21.05982 10.76033,8.07885 l 74.97183,-114.08347 c 15.52028,-34.92419 -11.28093,-54.3557 -42.22448,-20.59485 L 553.938,829.39068 c -5.04012,4.2283 -10.50364,9.63624 -9.68038,-2.46581 2.35979,-6.60807 5.39067,-13.10659 5.16446,-20.13685 -1.45736,-3.32385 -1.87738,-6.8002 -8.15912,-9.41489 -3.85632,-0.26707 -5.62848,1.75007 -6.26256,5.01406 z"
       id="path504"
       sodipodi:nodetypes="ccccccccccccccccc" />
    <path
       style="display:inline;fill:none;stroke:white;stroke-width:1px;stroke-linecap:butt;stroke-linejoin:miter;stroke-opacity:1"
       d="m 558.66811,908.25081 c 42.38489,-66.39026 85.82852,-132.19594 132.44592,-196.24946 4.99175,-7.63635 22.42418,-18.56587 8.60331,8.11859 -18.30055,24.33604 -36.44976,49.49807 -54.33451,76.10328 -20.89967,32.73823 1.9838,21.11187 9.74842,6.0609 l 51.18409,-78.13187 c 20.98968,-23.18004 15.93693,4.927 9.64934,8.63131 -39.12577,56.25029 -78.14673,109.60281 -117.6377,175.94358 -7.47561,7.8377 -24.60252,18.10698 -11.08254,-4.81343 l 42.25878,-64.88143 c 10.0533,-16.80811 1.31845,-17.90716 -8.53935,-5.02326 l -52.17399,80.86835 c -3.74638,7.12747 -23.76785,14.7635 -10.12177,-6.62656 z"
       id="path506"
       sodipodi:nodetypes="ccccccccccccc" />
    <path
       style="display:inline;fill:none;stroke:white;stroke-width:1px;stroke-linecap:butt;stroke-linejoin:miter;stroke-opacity:1"
       d="m 725.73526,737.40141 c 3.57198,-7.16339 6.23297,-4.28065 8.9249,-1.73961 5.15655,3.75989 11.11631,7.23024 6.52938,14.50278 l -68.30235,97.12982 c -14.82772,33.89775 1.69371,25.82714 12.19207,9.60506 9.65648,-13.5479 20.77887,-27.17374 28.18709,-40.72252 l 23.58897,-32.31716 c 10.61255,-6.88576 19.90927,-17.52439 38.27387,-2.29982 11.32045,12.84728 11.23952,24.56799 0.57412,35.24325 l -10.01821,6.94478 c -15.85394,4.47656 -18.03838,-8.26381 -4.11459,-13.64392 14.69636,-5.70092 15.38305,-18.61649 -0.0239,-19.69237 -9.59098,-1.78838 -16.61468,2.3881 -22.37196,9.50736 -6.95488,13.54269 -13.47738,27.57481 -22.56772,38.69904 l -30.25061,42.66544 c -16.57597,17.35199 -48.45105,15.02843 -40.15327,-19.6514 l 23.98245,-41.36419 z"
       id="path508"
       sodipodi:nodetypes="cccccccccccccccccc" />
    <path
       style="display:inline;fill:none;stroke:white;stroke-width:1px;stroke-linecap:butt;stroke-linejoin:miter;stroke-opacity:1"
       d="m 185.65995,793.59213 c -16.56552,21.17616 5.46004,17.94321 11.18736,11.37018 33.26688,-36.5083 67.29431,-71.42609 103.70606,-101.35742 9.17952,-0.762 -0.41062,-25.53216 -12.39434,-10.07234 -35.32768,31.28634 -69.91509,63.89016 -102.49908,100.05958 z"
       id="path510"
       sodipodi:nodetypes="ccccc" />
    <path
       style="display:inline;fill:none;stroke:white;stroke-width:1px;stroke-linecap:butt;stroke-linejoin:miter;stroke-opacity:1"
       d="m 486.41378,777.59281 c 1.08971,-19.14428 18.33009,-8.28122 13.19833,0.64528 l -5.34874,132.63583 c 1.05043,8.45698 -6.71878,10.76039 -13.75326,2.60517 z"
       id="path512"
       sodipodi:nodetypes="ccccc" />
    <path
       style="display:inline;fill:none;stroke:white;stroke-width:1px;stroke-linecap:butt;stroke-linejoin:miter;stroke-opacity:1"
       d="m 233.11967,791.08394 c -3.56172,0.89723 -7.38651,1.44888 -6.62916,8.02088 0.86707,5.70124 4.3434,3.3413 6.73653,4.32776 3.87843,-1.03052 5.03432,-3.39526 4.81848,-6.43214 -0.14257,-1.93552 0.34567,-3.8557 -4.92585,-5.9165 z"
       id="path514"
       sodipodi:nodetypes="ccccc" />
    <path
       style="display:inline;fill:none;stroke:white;stroke-width:1px;stroke-linecap:butt;stroke-linejoin:miter;stroke-opacity:1"
       d="m 233.44692,782.41314 c -8.93018,1.2896 -15.26579,5.84684 -15.83242,17.67006 0.78083,10.41082 9.36483,10.02198 15.46195,13.07494 8.03316,-0.73163 13.10395,-4.61283 14.93047,-11.94325 0.85352,-11.6346 -4.08663,-17.82023 -14.56,-18.80175 z"
       id="path516"
       sodipodi:nodetypes="ccccc" />
    <path
       style="display:inline;fill:none;stroke:white;stroke-width:1px;stroke-linecap:butt;stroke-linejoin:miter;stroke-opacity:1"
       d="m 463.35371,897.32802 c -7.3603,0.0856 -10.92049,4.01921 -10.76737,11.71449 1.11017,5.26402 4.71464,7.40111 10.11624,7.28494 4.74219,-2.23033 7.85294,-4.92197 7.10805,-8.70399 -0.6679,-3.89958 -0.19422,-8.15897 -6.45692,-10.29544 z"
       id="path518"
       sodipodi:nodetypes="ccccc" />
    <path
       style="display:inline;fill:none;stroke:white;stroke-width:1px;stroke-linecap:butt;stroke-linejoin:miter;stroke-opacity:1"
       d="m 333.96806,856.00686 c -4.97139,0.57572 -7.11287,3.7934 -7.83537,8.33608 1.11679,3.88822 3.65104,6.0023 8.03478,5.80095 3.99645,-1.49588 6.32504,-3.54614 6.21334,-6.40728 -1.15465,-3.6437 -2.40562,-7.18282 -6.41275,-7.72975 z"
       id="path520"
       sodipodi:nodetypes="ccccc" />
    <path
       style="display:inline;fill:none;stroke:white;stroke-width:1px;stroke-linecap:butt;stroke-linejoin:miter;stroke-opacity:1"
       d="m 378.51601,766.39009 c -3.04044,-0.13596 -6.05198,-0.17437 -6.98533,6.84107 0.16157,4.905 3.68286,5.64015 7.40133,6.13087 3.8905,-1.11354 4.03478,-4.00433 4.19154,-6.88905 -0.213,-2.63924 -0.5087,-5.24028 -4.60754,-6.08289 z"
       id="path522"
       sodipodi:nodetypes="ccccc" />
    <path
       style="display:inline;fill:none;stroke:white;stroke-width:1px;stroke-linecap:butt;stroke-linejoin:miter;stroke-opacity:1"
       d="m 358.48351,812.61552 c -5.1462,0.56851 -3.90895,3.79451 -5.19125,5.97159 1.54337,3.75916 4.77553,3.46875 7.78774,3.70559 2.20826,-2.10838 3.67065,-4.47304 3.04554,-7.55422 -1.53722,-1.18965 -2.93142,-2.58001 -5.64203,-2.12296 z"
       id="path524"
       sodipodi:nodetypes="ccccc" />
    <path
       style="display:inline;fill:none;stroke:white;stroke-width:1px;stroke-linecap:butt;stroke-linejoin:miter;stroke-opacity:1"
       d="m 360.44009,802.27979 c -8.5524,1.54228 -16.74873,3.73878 -17.41448,19.77566 3.0048,9.17007 11.60218,10.92096 21.14027,11.42392 5.18,-4.10939 9.53964,-8.59244 10.13218,-14.79086 -2.52972,-6.8729 -3.51773,-14.78105 -13.85797,-16.40872 z"
       id="path526"
       sodipodi:nodetypes="ccccc" />
    <path
       style="display:inline;fill:none;stroke:white;stroke-width:1px;stroke-linecap:butt;stroke-linejoin:miter;stroke-opacity:1"
       d="m 354.87915,788.62355 c -23.08447,4.01714 -27.79237,16.9223 -24.07726,33.90128 4.31467,16.27748 14.53917,18.85484 24.42478,22.21812 18.99676,-0.74043 27.09399,-11.58933 29.95269,-27.29615 0.22293,-18.60313 -13.53157,-25.02633 -30.30021,-28.82325 z"
       id="path528"
       sodipodi:nodetypes="ccccc" />
    <path
       style="display:inline;fill:none;stroke:white;stroke-width:1px;stroke-linecap:butt;stroke-linejoin:miter;stroke-opacity:1"
       d="m 354.28046,779.95715 c -19.88304,1.33263 -32.08737,12.75455 -35.3763,35.89045 2.12325,19.22801 9.63876,34.46225 33.40404,37.66114 16.8547,-2.4902 36.61346,2.93223 41.21398,-32.94628 -0.79576,-16.70985 -2.97205,-33.06297 -39.24172,-40.60531 z"
       id="path530"
       sodipodi:nodetypes="ccccc" />
    <path
       style="display:inline;fill:none;stroke:white;stroke-width:1px;stroke-linecap:butt;stroke-linejoin:miter;stroke-opacity:1"
       d="m 284.75736,796.66179 c 20.95142,2.3706 12.38392,-2.75293 4.14858,-10.3314 l -8.83844,-5.18487 c -5.57824,-1.78878 -17.71764,-15.83579 3.38459,-5.09985 l 8.63635,4.73429 c 19.85433,9.5398 12.54205,-2.42216 3.45262,-9.29625 -5.74414,-5.31017 -13.21854,-8.50041 -22.10494,-9.96103 -19.46058,-3.28277 -16.70398,9.59193 -9.85612,19.73703 4.47556,8.32809 13.32813,11.24481 21.17736,15.40208 z"
       id="path532"
       sodipodi:nodetypes="ccccccccc" />
    <path
       style="display:inline;fill:none;stroke:white;stroke-width:1px;stroke-linecap:butt;stroke-linejoin:miter;stroke-opacity:1"
       d="m 316.31017,780.31802 c -14.99271,17.98425 -9.20143,34.62714 -12.44147,50.25032 l -23.67413,2.57008 c -19.36091,-0.70444 -14.71945,-5.45472 -0.88206,-11.75454 l 10.34639,-2.72472 c 4.085,-3.18395 5.86956,-11.20722 -8.28375,-11.42407 -15.0034,3.27852 -32.60798,4.58819 -29.94328,21.23966 -3.71214,20.27118 17.17858,15.11566 28.80285,19.5369 13.22882,1.23513 26.46283,1.52435 39.72728,-3.79363 -4.47509,16.54512 -7.02384,31.63039 4.46787,36.07538 21.29732,6.4982 15.95094,-16.55679 29.46714,-17.09948 4.18241,-3.64675 8.92442,-2.8876 14.02182,0.66927 19.09743,-3.80187 39.80584,-4.29619 41.14299,-44.56378 -1.59561,-7.10415 4.86227,-10.95065 10.53723,-15.11391 l 10.09657,-6.49974 -28.02686,1.54627 -13.01008,-13.09915 c 2.4836,-11.99074 8.38546,-26.0965 -4.97477,-28.28342 -11.38354,-4.62696 -19.3194,-0.27265 -24.00599,12.54583 l -9.93824,-1.34366 c -2.02278,-14.36883 -4.6329,-28.45508 -16.22594,-38.21879 -17.40567,-13.85374 -22.95825,-4.25986 -23.77432,14.70388 0.9151,13.05814 2.39075,25.4725 6.57075,34.78106 z"
       id="path534"
       sodipodi:nodetypes="ccccccccccccccccccccccc" />
    <path
       style="display:inline;fill:none;stroke:white;stroke-width:1px;stroke-linecap:butt;stroke-linejoin:miter;stroke-opacity:1"
       d="m 320.98005,749.35602 0.28674,-13.32599 11.24176,10.83906 z"
       id="path536" />
    <path
       style="display:inline;fill:none;stroke:white;stroke-width:1px;stroke-linecap:butt;stroke-linejoin:miter;stroke-opacity:1"
       d="m 271.19014,798.52534 c -26.57454,9.1492 -29.91312,22.37781 -30.69691,36.05501 12.84606,24.61533 41.20811,19.3421 66.06792,20.81538 -5.01538,23.75551 2.55019,30.95792 13.18684,34.11954 14.01847,5.27259 24.63571,-0.23029 33.66127,-10.77541 11.59563,-12.05337 16.49653,-2.0047 21.51342,7.66089 18.63658,25.08534 37.75994,36.8893 57.8783,21.54638 10.22505,-5.46263 11.4972,-16.63899 9.35599,-29.99369 16.5285,-4.05558 34.41269,-5.88618 38.24577,-30.77826 -4.20643,-9.2573 -9.95297,-17.98167 -25.21676,-23.41249 20.34142,-12.9186 38.15077,-26.8224 18.59797,-55.26094 -25.91763,-15.1738 -47.04656,-5.7058 -68.29949,3.12492 -4.46952,-9.16446 -7.20211,-19.02948 -18.64157,-25.38263 -13.54425,-2.08872 -23.87623,0.70607 -29.18014,11.14542 -10.42841,-31.89139 -27.75867,-43.92307 -48.38591,-46.46749 -13.06718,16.4418 -12.24889,33.01994 -5.71629,49.6543 -19.40182,-6.89578 -39.021,-14.7952 -54.26565,-2.48852 -7.8981,27.38035 13.03095,28.3908 21.89524,40.43759 z"
       id="path538"
       sodipodi:nodetypes="cccccccccccccccccc" />
    <path
       style="display:inline;fill:none;stroke:white;stroke-width:1px;stroke-linecap:butt;stroke-linejoin:miter;stroke-opacity:1"
       d="m 391.86854,872.37829 c -14.89705,-4.24787 -13.32007,8.30979 -8.38596,9.91498 2.86046,10.17861 15.9497,17.03759 28.03645,22.17023 17.00792,1.52981 19.06296,-9.10856 19.13855,-21.35766 -0.7557,-11.81373 -7.31661,-19.51084 -12.95094,-27.865 -3.79687,-1.29463 -8.57298,-5.1607 -9.8569,0.14321 -2.89147,2.34731 -5.97571,4.55814 -1.28576,12.27621 l 4.71272,10.58241 c 8.33706,17.39045 2.01605,15.47269 -8.73,7.72597 z"
       id="path540"
       sodipodi:nodetypes="cccccccccc" />
    <path
       style="display:inline;fill:none;stroke:white;stroke-width:1px;stroke-linecap:butt;stroke-linejoin:miter;stroke-opacity:1"
       d="m 438.21258,849.61356 c -14.02635,-0.98758 -14.13432,2.79709 -3.91721,10.12192 10.70791,8.51073 17.79189,6.5649 25.23641,5.65926 14.94489,-8.62058 13.40872,-17.90307 2.35742,-27.56761 -9.96861,-2.69539 -15.54849,-5.70821 -20.89667,-8.73781 -6.20741,-1.74512 -16.61718,-1.75592 -1.27048,-12.39526 10.42907,-2.26392 17.04209,-6.57858 20.04727,-12.83217 18.65713,-17.24388 14.28673,-27.40307 -7.11998,-32.32085 -11.12151,0.371 -24.11605,-1.1803 -30.34102,4.21343 -33.80391,13.49422 -9.38673,18.27129 0.29009,10.49236 6.4331,-1.95255 13.97015,-5.44025 16.66863,-2.19891 20.20378,2.70265 3.28079,8.40373 0.95612,12.92571 l -17.51496,19.13169 -0.5155,16.27116 3.00066,5.24155 16.33295,3.39655 2.3287,10.21489 z"
       id="path542"
       sodipodi:nodetypes="cccccccccccccccccc" />
    <path
       style="display:inline;fill:none;stroke:white;stroke-width:1px;stroke-linecap:butt;stroke-linejoin:miter;stroke-opacity:1"
       d="m 163.02109,767.33632 c -17.9271,21.96875 7.94771,20.84539 13.55148,13.98136 32.06173,-35.61513 67.48901,-67.30142 103.87903,-97.86379 8.20691,-3.67575 2.76228,-21.455 -9.87974,-10.98099 -37.40714,27.84916 -72.97217,60.16128 -107.55077,94.86342 z"
       id="path544"
       sodipodi:nodetypes="ccccc" />
    <path
       style="display:inline;fill:none;stroke:white;stroke-width:1px;stroke-linecap:butt;stroke-linejoin:miter;stroke-opacity:1"
       d="m 59.663679,472.24188 c -18.202606,-2.01547 -2.388728,26.79554 3.712646,20.16948 45.459065,-2.28683 90.918115,-6.54868 136.377155,-4.30249 3.8462,2.70707 23.04804,-14.35752 -1.39652,-15.22786 z"
       id="path546"
       sodipodi:nodetypes="ccccc" />
    <path
       style="display:inline;fill:none;stroke:white;stroke-width:1px;stroke-linecap:butt;stroke-linejoin:miter;stroke-opacity:1"
       d="m 192.89226,675.00476 c -7.25013,0.83301 -5.27201,4.70374 -6.90369,7.38624 0.76706,5.95239 3.79169,6.34803 7.07403,6.1095 3.67674,-0.16391 5.93091,-2.323 6.23511,-7.21711 -0.22062,-2.57432 -2.80435,-4.5543 -6.40545,-6.27863 z"
       id="path548"
       sodipodi:nodetypes="ccccc" />
    <path
       style="display:inline;fill:none;stroke:white;stroke-width:1px;stroke-linecap:butt;stroke-linejoin:miter;stroke-opacity:1"
       d="m 192.93781,664.39097 c -12.62653,1.76094 -13.81289,11.72003 -15.73204,21.15397 3.8368,7.39039 8.32209,13.38973 17.17104,10.02893 6.21942,-3.19834 15.12501,-2.10569 12.81851,-18.92353 -1.56719,-6.10031 -4.47114,-11.35545 -14.25751,-12.25937 z"
       id="path550"
       sodipodi:nodetypes="ccccc" />
    <path
       style="display:inline;fill:none;stroke:white;stroke-width:1px;stroke-linecap:butt;stroke-linejoin:miter;stroke-opacity:1"
       d="m 191.06348,656.75375 c -18.49872,6.85123 -21.74819,18.35423 -20.90389,31.10627 2.45513,16.83778 13.03674,18.8379 25.11964,18.09683 14.14134,-3.52729 20.18034,-14.22139 19.78433,-30.60764 -2.84806,-18.6673 -13.12615,-19.35245 -24.00008,-18.59546 z"
       id="path552"
       sodipodi:nodetypes="ccccc" />
    <path
       style="display:inline;fill:none;stroke:white;stroke-width:1px;stroke-linecap:butt;stroke-linejoin:miter;stroke-opacity:1"
       d="m 134.04438,687.4834 c 1.21644,-10.84593 10.53309,-3.89349 8.29538,-0.38538 l 0.32456,12.02766 c -0.69589,3.85937 -3.21273,7.34923 -7.2538,2.84667 z"
       id="path554"
       sodipodi:nodetypes="ccccc" />
    <path
       style="display:inline;fill:none;stroke:white;stroke-width:1px;stroke-linecap:butt;stroke-linejoin:miter;stroke-opacity:1"
       d="m 135.05267,717.66246 c 1.77263,-9.41891 8.45818,-5.3471 8.78055,0.15516 l 0.0963,10.2688 c -2.77871,2.71217 -5.66355,2.88584 -8.65256,0.56772 z"
       id="path556"
       sodipodi:nodetypes="ccccc" />
    <path
       style="display:inline;fill:none;stroke:white;stroke-width:1px;stroke-linecap:butt;stroke-linejoin:miter;stroke-opacity:1"
       d="m 133.36601,744.89513 c 4.25689,-9.1253 8.36325,-7.475 12.42921,-2.93416 3.14288,4.74741 1.00617,6.67541 0.30393,9.3695 -2.72853,1.58298 -5.40973,3.53263 -8.74586,0.40539 -3.61666,-0.28305 -5.21085,-2.33211 -3.98727,-6.84114 z"
       id="path558"
       sodipodi:nodetypes="ccccc" />
    <path
       style="display:inline;fill:none;stroke:white;stroke-width:1px;stroke-linecap:butt;stroke-linejoin:miter;stroke-opacity:1"
       d="m 95.667375,650.46874 c 4.28141,-3.4165 5.893275,-2.22879 6.648115,0.43706 1.135,0.7054 0.73428,2.53005 0.43826,4.27826 -1.8268,0.86941 -3.65487,1.61205 -5.49384,1.23381 -2.57175,-1.58227 -2.67318,-3.64961 -1.592511,-5.94909 z"
       id="path560"
       sodipodi:nodetypes="ccccc" />
    <path
       style="display:inline;fill:none;stroke:white;stroke-width:1px;stroke-linecap:butt;stroke-linejoin:miter;stroke-opacity:1"
       d="m 98.722197,641.53374 c -5.392321,2.50527 -8.777513,7.01335 -9.338297,14.34017 2.196969,4.82219 5.763574,8.06741 11.84764,8.41389 4.4406,-3.03967 8.59976,-6.29463 8.05477,-13.14633 1.49652,-7.11601 -4.73192,-8.20736 -10.564113,-9.60773 z"
       id="path562"
       sodipodi:nodetypes="ccccc" />
    <path
       style="display:inline;fill:none;stroke:white;stroke-width:1px;stroke-linecap:butt;stroke-linejoin:miter;stroke-opacity:1"
       d="m 99.66049,634.84593 c -13.875854,2.22128 -17.761294,11.18691 -17.111154,23.21441 6.302213,13.60832 13.84104,9.4742 20.956474,11.41476 8.73803,-1.24501 12.7453,-8.90384 12.50764,-22.31788 -2.73866,-10.04542 -9.44126,-11.40733 -16.35296,-12.31129 z"
       id="path564"
       sodipodi:nodetypes="ccccc" />
    <path
       style="display:inline;fill:none;stroke:white;stroke-width:1px;stroke-linecap:butt;stroke-linejoin:miter;stroke-opacity:1"
       d="m 183.94721,542.52094 c 2.41857,-2.73916 6.51056,-1.60754 10.29892,1.35521 l -1.28053,8.72029 c -2.51929,0.2178 -4.96694,0.62225 -7.7995,0.0256 -2.59121,-2.53854 -1.84163,-6.34385 -1.21889,-10.10113 z"
       id="path566"
       sodipodi:nodetypes="ccccc" />
    <path
       style="display:inline;fill:none;stroke:white;stroke-width:1px;stroke-linecap:butt;stroke-linejoin:miter;stroke-opacity:1"
       d="m 185.97641,525.5518 c 3.39938,-1.02593 7.04361,-4.04178 9.72509,0.76619 l -0.57963,9.13669 c -2.80501,2.56469 -6.1647,1.28027 -9.50042,0.16199 l -0.64519,-10.55605 z"
       id="path568"
       sodipodi:nodetypes="cccccc" />
    <path
       style="display:inline;fill:none;stroke:white;stroke-width:1px;stroke-linecap:butt;stroke-linejoin:miter;stroke-opacity:1"
       d="m 183.80744,510.62242 c -2.83385,-0.7521 -5.27944,-0.1876 -7.5532,0.96011 l -3.76194,37.38362 c -3.49731,2.45001 -6.99173,4.74189 -10.37588,0.96109 1.27806,-17.91156 1.51235,-44.28132 4.76977,-53.36683 11.22091,-2.4521 22.44179,-1.32772 33.6627,-0.14641 2.91691,4.17078 4.33694,8.34178 1.43492,12.51254 -3.22256,0.63616 -5.08722,0.91085 -7.14574,1.23716 l 0.0536,7.22898 c -1.78791,4.93191 -5.52887,3.57395 -9.07388,2.84701 z"
       id="path570"
       sodipodi:nodetypes="ccccccccccc" />
    <path
       style="display:inline;fill:none;stroke:white;stroke-width:1px;stroke-linecap:butt;stroke-linejoin:miter;stroke-opacity:1"
       d="m 133.00814,518.04812 c -5.16132,1.2893 -5.1909,4.94343 -5.55014,8.44561 1.35942,3.35702 3.6321,5.3524 7.40263,5.11458 2.68564,-1.52915 5.32633,-3.15002 6.07144,-8.63945 -2.08179,-1.93927 -2.33623,-4.85522 -7.92393,-4.92074 z"
       id="path572"
       sodipodi:nodetypes="ccccc" />
    <path
       style="display:inline;fill:none;stroke:white;stroke-width:1px;stroke-linecap:butt;stroke-linejoin:miter;stroke-opacity:1"
       d="m 132.51,509.72728 c -8.7472,1.1726 -12.9011,8.47297 -13.48098,20.54129 2.26984,5.65834 4.24283,11.5186 15.9727,10.74136 6.30663,-1.71012 12.94086,-2.68841 13.33348,-17.61015 -3.45638,-6.7744 -6.6159,-13.91071 -15.8252,-13.6725 z"
       id="path574"
       sodipodi:nodetypes="ccccc" />
    <path
       style="display:inline;fill:none;stroke:white;stroke-width:1px;stroke-linecap:butt;stroke-linejoin:miter;stroke-opacity:1"
       d="m 132.71992,501.82709 c -11.27668,1.31726 -20.59066,6.72597 -21.60292,29.44012 4.41,15.20769 13.17297,20.71479 25.09262,19.18715 12.91083,-4.33166 22.69194,-11.02037 19.82767,-27.2325 -1.05902,-15.38057 -10.15968,-20.88015 -23.31737,-21.39477 z"
       id="path576"
       sodipodi:nodetypes="ccccc" />
    <path
       style="display:inline;fill:none;stroke:white;stroke-width:1px;stroke-linecap:butt;stroke-linejoin:miter;stroke-opacity:1"
       d="m 216.03417,503.22716 c 1.5446,-9.44205 -6.94047,-8.12099 -6.28394,0.51165 -0.48361,24.93789 -4.73039,48.53518 -9.65242,71.89194 l -9.06406,-1.89469 -1.98254,-10.20797 -8.92691,-2.0903 v 4.83064 c -29.80891,-10.12621 -41.56435,-7.15108 -48.93521,-0.99413 -4.31574,5.80857 0.73596,7.16004 6.43979,8.20114 5.71452,-3.57706 11.76295,-5.93276 18.83942,-4.52829 13.07856,1.59237 20.79938,5.93366 29.31606,9.86649 10.0891,5.28904 16.09763,12.38087 22.98017,19.0865 17.57412,16.78418 35.49723,33.41374 49.76331,51.66349 5.64067,0.48425 4.56672,-1.55912 2.70743,-3.8981 -4.1654,-9.2309 -7.38422,-14.45903 -9.74942,-16.07774 1.31218,-2.42875 -28.92243,-29.36858 -46.13319,-46.18919 6.13631,-15.08367 6.49649,-30.16736 9.67957,-45.25103 z"
       id="path578"
       sodipodi:nodetypes="cccccccccccccccccc" />
    <path
       style="display:inline;fill:none;stroke:white;stroke-width:1px;stroke-linecap:butt;stroke-linejoin:miter;stroke-opacity:1"
       d="m 145.89608,580.63374 c -8.72295,1.59647 -1.60378,9.31529 3.40855,8.98725 4.9709,0.0192 10.21196,-0.38302 14.02507,1.40946 12.23068,1.48209 26.44115,15.59814 39.86428,24.69001 l 47.24942,47.8792 c 10.55213,6.89023 9.16531,-3.07318 6.28432,-5.73162 l -39.34786,-40.46831 c -19.18197,-17.08091 -38.19971,-33.52141 -53.19817,-34.29935 z"
       id="path580"
       sodipodi:nodetypes="ccccccccc" />
    <path
       style="display:inline;fill:none;stroke:white;stroke-width:1px;stroke-linecap:butt;stroke-linejoin:miter;stroke-opacity:1"
       d="m 80.731564,513.11968 c -1.089242,-14.71774 7.609438,-8.60947 10.096431,-2.83249 0.25955,20.10624 13.199305,46.49606 32.629425,69.20466 23.25543,23.38908 27.11577,17.12964 37.35062,20.61461 15.39124,-2.52341 31.23155,25.70774 46.85392,39.01071 l 29.86066,30.12348 c 12.48009,9.6935 5.83087,17.84616 -2.43849,13.23734 L 199.16111,641.72576 C 172.19563,611.80946 154.5138,608.02656 140.37278,600.99272 122.02961,590.55356 106.7137,576.68697 96.738305,556.77386 Z"
       id="path582"
       sodipodi:nodetypes="ccccccccccc" />
    <path
       style="display:inline;fill:none;stroke:white;stroke-width:1px;stroke-linecap:butt;stroke-linejoin:miter;stroke-opacity:1"
       d="m 61.760162,515.44414 c -3.001391,-20.3661 11.995109,-6.92376 9.455032,-3.52284 19.344064,91.91786 66.693286,101.78144 72.799936,106.90508 l 22.62692,4.378 c 15.49161,1.86101 6.86888,5.48738 7.61462,8.29016 -15.74019,6.11922 -39.51598,2.46395 -70.05989,-28.35169 C 91.990336,586.08069 78.620854,569.67302 72.344424,549.27389 Z"
       id="path584"
       sodipodi:nodetypes="cccccccc" />
    <path
       style="display:inline;fill:none;stroke:white;stroke-width:1px;stroke-linecap:butt;stroke-linejoin:miter;stroke-opacity:1"
       d="m 47.359388,508.12165 c 5.321572,60.64519 40.543129,100.87646 88.044602,132.72378 23.96628,8.6718 31.47603,1.36625 43.11669,-1.92865 14.94413,-8.19959 10.06912,5.53718 5.762,8.53504 -4.6708,2.20068 -12.01939,3.12479 -12.5278,7.30989 -3.5525,1.27257 -7.14324,3.51165 -10.54133,0.88752 -0.0704,29.30001 1.80099,57.15149 3.09461,85.43378 3.20504,12.03649 -8.3183,7.51681 -8.8129,0.94155 l -3.5757,-84.56936 c -7.76278,-3.06513 -16.27298,-2.75767 -23.2855,-9.20815 l -3.71797,69.46243 c 0.20581,19.77173 -7.69752,6.39304 -9.13431,-0.29586 l 7.35857,-73.00679 C 86.455566,620.32021 59.321954,588.37663 47.404102,543.91602 c -5.129996,-9.37176 -2.806041,-19.10714 -4.067542,-28.6676 -0.565398,-2.42572 0.799203,-4.80071 4.022828,-7.12674 z"
       id="path586"
       sodipodi:nodetypes="cccccccccccccccc" />
    <path
       style="display:inline;fill:none;stroke:white;stroke-width:1px;stroke-linecap:butt;stroke-linejoin:miter;stroke-opacity:1"
       d="m 150.95292,313.5673 c -9.32428,3.25639 -12.89244,8.48785 -13.58734,14.7052 0.77521,12.53174 6.49529,15.31989 13.00303,16.55602 9.10373,-3.084 14.51718,-8.23533 14.73662,-16.29645 0.34125,-11.82214 -6.826,-13.50088 -14.15231,-14.96477 z"
       id="path588"
       sodipodi:nodetypes="ccccc" />
    <path
       style="display:inline;fill:none;stroke:white;stroke-width:1px;stroke-linecap:butt;stroke-linejoin:miter;stroke-opacity:1"
       d="m 151.14537,297.89207 c -15.39527,5.44241 -27.56367,13.19178 -25.81876,30.88807 -0.23221,22.22984 11.61717,24.74716 23.96243,26.45534 20.19152,-2.22425 30.2386,-11.61934 27.13547,-30.30989 -4.15179,-19.46222 -15.17165,-22.13255 -25.27914,-27.03352 z"
       id="path590"
       sodipodi:nodetypes="ccccc" />
    <path
       style="display:inline;fill:none;stroke:white;stroke-width:1px;stroke-linecap:butt;stroke-linejoin:miter;stroke-opacity:1"
       d="m 150.05233,287.03583 c -23.02008,7.28067 -40.30963,17.66359 -36.91471,39.24425 -2.45582,30.2984 14.63781,37.99321 35.05319,41.84726 24.50026,-4.26529 43.52777,-13.7263 42.0957,-42.61121 -2.80925,-11.09402 -14.74651,-33.47619 -40.23418,-38.4803 z"
       id="path592"
       sodipodi:nodetypes="ccccc" />
    <path
       style="display:inline;fill:none;stroke:white;stroke-width:1px;stroke-linecap:butt;stroke-linejoin:miter;stroke-opacity:1"
       d="m 87.697188,313.47177 c -1.090553,-12.29864 7.158392,-11.77347 16.495882,-9.75363 3.71798,-1.91215 6.81461,-4.00923 0.0376,-9.04525 -11.808712,-9.55348 -24.475606,5.22277 -24.361479,17.04644 -3.994416,20.54981 2.895182,24.9693 12.86159,24.82891 8.978449,-1.42628 10.816499,-4.37964 4.385477,-9.10139 -7.692438,-2.37203 -10.048975,-7.42374 -9.419351,-13.97508 z"
       id="path594"
       sodipodi:nodetypes="ccccccc" />
    <path
       style="display:inline;fill:none;stroke:white;stroke-width:1px;stroke-linecap:butt;stroke-linejoin:miter;stroke-opacity:1"
       d="m 206.18736,333.72569 c -3.72675,-2.96105 -5.77075,-11.954 4.23581,-7.87008 15.37741,4.91428 19.69985,14.52433 15.65741,27.68755 -4.25178,17.12309 -15.60305,12.85511 -26.4613,10.07298 -5.05282,-5.58573 -9.66759,-10.98552 1.49112,-9.68896 7.67191,4.79639 14.3559,6.78298 16.74348,-3.45187 2.67418,-8.38414 -2.39623,-13.46308 -11.66652,-16.74962 z"
       id="path596"
       sodipodi:nodetypes="ccccccc" />
    <path
       style="display:inline;fill:none;stroke:white;stroke-width:1px;stroke-linecap:butt;stroke-linejoin:miter;stroke-opacity:1"
       d="m 131.45253,239.73531 c 4.38916,-11.20535 7.29072,-4.60327 10.29228,0.80155 l 2.8688,28.64438 c -0.26171,6.57486 -2.91654,6.14657 -6.63623,2.60225 z"
       id="path598"
       sodipodi:nodetypes="ccccc" />
    <path
       style="display:inline;fill:none;stroke:white;stroke-width:1px;stroke-linecap:butt;stroke-linejoin:miter;stroke-opacity:1"
       d="m 182.15157,244.68193 c 6.86955,-4.76567 7.5548,-0.40891 7.73271,4.69618 l -9.98737,31.97582 c -5.20049,4.46713 -7.88508,3.10829 -8.51196,-3.01573 z"
       id="path600"
       sodipodi:nodetypes="ccccc" />
    <path
       style="display:inline;fill:none;stroke:white;stroke-width:1px;stroke-linecap:butt;stroke-linejoin:miter;stroke-opacity:1"
       d="m 221.90862,287.77406 c -8.73346,5.17996 -6.76543,8.39184 2.35694,10.28801 l 20.36349,-5.09811 c 2.46414,-3.19035 7.97004,-6.76765 -3.23294,-8.21903 z"
       id="path602"
       sodipodi:nodetypes="ccccc" />
    <path
       style="display:inline;fill:none;stroke:white;stroke-width:1px;stroke-linecap:butt;stroke-linejoin:miter;stroke-opacity:1"
       d="m 165.69045,382.29523 c -3.51885,-10.33155 3.31831,-9.92966 7.27116,-5.08981 l 14.7046,23.62281 c 3.03792,7.84103 -0.86367,8.366 -5.11694,8.52018 z"
       id="path604"
       sodipodi:nodetypes="ccccc" />
    <path
       style="display:inline;fill:none;stroke:white;stroke-width:1px;stroke-linecap:butt;stroke-linejoin:miter;stroke-opacity:1"
       d="m 129.50589,382.24819 c 5.81959,-9.50392 6.31558,-4.07226 6.58795,1.98687 l -4.28264,23.10515 c 0.138,7.18421 -8.89596,10.00669 -6.62892,0 z"
       id="path606"
       sodipodi:nodetypes="ccccc" />
    <path
       style="display:inline;fill:none;stroke:white;stroke-width:1px;stroke-linecap:butt;stroke-linejoin:miter;stroke-opacity:1"
       d="m 100.67198,367.39628 c 7.80834,-6.91231 7.95655,1.72447 4.83078,5.88402 l -16.322608,21.63234 c -4.11447,1.95565 -9.27556,6.15986 -8.732807,-1.89029 l 2.550401,-19.81844 c 4.316943,-5.62036 5.349582,-2.04366 6.420439,1.42605 l -0.693654,8.565 z"
       id="path608"
       sodipodi:nodetypes="cccccccc" />
    <path
       style="display:inline;fill:none;stroke:white;stroke-width:1px;stroke-linecap:butt;stroke-linejoin:miter;stroke-opacity:1"
       d="m 73.429122,344.62692 c -7.77913,21.80215 -12.389225,43.35606 -15.791056,64.81537 -1.169178,21.05306 9.563919,19.89369 23.804006,12.18947 l 27.524408,-26.46204 c 9.91867,-10.30775 5.00273,1.11585 5.27925,4.93293 l -2.76828,15.94202 c 1.87032,19.21823 12.1492,21.74228 30.40348,8.43214 4.84218,-7.21609 5.98727,-15.55673 7.7663,-23.70452 7.32279,22.77779 24.89853,27.36837 40.1096,36.15356 l 11.27174,1.54373 c 9.90013,3.36635 12.01721,-7.24179 12.20394,-21.31623 l 1.99682,-31.18683 c 0.0527,-11.08977 -8.93065,-15.72523 -22.14571,-17.3383 -15.28243,-0.9342 -11.99847,17.02668 -1.84957,15.21315 22.41898,0.75475 9.68405,18.07274 10.20313,29.14591 -0.0312,14.44317 -11.22825,12.48434 -26.67364,4.28676 -13.30518,-11.16409 -17.57493,-25.00112 -22.64919,-38.6002 -3.93707,-6.28798 -6.55117,-3.9879 -8.9053,0 l -5.17661,30.9482 c -1.50837,12.34105 -19.64265,17.12155 -19.00715,-4.42766 l 5.60326,-23.48815 c 2.78032,-14.09084 -2.92438,-12.43519 -13.92026,-0.96013 -13.938088,12.25437 -45.511352,53.38584 -42.12213,22.17386 l 6.203325,-32.6086 c 1.068883,-7.83382 0.76346,-16.69139 17.095208,-13.15494 9.768867,1.01727 18.901207,-4.32626 1.344714,-9.1092 z"
       id="path610"
       sodipodi:nodetypes="ccccccccccccccccccccccccccc" />
    <path
       style="display:inline;fill:none;stroke:white;stroke-width:1px;stroke-linecap:butt;stroke-linejoin:miter;stroke-opacity:1"
       d="m 142.88153,192.51412 c -16.86407,26.83583 -42.53663,51.50938 -44.094486,82.10246 5.855966,15.6556 13.687096,10.82058 21.784316,3.2256 7.62235,-6.83476 12.19108,-25.38259 -10.32051,-8.83612 3.01567,-29.50341 21.15892,-41.77453 33.07446,-61.13982 7.92163,15.82199 7.25035,31.48793 9.15603,47.20068 2.7413,33.51791 7.97646,20.65168 13.86656,7.22606 l 13.2857,-26.92188 c 10.98639,-7.46704 21.27884,-12.68127 22.07598,12.9312 l -13.5717,37.93132 c -8.68189,18.57344 5.5694,12.28811 14.46836,-0.8747 11.85967,-15.25966 24.81665,-22.08989 39.5366,-15.37602 l 17.34793,14.93484 -16.54542,24.9626 c -5.04227,7.63053 -11.84623,10.64356 -23.87872,-0.0472 -11.93577,-14.90065 -18.10243,1.7313 -4.42888,6.27735 l 13.21642,7.31894 c 11.70648,10.18138 13.85643,-2.1977 19.65251,-5.9695 l 18.70246,-25.08749 c 11.18828,-10.95639 -2.81403,-19.40708 -10.71559,-28.46459 -26.50383,-16.4091 -37.53545,-5.8952 -48.22618,5.21181 -1.68592,-17.1061 17.24534,-32.90894 -9.11422,-51.57473 -23.66,-3.63239 -25.05693,16.91984 -34.30185,28.94669 -3.40957,-20.33629 0.43682,-45.4226 -20.96977,-53.97735 z"
       id="path612"
       sodipodi:nodetypes="cccccccccccccccccccccccc" />
    <path
       style="display:inline;fill:none;stroke:white;stroke-width:1px;stroke-linecap:butt;stroke-linejoin:miter;stroke-opacity:1"
       d="m 163.21692,175.60804 c -7.90992,0.35111 -10.3439,4.52223 -9.03625,11.30358 0.38812,6.32005 5.80395,5.50106 10.39955,5.84667 2.5535,-1.77906 6.2967,-1.38298 5.44077,-9.39541 -0.78305,-3.28228 0.032,-7.31517 -6.80407,-7.75484 z"
       id="path614"
       sodipodi:nodetypes="ccccc" />
    <path
       style="display:inline;fill:none;stroke:white;stroke-width:1px;stroke-linecap:butt;stroke-linejoin:miter;stroke-opacity:1"
       d="m 174.63429,167.87786 c -7.94239,-13.11083 7.81461,-18.57157 12.49109,-12.77205 l 101.37187,103.75854 c 7.91797,2.4428 4.26703,25.06204 -11.22422,13.0883 C 242.2579,237.83447 206.40318,204.31652 174.63429,167.87786 Z"
       id="path616"
       sodipodi:nodetypes="ccccc" />
    <path
       style="display:inline;fill:none;stroke:white;stroke-width:1px;stroke-linecap:butt;stroke-linejoin:miter;stroke-opacity:1"
       d="m 62.02076,443.52673 c -12.223779,3.14005 -11.410552,16.99147 -1.328282,18.3124 L 201.7944,459.24879 c 10.84211,0.23099 10.30604,-14.90811 -0.69495,-15.40452 -50.31901,1.37068 -95.87007,0.96331 -139.078681,-0.31752 z"
       id="path618"
       sodipodi:nodetypes="ccccc" />
    <path
       style="display:inline;fill:none;stroke:white;stroke-width:1px;stroke-linecap:butt;stroke-linejoin:miter;stroke-opacity:1"
       d="m 248.06514,115.00511 c -6.61033,0.93642 -7.84651,5.35012 -9.2487,9.65642 1.31295,5.11522 4.76008,7.5895 9.73423,8.17395 2.99464,-2.19995 6.20326,-4.10466 7.51468,-8.62539 -1.19952,-4.39946 -2.62464,-8.59418 -8.00021,-9.20498 z"
       id="path620"
       sodipodi:nodetypes="ccccc" />
    <path
       style="display:inline;fill:none;stroke:white;stroke-width:1px;stroke-linecap:butt;stroke-linejoin:miter;stroke-opacity:1"
       d="m 283.65235,133.40238 c -10.43348,4.50448 -19.61687,11.3582 -22.65951,29.75247 1.00143,7.0501 4.53694,12.06874 14.58228,11.86847 7.09452,0.56036 14.0419,-0.20685 20.00847,-9.82407 -0.49645,-11.45483 -0.0911,-23.13147 -11.93124,-31.79687 z"
       id="path622"
       sodipodi:nodetypes="ccccc" />
    <path
       style="display:inline;fill:none;stroke:white;stroke-width:1px;stroke-linecap:butt;stroke-linejoin:miter;stroke-opacity:1"
       d="m 287.02465,195.65095 c -2.88003,7.62382 3.90233,5.27485 7.76046,5.94399 l 13.0933,-16.24653 c -0.20703,-8.9512 -4.09798,-5.90385 -7.37923,-4.84246 z"
       id="path624"
       sodipodi:nodetypes="ccccc" />
    <path
       style="display:inline;fill:none;stroke:white;stroke-width:1px;stroke-linecap:butt;stroke-linejoin:miter;stroke-opacity:1"
       d="m 300.86215,208.56704 c -1.80481,10.16093 3.9469,5.38958 7.19646,5.56268 l 12.35617,-15.5933 c -0.84622,-3.04731 0.92833,-8.54087 -7.49563,-4.51495 z"
       id="path626"
       sodipodi:nodetypes="ccccc" />
    <path
       style="display:inline;fill:none;stroke:white;stroke-width:1px;stroke-linecap:butt;stroke-linejoin:miter;stroke-opacity:1"
       d="m 271.70267,93.661079 c 1.22438,-3.685739 2.95851,-5.53357 4.88619,-6.683189 8.82059,-3.309054 8.56863,0.826172 7.80637,5.380102 -1.22679,7.201172 -3.71686,7.496737 -6.27107,7.44182 -3.42753,0.02958 -5.89549,-1.488194 -6.42149,-6.138733 z"
       id="path628"
       sodipodi:nodetypes="ccccc" />
    <path
       style="display:inline;fill:none;stroke:white;stroke-width:1px;stroke-linecap:butt;stroke-linejoin:miter;stroke-opacity:1"
       d="m 306.23341,82.038808 c -5.12353,11.082877 -10.64318,22.165772 -10.91146,33.248652 7.11469,2.61207 17.21441,-0.28857 26.31922,-1.3517 -2.10469,-5.72646 -0.10928,-11.45291 3.01,-17.179358 -1.8516,-6.53412 -10.75096,-10.391838 -18.41776,-14.717594 z"
       id="path630"
       sodipodi:nodetypes="ccccc" />
    <path
       style="display:inline;fill:none;stroke:white;stroke-width:1px;stroke-linecap:butt;stroke-linejoin:miter;stroke-opacity:1"
       d="m 312.53425,72.405529 c 1.03018,-4.247202 2.76431,-6.257801 4.92961,-6.897809 7.67017,2.127314 12.44417,11.941601 18.17138,19.22592 l -6.1657,4.826979 c -5.22783,-5.677114 -9.46347,-11.256149 -16.93529,-17.15509 z"
       id="path632"
       sodipodi:nodetypes="ccccc" />
    <path
       style="display:inline;fill:none;stroke:white;stroke-width:1px;stroke-linecap:butt;stroke-linejoin:miter;stroke-opacity:1"
       d="m 326.85461,55.811935 c 0.47121,2.68399 -2.09741,5.367965 2.79666,8.051955 l 12.56231,14.853901 c 3.14609,-2.280383 7.38662,-5.06147 13.33716,-8.624925 -2.91153,-8.841337 -5.51973,-17.692285 -4.62675,-26.654084 -8.18616,3.892613 -19.11173,3.890861 -24.06938,12.373153 z"
       id="path634"
       sodipodi:nodetypes="cccccc" />
    <path
       style="display:inline;fill:none;stroke:white;stroke-width:1px;stroke-linecap:butt;stroke-linejoin:miter;stroke-opacity:1"
       d="m 280.63411,150.85109 c -3.56183,1.55513 -6.25963,3.46186 -7.13074,6.11214 -1.57585,5.0414 0.92651,5.47476 3.6399,5.66959 5.75085,-1.04827 6.95698,-3.19436 7.22315,-5.56752 1.09096,-2.4936 -0.95958,-4.41919 -3.73231,-6.21421 z"
       id="path636"
       sodipodi:nodetypes="ccccc" />
    <path
       style="display:inline;fill:none;stroke:white;stroke-width:1px;stroke-linecap:butt;stroke-linejoin:miter;stroke-opacity:1"
       d="m 302.46605,147.14063 c -0.0233,9.51294 8.12813,16.29398 14.83451,23.55797 l 16.13201,-21.13693 -6.95065,-12.62689 z"
       id="path638"
       sodipodi:nodetypes="ccccc" />
    <path
       style="display:inline;fill:none;stroke:white;stroke-width:1px;stroke-linecap:butt;stroke-linejoin:miter;stroke-opacity:1"
       d="m 298.49775,125.93599 c -1.1631,6.4215 0.83382,8.19817 3.7032,8.69242 6.96503,-1.55159 14.1563,-2.65593 20.41448,-5.60547 1.09875,-2.72306 -0.58843,-5.34964 -2.8248,-7.95722 -4.14534,1.47053 -4.10229,2.72415 -21.29288,4.87027 z"
       id="path640"
       sodipodi:nodetypes="ccccc" />
    <path
       style="display:inline;fill:none;stroke:white;stroke-width:1px;stroke-linecap:butt;stroke-linejoin:miter;stroke-opacity:1"
       d="m 340.50269,155.37953 c 5.65663,-1.42222 6.44359,2.07769 7.11192,5.6976 l -15.36081,21.83014 c -4.00202,-0.35854 -8.4207,-0.0296 -8.97254,-6.08214 z"
       id="path642"
       sodipodi:nodetypes="ccccc" />
    <path
       style="display:inline;fill:none;stroke:white;stroke-width:1px;stroke-linecap:butt;stroke-linejoin:miter;stroke-opacity:1"
       d="m 354.19814,162.4201 19.4291,5.14228 -5.5165,27.41068 c -10.04525,-0.80412 -23.23555,1.57107 -26.16687,-6.42479 z"
       id="path644"
       sodipodi:nodetypes="ccccc" />
    <path
       style="display:inline;fill:none;stroke:white;stroke-width:1px;stroke-linecap:butt;stroke-linejoin:miter;stroke-opacity:1"
       d="m 338.20319,203.30256 c 10.16083,-0.37924 20.38964,-1.32255 29.85042,4.10827 -0.20681,5.61924 -2.23016,11.13908 -9.12596,16.39254 -5.37817,4.07493 -11.62926,5.00832 -18.85497,2.43416 -9.78765,-10.47225 -5.95765,-16.74342 -1.86949,-22.93497 z"
       id="path646"
       sodipodi:nodetypes="ccccc" />
    <path
       style="display:inline;fill:none;stroke:white;stroke-width:1px;stroke-linecap:butt;stroke-linejoin:miter;stroke-opacity:1"
       d="m 344.16411,210.1249 c -1.78205,2.69833 -2.10795,5.39663 1.54942,8.09498 5.32236,2.29677 6.57239,0.0367 8.66047,-1.28558 1.86919,-2.06222 2.28952,-4.12445 -0.53645,-6.18664 -5.04475,-1.47398 -6.95562,-0.7677 -9.67344,-0.62274 z"
       id="path648"
       sodipodi:nodetypes="ccccc" />
    <path
       style="display:inline;fill:none;stroke:white;stroke-width:1px;stroke-linecap:butt;stroke-linejoin:miter;stroke-opacity:1"
       d="m 475.35478,116.6715 c -2.51828,2.14313 -5.47009,1.6506 -7.10692,9.15422 1.07118,3.86561 2.95285,6.98445 8.23918,6.96626 2.22841,-2.00014 5.40065,-0.77049 5.60093,-9.71068 -0.99078,-3.18631 -2.59476,-5.85922 -6.73319,-6.4098 z"
       id="path650"
       sodipodi:nodetypes="ccccc" />
    <path
       style="display:inline;fill:none;stroke:white;stroke-width:1px;stroke-linecap:butt;stroke-linejoin:miter;stroke-opacity:1"
       d="m 465.10897,143.82372 c -9.98503,4.82982 -13.70878,15.07294 -16.95143,25.73196 2.67093,20.01133 13.46656,13.08328 21.55466,15.13284 11.00489,-2.60501 17.09414,-11.2061 15.31786,-29.40154 -5.35608,-6.85613 -11.58557,-11.64819 -19.92109,-11.46326 z"
       id="path652"
       sodipodi:nodetypes="ccccc" />
    <path
       style="display:inline;fill:none;stroke:white;stroke-width:1px;stroke-linecap:butt;stroke-linejoin:miter;stroke-opacity:1"
       d="m 479.61749,61.37933 c -11.06342,6.185676 -24.95046,10.605202 -29.85509,20.643006 0.0632,7.204785 0.16114,14.404132 5.82566,20.714394 7.39853,1.23188 15.75586,-1.44389 24.9819,-7.660339 4.10786,-8.204216 1.13283,-21.255047 -0.95247,-33.697061 z"
       id="path654"
       sodipodi:nodetypes="ccccc" />
    <path
       style="display:inline;fill:none;stroke:white;stroke-width:1px;stroke-linecap:butt;stroke-linejoin:miter;stroke-opacity:1"
       d="m 473.10986,78.003108 c -4.82838,-0.410276 -9.52552,-0.584749 -10.83222,5.332135 -1.61446,2.389872 -0.2845,4.779744 1.92833,7.16961 4.85047,0.44082 8.29807,-0.945353 10.09492,-4.481222 0.5686,-2.453226 2.06657,-4.694454 -1.19103,-8.020523 z"
       id="path656"
       sodipodi:nodetypes="ccccc" />
    <path
       style="display:inline;fill:none;stroke:white;stroke-width:1px;stroke-linecap:butt;stroke-linejoin:miter;stroke-opacity:1"
       d="m 496.50734,36.793126 c 3.18224,-21.354404 20.66329,-6.284308 18.00423,-0.562839 L 510.23962,176.227 c 0.032,10.49825 -14.77588,16.12058 -17.70374,-0.45297 z"
       id="path658"
       sodipodi:nodetypes="ccccc" />
    <path
       style="display:inline;fill:none;stroke:white;stroke-width:1px;stroke-linecap:butt;stroke-linejoin:miter;stroke-opacity:1"
       d="m 380.11201,167.97939 9.63646,2.1242 -0.64998,24.78892 c -3.13988,1.109 -6.11441,1.35399 -8.8498,0.35094 z"
       id="path660"
       sodipodi:nodetypes="ccccc" />
    <path
       style="display:inline;fill:none;stroke:white;stroke-width:1px;stroke-linecap:butt;stroke-linejoin:miter;stroke-opacity:1"
       d="m 394.06747,165.5142 12.31104,-10.22092 c 8.40687,4.33272 15.16763,10.75834 20.75778,18.67217 -7.01643,7.6629 -12.87908,16.64372 -26.08063,17.24161 z"
       id="path662"
       sodipodi:nodetypes="ccccc" />
    <path
       style="display:inline;fill:none;stroke:white;stroke-width:1px;stroke-linecap:butt;stroke-linejoin:miter;stroke-opacity:1"
       d="m 414.68953,148.13212 4.9613,-6.21125 23.20666,15.31853 -8.05151,7.74277 z"
       id="path664" />
    <path
       style="display:inline;fill:none;stroke:white;stroke-width:1px;stroke-linecap:butt;stroke-linejoin:miter;stroke-opacity:1"
       d="m 425.73374,119.30722 -2.75575,15.81963 c 8.24514,5.12213 17.19877,14.63444 24.31566,12.76521 3.95784,-8.96437 9.71339,-17.97436 7.217,-26.77501 z"
       id="path666"
       sodipodi:nodetypes="ccccc" />
    <path
       style="display:inline;fill:none;stroke:white;stroke-width:1px;stroke-linecap:butt;stroke-linejoin:miter;stroke-opacity:1"
       d="m 421.09431,103.91629 3.39431,7.87627 25.48268,-4.20829 c -0.0224,-5.19051 -2.23312,-11.397296 -8.43963,-19.459167 z"
       id="path668"
       sodipodi:nodetypes="ccccc" />
    <path
       style="display:inline;fill:none;stroke:white;stroke-width:1px;stroke-linecap:butt;stroke-linejoin:miter;stroke-opacity:1"
       d="m 359.1141,43.311775 c 3.04755,-3.725001 6.0951,-1.651194 9.14265,-0.08405 l 2.25195,26.487105 -6.74864,0.316882 z"
       id="path670"
       sodipodi:nodetypes="ccccc" />
    <path
       style="display:inline;fill:none;stroke:white;stroke-width:1px;stroke-linecap:butt;stroke-linejoin:miter;stroke-opacity:1"
       d="m 381.07869,39.628953 -5.05851,29.120032 10.08869,1.878655 17.42024,-22.169839 c -6.61668,-7.86428 -14.52707,-8.383486 -22.45042,-8.828848 z"
       id="path672"
       sodipodi:nodetypes="ccccc" />
    <path
       style="display:inline;fill:none;stroke:white;stroke-width:1px;stroke-linecap:butt;stroke-linejoin:miter;stroke-opacity:1"
       d="m 293.23628,74.65724 c 5.708,5.606996 -0.50704,19.515537 -5.90463,32.85492 -3.54817,6.71311 -7.96044,11.04566 -17.9205,0.0957 -7.85392,-4.17834 -10.86967,-10.573159 -6.13439,-20.518875 8.35512,-8.612202 17.83154,-14.153328 29.95952,-12.431716 z"
       id="path674"
       sodipodi:nodetypes="ccccc" />
    <path
       style="display:inline;fill:none;stroke:white;stroke-width:1px;stroke-linecap:butt;stroke-linejoin:miter;stroke-opacity:1"
       d="m 467.70776,153.71146 c -7.08876,-0.61361 -10.43878,8.70351 -14.05005,17.32694 2.97664,6.39695 7.90962,8.50351 13.68054,8.7723 11.72646,-2.84603 11.90589,-9.22481 11.13315,-15.8949 -2.66575,-5.61543 -5.15138,-11.66303 -10.76364,-10.20434 z"
       id="path676"
       sodipodi:nodetypes="ccccc" />
    <path
       style="display:inline;fill:none;stroke:white;stroke-width:1px;stroke-linecap:butt;stroke-linejoin:miter;stroke-opacity:1"
       d="m 467.92245,160.05672 c -4.06744,1.03991 -5.90559,3.79366 -5.75662,8.07507 l 5.43983,4.10113 c 2.25088,-1.50894 5.93805,-1.0357 5.49352,-6.26461 -0.58522,-2.19364 -0.54588,-4.50956 -5.17673,-5.91159 z"
       id="path678"
       sodipodi:nodetypes="ccccc" />
    <path
       style="display:inline;fill:none;stroke:white;stroke-width:1px;stroke-linecap:butt;stroke-linejoin:miter;stroke-opacity:1"
       d="m 448.93873,23.215733 c 12.63138,-7.96187 15.02788,-6.122484 6.41872,6.256283 -29.97949,22.024368 -54.20871,48.684319 -80.35283,73.800594 -9.06043,9.47918 -7.74556,19.37836 9.73568,7.10905 l 77.44811,-73.744503 c 13.97945,-9.177091 16.23909,0.233004 7.15445,9.220916 l -82.31488,75.908547 c -13.87131,10.34636 -36.74743,4.51071 -23.46935,-19.10259 28.46003,-26.482766 51.64085,-55.763684 85.3801,-79.448297 z"
       id="path680"
       sodipodi:nodetypes="ccccccccc" />
    <path
       style="display:inline;fill:none;stroke:white;stroke-width:1px;stroke-linecap:butt;stroke-linejoin:miter;stroke-opacity:1"
       d="m 338.53842,97.743844 c 14.45022,-23.49373 30.64034,-5.191612 12.24255,5.816266 -5.32485,14.53696 -3.85554,24.55567 5.39768,29.39788 24.93184,15.87183 34.59692,2.50796 45.3717,-8.73086 5.30601,-25.154212 22.93827,-12.43457 11.12074,7.32911 -24.41172,32.64635 -46.93677,27.73221 -68.93527,12.33246 -24.63437,-32.3966 -6.50179,-33.01944 -5.1974,-46.144856 z"
       id="path682"
       sodipodi:nodetypes="ccccccc" />
    <path
       style="display:inline;fill:none;stroke:white;stroke-width:1px;stroke-linecap:butt;stroke-linejoin:miter;stroke-opacity:1"
       d="m 197.36599,148.01433 c -11.78522,-12.17801 9.35916,-21.09895 13.43811,-10.45954 l 98.92553,106.60458 c 8.75239,6.73532 -4.00674,14.72344 -10.70832,8.87319 z"
       id="path684"
       sodipodi:nodetypes="ccccc" />
  </g>
</svg>
